<?xml version="1.0" standalone="no"?>
<!DOCTYPE svg PUBLIC "-//W3C//DTD SVG 20010904//EN"
 "http://www.w3.org/TR/2001/REC-SVG-20010904/DTD/svg10.dtd">
<svg version="1.0" xmlns="http://www.w3.org/2000/svg"
 width="832.000000pt" height="832.000000pt" viewBox="0 0 832.000000 832.000000"
 preserveAspectRatio="xMidYMid meet">
<metadata>
Created by potrace 1.14, written by Peter Selinger 2001-2017
</metadata>
<g transform="translate(0.000000,832.000000) scale(0.100000,-0.100000)"
fill="#000000" stroke="none">
<path d="M643 5778 c2 -1399 6 -2559 9 -2578 3 -19 9 -66 13 -105 7 -73 11
-96 19 -123 3 -9 7 -35 10 -57 32 -259 187 -718 347 -1022 64 -121 176 -308
194 -323 8 -7 15 -18 15 -24 0 -6 14 -26 30 -45 17 -18 30 -37 30 -42 0 -4 6
-14 13 -21 7 -7 26 -31 42 -53 17 -22 32 -42 36 -45 3 -3 12 -14 20 -26 70
-103 361 -394 529 -530 19 -16 37 -31 40 -35 3 -3 48 -36 100 -73 52 -37 102
-72 111 -79 19 -15 27 -20 164 -102 120 -72 343 -184 470 -235 44 -18 89 -36
100 -41 21 -9 200 -68 225 -74 8 -2 30 -8 48 -14 17 -5 32 -7 32 -4 0 3 6 1
13 -5 11 -9 68 -23 217 -53 106 -22 171 -32 280 -45 19 -2 60 -7 90 -10 129
-15 596 -9 730 10 14 2 54 7 90 11 36 4 67 8 70 10 3 2 24 6 46 9 44 7 66 11
104 20 14 3 36 8 50 10 109 20 359 98 530 164 14 5 27 9 30 9 3 -1 19 6 35 15
17 8 101 50 189 93 154 76 359 194 421 243 6 4 27 18 48 31 20 12 37 27 37 32
0 5 6 9 14 9 8 0 16 3 18 8 2 4 26 24 53 44 68 51 62 46 135 108 148 125 419
411 512 541 9 13 24 33 33 44 50 64 148 210 190 283 6 9 31 53 56 97 96 166
202 407 274 620 20 61 38 117 40 125 2 8 13 51 24 95 24 87 25 91 36 150 5 22
9 42 10 45 1 3 7 39 14 80 7 41 15 86 17 100 3 14 7 50 10 80 3 30 9 82 14
115 5 33 9 1195 9 2583 l1 2522 -207 0 -208 0 -1 -2438 c0 -2178 -3 -2606 -20
-2677 -2 -11 -6 -42 -9 -70 -2 -27 -6 -61 -9 -75 -3 -13 -8 -42 -11 -65 -11
-74 -15 -94 -25 -119 -5 -15 -8 -26 -5 -26 9 0 -93 -345 -128 -430 -5 -14 -11
-29 -12 -35 -4 -14 -48 -111 -100 -220 -53 -111 -144 -269 -201 -353 -24 -35
-44 -65 -44 -68 0 -3 -6 -11 -12 -19 -7 -7 -22 -25 -33 -40 -124 -171 -314
-377 -470 -510 -38 -33 -75 -64 -81 -70 -45 -41 -278 -205 -291 -205 -7 0 -13
-4 -13 -9 0 -5 -13 -14 -30 -21 -16 -7 -30 -17 -30 -23 0 -6 -3 -8 -6 -5 -3 4
-22 -5 -41 -18 -20 -13 -39 -24 -44 -24 -4 0 -25 -11 -45 -25 -20 -14 -40 -22
-45 -19 -5 3 -9 2 -9 -3 0 -8 -29 -22 -185 -91 -112 -49 -304 -114 -438 -148
-97 -25 -291 -64 -305 -63 -4 1 -9 0 -12 -1 -3 -1 -16 -3 -30 -5 -14 -1 -54
-6 -90 -10 -136 -16 -421 -21 -545 -11 -160 14 -221 22 -325 41 -14 3 -40 7
-58 10 -87 14 -313 75 -382 102 -8 3 -21 7 -28 9 -8 1 -21 6 -30 10 -9 4 -23
8 -30 10 -7 1 -33 12 -58 23 -24 12 -46 21 -50 21 -10 0 -273 125 -314 150
-72 43 -153 90 -156 90 -3 0 -10 4 -17 10 -7 5 -61 45 -122 88 -60 42 -121 86
-134 97 -228 188 -408 372 -550 564 -36 47 -68 87 -73 89 -4 2 -8 9 -8 16 0 7
-9 23 -20 36 -38 43 -159 256 -225 393 -70 144 -155 359 -155 389 0 10 -4 18
-8 18 -5 0 -9 6 -9 13 0 6 -8 39 -17 72 -10 33 -19 67 -21 75 -2 8 -10 42 -18
75 -9 33 -18 72 -21 88 -3 15 -10 55 -16 88 -6 34 -13 77 -15 97 -2 21 -6 53
-9 72 -3 19 -8 60 -12 90 -8 60 -16 4593 -9 4625 4 21 5 21 1450 21 1290 0
1445 -2 1445 -16 1 -8 1 -476 1 -1040 l0 -1025 1031 0 c566 0 1032 -4 1035 -8
4 -6 7 -1777 4 -2034 l-1 -42 -1025 0 c-563 0 -1029 -2 -1034 -5 -11 -7 -13
-2486 -3 -2487 10 -1 373 -1 393 0 14 1 15 105 15 1038 l1 1038 994 2 c547 1
1012 2 1034 2 l40 1 0 1453 0 1452 -60 2 c-100 4 -118 4 -157 1 -21 -2 -38 0
-38 5 0 4 -5 5 -11 1 -9 -5 -92 -6 -214 -3 -5 0 -29 -1 -52 -3 -24 -2 -43 0
-43 5 0 4 -5 5 -11 1 -6 -3 -50 -6 -98 -5 -47 1 -90 2 -96 2 -5 0 -35 -1 -66
-2 -31 -1 -61 1 -67 5 -6 3 -13 2 -16 -3 -3 -4 -24 -5 -46 -1 -22 4 -42 4 -45
1 -5 -9 -59 -6 -74 4 -6 3 -11 3 -11 -2 0 -9 -127 -9 -137 0 -3 4 -13 2 -23
-3 -10 -5 -20 -7 -22 -4 -6 5 -76 6 -125 1 -18 -2 -33 0 -33 5 0 4 -6 5 -12 3
-25 -9 -98 -11 -98 -3 0 5 -8 5 -17 1 -10 -5 -40 -7 -68 -6 -54 2 -103 3 -175
2 -25 -1 -49 0 -55 1 -5 1 -14 1 -20 0 -25 -4 -167 -1 -172 4 -4 4 -7 472 -7
1041 l0 1035 -1863 0 -1863 0 3 -2542z"/>
</g>
</svg>
