<svg width="386" height="349" viewBox="0 0 386 349" fill="none" xmlns="http://www.w3.org/2000/svg">
<path fill-rule="evenodd" clip-rule="evenodd" d="M28.2872 0C13.1572 0 0.887707 12.215 0.887707 27.2881L0.887695 304.768C0.887695 319.841 13.1571 332.056 28.2872 332.056H44.0525V348.348L73.2929 332.056H358.47C373.6 332.056 385.869 319.841 385.869 304.768V27.2881C385.869 12.215 373.6 0 358.47 0H28.2872ZM2.43145 27.2881C2.43145 13.0713 14.0052 1.54218 28.2872 1.54218H358.47C372.752 1.54218 384.325 13.0713 384.325 27.2881V304.768C384.325 318.985 372.752 330.514 358.47 330.514H72.835L45.5962 345.5V330.514H28.2872C14.0051 330.514 2.43143 318.985 2.43143 304.768L2.43145 27.2881Z" fill="#FF033E"/>
</svg>
