<svg width="481" height="335" viewBox="0 0 481 335" fill="none" xmlns="http://www.w3.org/2000/svg">
<path fill-rule="evenodd" clip-rule="evenodd" d="M35.0512 0C16.1869 0 0.88916 15.2298 0.88916 34.0231V280.664C0.88916 299.457 16.1869 314.687 35.0512 314.687H54.7076V335L91.165 314.687H446.727C465.591 314.687 480.889 299.457 480.889 280.664V34.0231C480.889 15.2298 465.591 0 446.727 0H35.0512ZM2.81391 34.0231C2.81391 16.2975 17.2442 1.92281 35.0512 1.92281H446.727C464.534 1.92281 478.964 16.2975 478.964 34.0231V280.664C478.964 298.389 464.534 312.764 446.727 312.764H90.5941L56.6323 331.449V312.764H35.0512C17.2442 312.764 2.81391 298.389 2.81391 280.664V34.0231Z" fill="#FF033E"/>
</svg>
