<svg width="98" height="98" viewBox="0 0 98 98" fill="none" xmlns="http://www.w3.org/2000/svg">
<g clip-path="url(#clip0_492_23568)">
<path d="M95.4002 26.0471C94.2875 21.9123 91.0275 18.653 86.8934 17.5395C79.3401 15.4724 49.1271 15.4724 49.1271 15.4724C49.1271 15.4724 18.9149 15.4724 11.3616 17.4607C7.307 18.5734 3.96743 21.913 2.85473 26.0471C0.867188 33.5996 0.867188 49.2629 0.867188 49.2629C0.867188 49.2629 0.867188 65.0049 2.85473 72.4786C3.96817 76.6127 7.22747 79.8728 11.3624 80.9862C18.9944 83.0533 49.1279 83.0533 49.1279 83.0533C49.1279 83.0533 79.3401 83.0533 86.8934 81.065C91.0282 79.9523 94.2875 76.6923 95.401 72.5581C97.3885 65.0049 97.3885 49.3424 97.3885 49.3424C97.3885 49.3424 97.468 33.5996 95.4002 26.0471Z" fill="black" fill-opacity="0.4"/>
<path d="M39.5078 63.7339L64.6317 49.2635L39.5078 34.7932V63.7339Z" fill="white"/>
</g>
<defs>
<clipPath id="clip0_492_23568">
<rect width="96.5217" height="96.5217" fill="white" transform="translate(0.867188 0.956635)"/>
</clipPath>
</defs>
</svg>
