<svg width="121" height="121" viewBox="0 0 121 121" fill="none" xmlns="http://www.w3.org/2000/svg">
<g id="briefcase" clip-path="url(#clip0_959_27630)">
<path id="Vector" d="M118.893 32.1963H102.252V30.4385C102.251 29.0403 101.695 27.6997 100.706 26.711C99.7173 25.7223 98.3767 25.1663 96.9785 25.165H96.3926V16.7275C96.3876 12.5333 94.7192 8.51218 91.7534 5.54637C88.7876 2.58056 84.7665 0.912189 80.5723 0.907227L40.7285 0.907227C36.5342 0.912189 32.5132 2.58056 29.5473 5.54637C26.5815 8.51218 24.9132 12.5333 24.9082 16.7275V25.165H24.3223C22.924 25.1663 21.5834 25.7223 20.5948 26.711C19.6061 27.6997 19.0501 29.0403 19.0488 30.4385V32.1963H2.4082C1.942 32.1963 1.4949 32.3815 1.16524 32.7111C0.835588 33.0408 0.650391 33.4879 0.650391 33.9541V78.4854C0.650177 78.8533 0.765409 79.212 0.979851 79.5109C1.19429 79.8099 1.49713 80.034 1.8457 80.1518L29.6191 89.5268C29.8004 89.5876 29.9904 89.6185 30.1816 89.6182H91.1191C91.3104 89.6185 91.5004 89.5876 91.6816 89.5268L119.455 80.1518C119.804 80.034 120.106 79.8099 120.321 79.5109C120.535 79.212 120.651 78.8533 120.65 78.4854V33.9541C120.65 33.4879 120.465 33.0408 120.136 32.7111C119.806 32.3815 119.359 32.1963 118.893 32.1963ZM98.7363 30.4385V32.1963H84.184L85.3559 28.6807H96.9785C97.4447 28.6807 97.8918 28.8659 98.2215 29.1955C98.5511 29.5252 98.7363 29.9723 98.7363 30.4385ZM40.8246 32.1963L38.8816 26.3674C38.7644 26.0175 38.5402 25.7133 38.2408 25.4976C37.9414 25.2818 37.5819 25.1655 37.2129 25.165H35.4551V16.7275C35.4563 15.3293 36.0123 13.9887 37.001 13C37.9897 12.0113 39.3303 11.4553 40.7285 11.4541H80.5723C81.9705 11.4553 83.3111 12.0113 84.2998 13C85.2885 13.9887 85.8445 15.3293 85.8457 16.7275V25.165H84.0879C83.7189 25.1655 83.3593 25.2818 83.0599 25.4976C82.7606 25.7133 82.5364 26.0175 82.4191 26.3674L80.4762 32.1963H40.8246ZM28.4238 16.7275C28.4275 13.4653 29.7251 10.3377 32.0319 8.03092C34.3387 5.72415 37.4663 4.42657 40.7285 4.42285H80.5723C83.8345 4.42657 86.9621 5.72415 89.2689 8.03092C91.5757 10.3377 92.8732 13.4653 92.877 16.7275V25.165H89.3613V16.7275C89.3588 14.3973 88.4321 12.1632 86.7843 10.5155C85.1366 8.86774 82.9025 7.94096 80.5723 7.93848H40.7285C38.3983 7.94096 36.1642 8.86774 34.5165 10.5155C32.8687 12.1632 31.9419 14.3973 31.9395 16.7275V25.165H28.4238V16.7275ZM22.5645 30.4385C22.5645 29.9723 22.7497 29.5252 23.0793 29.1955C23.409 28.8659 23.8561 28.6807 24.3223 28.6807H35.9449L37.1168 32.1963H22.5645V30.4385ZM4.16602 35.7119H12.0176V79.8729L4.16602 77.2244V35.7119ZM90.8309 86.1025H30.4699L15.5332 81.0635V35.7119H105.768V81.0635L90.8309 86.1025ZM117.135 77.2244L109.283 79.8729V35.7119H117.135V77.2244Z" fill="#B9B9B9"/>
<path id="Vector_2" d="M60.6504 42.7432C57.0579 42.7432 53.5461 43.8085 50.559 45.8044C47.5719 47.8003 45.2438 50.6371 43.869 53.9561C42.4942 57.2752 42.1345 60.9274 42.8354 64.4509C43.5362 67.9743 45.2662 71.2109 47.8065 73.7512C50.3468 76.2915 53.5833 78.0214 57.1068 78.7223C60.6302 79.4231 64.2824 79.0634 67.6015 77.6886C70.9205 76.3138 73.7574 73.9857 75.7533 70.9986C77.7492 68.0116 78.8145 64.4997 78.8145 60.9072C78.8089 56.0915 76.8934 51.4747 73.4882 48.0695C70.083 44.6642 65.4661 42.7487 60.6504 42.7432ZM60.6504 75.5557C57.7532 75.5557 54.9211 74.6966 52.5122 73.087C50.1032 71.4774 48.2257 69.1896 47.117 66.5129C46.0083 63.8363 45.7182 60.891 46.2834 58.0495C46.8486 55.2079 48.2438 52.5978 50.2924 50.5492C52.341 48.5006 54.9511 47.1055 57.7926 46.5403C60.6341 45.975 63.5795 46.2651 66.2561 47.3738C68.9328 48.4825 71.2205 50.3601 72.8301 52.769C74.4397 55.1779 75.2988 58.01 75.2988 60.9072C75.2945 64.7909 73.7498 68.5143 71.0036 71.2604C68.2574 74.0066 64.5341 75.5513 60.6504 75.5557Z" fill="#B9B9B9"/>
<path id="Vector_3" d="M66.4314 54.9823L58.4041 63.0964L54.8674 59.5222C54.5376 59.1998 54.0944 59.02 53.6332 59.0214C53.1721 59.0228 52.7299 59.2054 52.4022 59.5298C52.0744 59.8542 51.8872 60.2944 51.881 60.7555C51.8748 61.2166 52.05 61.6617 52.3689 61.9948L57.1549 66.8323C57.3185 66.9971 57.5131 67.128 57.7275 67.2172C57.9419 67.3065 58.1719 67.3525 58.4041 67.3525C58.6363 67.3525 58.8663 67.3065 59.0807 67.2172C59.2951 67.128 59.4897 66.9971 59.6533 66.8323L68.9299 57.4573C69.0924 57.2933 69.221 57.0988 69.3084 56.8851C69.3957 56.6713 69.4401 56.4424 69.439 56.2115C69.438 55.9806 69.3914 55.7522 69.302 55.5393C69.2126 55.3263 69.0822 55.1331 68.9182 54.9706C68.7541 54.8081 68.5597 54.6795 68.3459 54.5921C68.1322 54.5048 67.9033 54.4604 67.6724 54.4614C67.4415 54.4625 67.213 54.5091 67.0001 54.5985C66.7872 54.6878 66.594 54.8183 66.4314 54.9823Z" fill="#B9B9B9"/>
<path id="Vector_4" d="M89.3613 105.767V103.681H81.1582V105.767L85.2598 109.048L89.3613 105.767Z" fill="#FF033E"/>
<path id="Vector_5" d="M89.3613 93.1338H81.1582V100.165H89.3613V93.1338Z" fill="#FF033E"/>
<path id="Vector_6" d="M60.6504 101.337C61.7378 101.336 62.7803 100.903 63.5493 100.134C64.3182 99.3653 64.7507 98.3228 64.752 97.2354V93.1338H56.5488V97.2354C56.5501 98.3228 56.9826 99.3653 57.7515 100.134C58.5204 100.903 59.563 101.336 60.6504 101.337Z" fill="#FF033E"/>
<path id="Vector_7" d="M40.1426 105.767V103.681H31.9395V105.767L36.041 109.048L40.1426 105.767Z" fill="#FF033E"/>
<path id="Vector_8" d="M92.877 92.8339V106.61C92.8766 106.874 92.8172 107.134 92.7032 107.372C92.5893 107.609 92.4236 107.819 92.2184 107.984L86.359 112.671C86.0466 112.92 85.6591 113.056 85.2598 113.056C84.8605 113.056 84.473 112.92 84.1606 112.671L78.3012 107.984C78.0959 107.819 77.9303 107.609 77.8163 107.372C77.7024 107.134 77.643 106.874 77.6426 106.61V93.1339H68.2676V97.2355C68.2676 99.2557 67.4651 101.193 66.0366 102.622C64.6081 104.05 62.6706 104.853 60.6504 104.853C58.6302 104.853 56.6927 104.05 55.2643 102.622C53.8358 101.193 53.0332 99.2557 53.0332 97.2355V93.1339H43.6582V106.61C43.6578 106.874 43.5985 107.134 43.4845 107.372C43.3705 107.609 43.2049 107.819 42.9996 107.984L37.1403 112.671C36.8279 112.92 36.4404 113.056 36.041 113.056C35.6417 113.056 35.2542 112.92 34.9418 112.671L29.0824 107.984C28.8772 107.819 28.7115 107.609 28.5976 107.372C28.4836 107.134 28.4243 106.874 28.4239 106.61V92.8339L4.98635 84.9214V119.14C4.98512 119.372 5.02967 119.601 5.11746 119.816C5.20524 120.03 5.33453 120.225 5.49788 120.389C5.66123 120.553 5.85543 120.684 6.06931 120.773C6.28319 120.862 6.51254 120.907 6.74417 120.907H114.557C115.023 120.907 115.47 120.722 115.8 120.392C116.129 120.063 116.314 119.616 116.314 119.15V84.9308L92.877 92.8339Z" fill="#FF033E"/>
<path id="Vector_9" d="M40.1426 93.1338H31.9395V100.165H40.1426V93.1338Z" fill="#FF033E"/>
</g>
<defs>
<clipPath id="clip0_959_27630">
<rect width="120" height="120" fill="white" transform="translate(0.650391 0.907227)"/>
</clipPath>
</defs>
</svg>
