<svg width="132" height="132" viewBox="0 0 132 132" fill="none" xmlns="http://www.w3.org/2000/svg">
<g id="Pasted-20230719-203341 1" clip-path="url(#clip0_1003_29068)">
<path id="Vector" d="M132 88.3101V93.3101C131.173 99.9501 128.71 105.947 124.61 111.3C124.33 111.669 123.921 111.918 123.466 111.996C123.01 112.074 122.543 111.975 122.16 111.72C120.71 110.75 121.15 109.52 122.05 108.29C136.23 89.0001 123.25 61.2201 98.7 62.0101C69.36 62.9501 60.31 101.95 86.3 115.91C96.0667 121.157 106.263 120.383 116.89 113.59C117.177 113.41 117.487 113.357 117.82 113.43C118.567 113.61 119.093 114.153 119.4 115.06C119.531 115.448 119.526 115.87 119.384 116.257C119.242 116.644 118.973 116.973 118.62 117.19C104.92 125.523 91.7267 125.11 79.04 115.95C78.54 115.59 77.89 114.75 77 114.75C55.14 114.75 33.28 114.75 11.42 114.75C5.25999 114.75 1.39999 113.03 -9.76585e-06 106.94V38.4401C0.69999 37.3801 1.60999 37.0134 2.72999 37.3401C3.09666 37.4401 3.35332 37.6668 3.49999 38.0201C4.15999 39.6468 4.23999 41.3034 3.73999 42.9901C3.70584 43.1079 3.69958 43.232 3.72171 43.3526C3.74384 43.4733 3.79375 43.5871 3.86749 43.6851C3.94123 43.7831 4.03678 43.8626 4.14656 43.9173C4.25634 43.9719 4.37735 44.0003 4.49999 44.0001H113.52C113.887 44.0001 114.067 43.8168 114.06 43.4501C114.03 37.4301 117.03 22.2201 105.19 25.2601C104.89 25.3334 104.74 25.5301 104.74 25.8501C104.78 28.0601 104.93 30.4401 104.2 32.3901C102.39 37.1901 97.01 38.9901 92.73 36.2201C89.03 33.8201 89.24 29.8201 89.25 25.7101C89.25 25.2368 89.0167 25.0001 88.55 25.0001H79.98C79.58 25.0001 79.3633 25.2001 79.33 25.6001C79.12 28.1101 79.55 30.7601 78.71 32.8901C76.23 39.2201 66.96 38.9001 64.54 32.6901C63.7 30.5401 64.12 28.0601 63.92 25.6001C63.8867 25.2001 63.67 25.0001 63.27 25.0001H54.51C54.1433 25.0001 53.9667 25.1834 53.98 25.5501C54.1 28.5201 54.29 31.5101 52.75 34.0001C49.62 39.0601 41.34 38.6001 39.21 32.7501C38.47 30.7301 38.78 28.0001 38.73 25.6801C38.7248 25.4979 38.6487 25.325 38.518 25.198C38.3873 25.071 38.2122 25 38.03 25.0001L29.07 25.0101C28.987 25.01 28.9051 25.0283 28.8301 25.0637C28.7551 25.0991 28.6889 25.1507 28.6362 25.2148C28.5836 25.2789 28.5459 25.3539 28.5258 25.4344C28.5057 25.5148 28.5037 25.5988 28.52 25.6801C29.46 30.7101 27.91 36.3401 22.31 37.3701C14.58 38.7901 13.15 31.7001 13.26 25.9101C13.2631 25.7306 13.2025 25.5558 13.089 25.4167C12.9755 25.2776 12.8165 25.1831 12.64 25.1501C7.07999 24.1568 4.09999 26.3334 3.69999 31.6801C3.67332 32.0134 3.54999 32.3001 3.32999 32.5401C2.23666 33.7068 1.12332 33.5101 -0.0100098 31.9501L-9.76585e-06 28.9401C1.15332 24.8801 3.70332 22.3734 7.64999 21.4201C9.03999 21.0801 10.65 21.4201 12.01 21.2101C12.85 21.0768 13.2533 20.5868 13.22 19.7401C12.61 3.7601 31.17 6.6401 28.53 20.3801C28.5109 20.4869 28.5152 20.5966 28.5426 20.7013C28.57 20.8061 28.6198 20.9035 28.6885 20.9865C28.7572 21.0695 28.8431 21.1361 28.9402 21.1817C29.0372 21.2273 29.143 21.2506 29.25 21.2501H38.02C38.4533 21.2501 38.67 21.0334 38.67 20.6001C38.66 18.0401 38.44 15.2701 39.53 13.0401C42.42 7.1601 51.36 7.7101 53.55 14.0101C54.22 15.9601 53.96 18.3201 54.01 20.5601C54.0233 21.0201 54.2567 21.2501 54.71 21.2501H63.29C63.75 21.2501 63.9833 21.0201 63.99 20.5601C64.03 18.3101 63.74 15.7901 64.5 13.8701C67.01 7.4601 75.72 7.2701 78.6 13.4201C79.6 15.5701 79.19 18.2601 79.27 20.7601C79.2767 21.0868 79.4467 21.2501 79.78 21.2501H88.53C88.9967 21.2501 89.23 21.0201 89.23 20.5601C89.25 16.2101 89.23 12.3901 92.73 10.1401C97.09 7.3501 102.55 9.3801 104.26 14.2701C104.94 16.2101 104.77 18.5701 104.75 20.7301C104.743 21.0901 104.92 21.2668 105.28 21.2601C114.31 21.0801 117.96 24.1001 117.98 33.2901C118.007 43.2901 118.01 53.3168 117.99 63.3701C117.99 63.5597 118.034 63.7469 118.119 63.917C118.204 64.0871 118.328 64.2354 118.48 64.3501C126.36 70.2701 130.867 78.2568 132 88.3101ZM24.7618 16.4668C24.7626 15.9835 24.6683 15.5048 24.4841 15.058C24.3 14.6112 24.0296 14.2051 23.6885 13.8628C23.3473 13.5205 22.9421 13.2487 22.496 13.063C22.0498 12.8773 21.5715 12.7812 21.0882 12.7804L20.7682 12.7798C20.2849 12.779 19.8062 12.8733 19.3594 13.0575C18.9126 13.2416 18.5065 13.512 18.1642 13.8531C17.8218 14.1942 17.5501 14.5995 17.3644 15.0456C17.1786 15.4918 17.0826 15.9701 17.0818 16.4534L17.0582 29.9934C17.0574 30.4767 17.1517 30.9554 17.3359 31.4022C17.52 31.849 17.7904 32.2551 18.1315 32.5974C18.4726 32.9397 18.8778 33.2115 19.324 33.3972C19.7702 33.5829 20.2485 33.679 20.7318 33.6798L21.0518 33.6804C21.5351 33.6812 22.0138 33.5869 22.4606 33.4027C22.9074 33.2186 23.3135 32.9482 23.6558 32.6071C23.9981 32.266 24.2699 31.8607 24.4556 31.4146C24.6413 30.9684 24.7374 30.4901 24.7382 30.0068L24.7618 16.4668ZM50.034 16.3832C50.0356 15.9118 49.9444 15.4446 49.7655 15.0084C49.5866 14.5722 49.3236 14.1755 48.9913 13.841C48.6591 13.5065 48.2643 13.2407 47.8294 13.0588C47.3944 12.8768 46.9279 12.7823 46.4565 12.7807L46.1565 12.7796C45.685 12.778 45.2179 12.8692 44.7817 13.0481C44.3455 13.227 43.9488 13.49 43.6143 13.8222C43.2798 14.1544 43.014 14.5493 42.832 14.9842C42.6501 15.4191 42.5556 15.8857 42.554 16.3571L42.506 30.097C42.5043 30.5684 42.5956 31.0356 42.7745 31.4718C42.9534 31.908 43.2164 32.3047 43.5486 32.6392C43.8808 32.9737 44.2757 33.2395 44.7106 33.4214C45.1455 33.6034 45.612 33.6979 46.0835 33.6995L46.3835 33.7006C46.8549 33.7022 47.3221 33.611 47.7583 33.4321C48.1945 33.2532 48.5911 32.9902 48.9257 32.658C49.2602 32.3258 49.526 31.9309 49.7079 31.496C49.8899 31.0611 49.9843 30.5945 49.986 30.1231L50.034 16.3832ZM75.48 16.4901C75.48 15.5115 75.0912 14.5729 74.3992 13.8809C73.7072 13.1889 72.7686 12.8001 71.79 12.8001H71.49C70.5113 12.8001 69.5728 13.1889 68.8808 13.8809C68.1888 14.5729 67.8 15.5115 67.8 16.4901V29.9901C67.8 30.9688 68.1888 31.9073 68.8808 32.5993C69.5728 33.2913 70.5113 33.6801 71.49 33.6801H71.79C72.7686 33.6801 73.7072 33.2913 74.3992 32.5993C75.0912 31.9073 75.48 30.9688 75.48 29.9901V16.4901ZM100.74 16.3501C100.74 15.3953 100.361 14.4796 99.6856 13.8045C99.0104 13.1294 98.0948 12.7501 97.14 12.7501H96.86C95.9052 12.7501 94.9895 13.1294 94.3144 13.8045C93.6393 14.4796 93.26 15.3953 93.26 16.3501V30.1101C93.26 31.0649 93.6393 31.9806 94.3144 32.6557C94.9895 33.3308 95.9052 33.7101 96.86 33.7101H97.14C98.0948 33.7101 99.0104 33.3308 99.6856 32.6557C100.361 31.9806 100.74 31.0649 100.74 30.1101V16.3501ZM22.7854 48.2965C22.7855 48.2571 22.7778 48.2181 22.7627 48.1817C22.7477 48.1452 22.7257 48.1121 22.6979 48.0842C22.6701 48.0563 22.637 48.0342 22.6007 48.019C22.5643 48.0039 22.5253 47.9961 22.4859 47.996L4.28599 47.9642C4.24659 47.9641 4.20755 47.9718 4.17112 47.9868C4.13468 48.0018 4.10156 48.0239 4.07365 48.0517C4.04573 48.0795 4.02357 48.1125 4.00843 48.1489C3.99328 48.1853 3.98546 48.2243 3.98539 48.2637L3.95459 65.9437C3.95452 65.9831 3.96222 66.0221 3.97723 66.0585C3.99225 66.095 4.01429 66.1281 4.0421 66.156C4.06992 66.1839 4.10295 66.206 4.13932 66.2212C4.1757 66.2363 4.21469 66.2441 4.25409 66.2442L22.454 66.276C22.4934 66.2761 22.5324 66.2684 22.5689 66.2534C22.6053 66.2384 22.6384 66.2163 22.6663 66.1885C22.6942 66.1607 22.7164 66.1277 22.7316 66.0913C22.7467 66.0549 22.7545 66.0159 22.7546 65.9765L22.7854 48.2965ZM45.7249 48.4636C45.7248 48.3979 45.7117 48.3329 45.6865 48.2723C45.6613 48.2117 45.6244 48.1566 45.5778 48.1102C45.5313 48.0639 45.4761 48.0271 45.4154 48.0021C45.3547 47.9771 45.2897 47.9643 45.224 47.9644L27.244 47.9958C27.1783 47.9959 27.1133 48.009 27.0527 48.0342C26.9921 48.0594 26.937 48.0964 26.8907 48.1429C26.8444 48.1894 26.8076 48.2446 26.7826 48.3053C26.7576 48.366 26.7448 48.431 26.7449 48.4967L26.7751 65.7966C26.7752 65.8623 26.7882 65.9273 26.8135 65.9879C26.8387 66.0485 26.8756 66.1036 26.9221 66.15C26.9687 66.1963 27.0238 66.233 27.0846 66.2581C27.1453 66.2831 27.2103 66.2959 27.276 66.2958L45.256 66.2644C45.3217 66.2643 45.3866 66.2512 45.4473 66.226C45.5079 66.2008 45.5629 66.1638 45.6093 66.1173C45.6556 66.0708 45.6924 66.0156 45.7174 65.9549C45.7424 65.8942 45.7552 65.8292 45.7551 65.7635L45.7249 48.4636ZM68.4745 48.2636C68.4744 48.2255 68.4669 48.1878 68.4522 48.1527C68.4376 48.1175 68.4162 48.0856 68.3892 48.0587C68.3622 48.0318 68.3302 48.0105 68.295 47.996C68.2598 47.9815 68.2221 47.974 68.184 47.9741L49.7841 48.0062C49.746 48.0063 49.7083 48.0138 49.6731 48.0285C49.638 48.0431 49.6061 48.0645 49.5792 48.0915C49.5523 48.1185 49.531 48.1505 49.5165 48.1857C49.502 48.2209 49.4945 48.2586 49.4946 48.2967L49.5255 65.9966C49.5256 66.0347 49.5331 66.0724 49.5478 66.1075C49.5624 66.1427 49.5838 66.1746 49.6108 66.2015C49.6378 66.2284 49.6698 66.2497 49.705 66.2642C49.7402 66.2787 49.7779 66.2862 49.816 66.2861L68.2159 66.254C68.254 66.2539 68.2917 66.2464 68.3268 66.2317C68.362 66.2171 68.3939 66.1957 68.4208 66.1687C68.4477 66.1417 68.469 66.1097 68.4835 66.0745C68.498 66.0393 68.5055 66.0016 68.5054 65.9635L68.4745 48.2636ZM72.89 66.3201L77.61 66.2201C77.9567 66.2134 78.2667 66.0968 78.54 65.8701C82.14 62.8234 86.2133 60.6534 90.76 59.3601C91.0867 59.2734 91.25 59.0601 91.25 58.7201V48.6101C91.25 48.1834 91.0367 47.9701 90.61 47.9701L72.74 48.0101C72.4133 48.0101 72.25 48.1768 72.25 48.5101V65.7001C72.2499 65.7832 72.2666 65.8655 72.299 65.9421C72.3314 66.0186 72.3789 66.0879 72.4386 66.1457C72.4983 66.2036 72.569 66.2488 72.6466 66.2788C72.7241 66.3087 72.8069 66.3228 72.89 66.3201ZM95.63 58.2701C102.28 58.1701 106.55 58.2601 113.54 61.4101C113.9 61.5768 114.08 61.4601 114.08 61.0601L113.96 48.4801C113.96 48.1601 113.8 48.0001 113.48 48.0001H95.62C95.2067 48.0001 95 48.2101 95 48.6301L95.01 57.6601C95.01 58.0734 95.2167 58.2768 95.63 58.2701ZM22.7856 70.5865C22.7857 70.5432 22.7772 70.5002 22.7607 70.4601C22.7442 70.4201 22.7199 70.3836 22.6893 70.3529C22.6587 70.3222 22.6224 70.2979 22.5824 70.2812C22.5423 70.2646 22.4994 70.256 22.4561 70.2559L4.33619 70.2243C4.29285 70.2242 4.24993 70.2327 4.20986 70.2492C4.16979 70.2657 4.13337 70.2899 4.10267 70.3205C4.07197 70.3511 4.0476 70.3875 4.03094 70.4275C4.01428 70.4675 4.00567 70.5104 4.00559 70.5537L3.97439 88.3937C3.97431 88.437 3.98277 88.48 3.99929 88.5201C4.01581 88.5601 4.04006 88.5966 4.07066 88.6273C4.10125 88.658 4.1376 88.6823 4.17762 88.699C4.21764 88.7156 4.26055 88.7242 4.30389 88.7243L22.4238 88.7559C22.4671 88.756 22.5101 88.7475 22.5501 88.731C22.5902 88.7145 22.6266 88.6903 22.6573 88.6597C22.688 88.6291 22.7124 88.5928 22.729 88.5527C22.7457 88.5127 22.7543 88.4698 22.7544 88.4265L22.7856 70.5865ZM45.7553 70.7367C45.7554 70.671 45.7426 70.606 45.7176 70.5453C45.6925 70.4846 45.6558 70.4294 45.6094 70.3828C45.5631 70.3363 45.508 70.2994 45.4474 70.2742C45.3868 70.2489 45.3218 70.2359 45.2561 70.2358L27.2362 70.2044C27.1705 70.2043 27.1055 70.2171 27.0448 70.2421C26.9841 70.2671 26.9289 70.3039 26.8824 70.3502C26.8359 70.3966 26.7989 70.4516 26.7737 70.5122C26.7485 70.5728 26.7354 70.6378 26.7353 70.7035L26.7047 88.2235C26.7046 88.2892 26.7174 88.3542 26.7424 88.4149C26.7674 88.4756 26.8042 88.5308 26.8505 88.5774C26.8969 88.6239 26.952 88.6608 27.0126 88.686C27.0732 88.7113 27.1382 88.7243 27.2039 88.7244L45.2238 88.7558C45.2895 88.7559 45.3545 88.7431 45.4152 88.7181C45.4759 88.6931 45.5311 88.6563 45.5776 88.61C45.6241 88.5636 45.661 88.5086 45.6863 88.448C45.7115 88.3874 45.7246 88.3224 45.7247 88.2567L45.7553 70.7367ZM49.9 70.2001C49.7939 70.2001 49.6922 70.2422 49.6171 70.3173C49.5421 70.3923 49.5 70.494 49.5 70.6001V88.0001C49.5 88.5001 49.75 88.7501 50.25 88.7501H66.24C66.5867 88.7501 66.8033 88.5834 66.89 88.2501C68.3367 82.5834 68.85 76.8301 68.43 70.9901C68.4126 70.7895 68.3221 70.6025 68.176 70.4657C68.03 70.3289 67.8389 70.252 67.64 70.2501L49.9 70.2001ZM72.17 71.6301C72.1859 71.7242 72.2267 71.8125 72.2878 71.8857C72.349 71.959 72.4284 72.0144 72.5175 72.0462C72.6067 72.0779 72.7023 72.0848 72.7943 72.0662C72.8862 72.0475 72.9711 72.0039 73.04 71.9401C73.5 71.5268 73.7467 71.0334 73.78 70.4601C73.8 70.0268 73.6 69.8701 73.18 69.9901C72.3733 70.2168 72.0367 70.7634 72.17 71.6301ZM22.76 110.62L22.77 93.0501C22.77 92.9095 22.7142 92.7747 22.6148 92.6753C22.5154 92.5759 22.3806 92.5201 22.24 92.5201L4.41999 92.4601C4.36615 92.4601 4.31283 92.4707 4.26309 92.4913C4.21335 92.5119 4.16815 92.5421 4.13008 92.5802C4.092 92.6183 4.0618 92.6635 4.0412 92.7132C4.0206 92.7629 4.00999 92.8163 4.00999 92.8701C3.98999 96.3601 3.10999 106.31 4.97999 108.96C7.25999 112.19 18.59 110.99 22.38 111C22.4299 111 22.4793 110.99 22.5254 110.971C22.5715 110.952 22.6134 110.924 22.6487 110.889C22.684 110.854 22.712 110.812 22.7311 110.766C22.7502 110.719 22.76 110.67 22.76 110.62ZM45.7346 92.9435C45.7345 92.8831 45.7225 92.8233 45.6993 92.7675C45.6761 92.7118 45.6421 92.6611 45.5993 92.6185C45.5565 92.5758 45.5057 92.542 45.4499 92.519C45.394 92.496 45.3342 92.4842 45.2738 92.4843L27.1739 92.5159C27.1135 92.516 27.0537 92.528 26.9979 92.5512C26.9421 92.5744 26.8915 92.6084 26.8489 92.6512C26.8062 92.694 26.7724 92.7448 26.7494 92.8006C26.7264 92.8565 26.7146 92.9163 26.7147 92.9767L26.7454 110.557C26.7455 110.617 26.7575 110.677 26.7807 110.733C26.8039 110.788 26.8379 110.839 26.8807 110.882C26.9235 110.924 26.9742 110.958 27.0301 110.981C27.0859 111.004 27.1458 111.016 27.2062 111.016L45.3061 110.984C45.3665 110.984 45.4263 110.972 45.4821 110.949C45.5378 110.926 45.5885 110.892 45.6311 110.849C45.6738 110.806 45.7076 110.755 45.7306 110.7C45.7536 110.644 45.7654 110.584 45.7653 110.523L45.7346 92.9435ZM73.65 110.29C69.7967 105.177 67.5867 99.4068 67.02 92.9801C66.9933 92.6601 66.82 92.5001 66.5 92.5001H50C49.6667 92.5001 49.5 92.6668 49.5 93.0001V110.5C49.5 110.833 49.6667 111 50 111H73.29C73.3734 110.999 73.4552 110.975 73.5262 110.931C73.5972 110.887 73.6546 110.825 73.692 110.751C73.7294 110.678 73.7452 110.596 73.7378 110.514C73.7304 110.433 73.7 110.355 73.65 110.29Z" fill="#D6224C"/>
<path id="Vector_2" d="M82.6301 79.41C69.8801 103.28 100.65 122.8 115.83 102.31C123.34 92.18 119.12 77.6 107.63 72.41C100.697 69.27 93.7868 70.1034 86.9001 74.91C86.6468 75.09 86.3668 75.16 86.0601 75.12C84.5668 74.9334 83.8201 74.2034 83.8201 72.93C83.8198 72.6935 83.8779 72.4603 83.9896 72.2511C84.1012 72.0418 84.2628 71.8628 84.4601 71.73C99.9101 61.49 120.63 68.24 123.11 87.69C126.25 112.36 94.3701 124.65 79.8701 104.15C74.5435 96.6234 74.1735 88.0933 78.7601 78.56C79.3701 77.29 80.5101 76.73 81.8301 77.24C82.0334 77.3184 82.2176 77.4394 82.3705 77.5948C82.5235 77.7503 82.6416 77.9367 82.7172 78.1418C82.7929 78.3469 82.8242 78.566 82.8092 78.7847C82.7941 79.0033 82.7331 79.2164 82.6301 79.41Z" fill="#D6224C"/>
<path id="Vector_3" d="M114.65 91.4901C115.13 91.4874 115.592 91.6746 115.936 92.0114C116.281 92.3481 116.479 92.8074 116.49 93.2901C116.51 94.5301 115.843 95.1768 114.49 95.2301C109.463 95.4368 104.407 95.5334 99.32 95.5201C98.8364 95.5174 98.3735 95.3245 98.0325 94.9835C97.6914 94.6425 97.5 94.181 97.5 93.7001V78.3301C97.5 78.0854 97.5485 77.8432 97.6427 77.6175C97.7369 77.3917 97.875 77.1869 98.0489 77.0148C98.2228 76.8428 98.4291 76.7069 98.6559 76.6151C98.8827 76.5233 99.1254 76.4774 99.37 76.4801C102.72 76.5101 101.49 88.0501 101.42 90.7701C101.417 90.8698 101.435 90.969 101.471 91.0618C101.508 91.1545 101.563 91.239 101.633 91.3099C101.703 91.3809 101.787 91.437 101.879 91.4748C101.971 91.5127 102.07 91.5315 102.17 91.5301L114.65 91.4901Z" fill="#D6224C"/>
</g>
<defs>
<clipPath id="clip0_1003_29068">
<rect width="132" height="132" fill="white"/>
</clipPath>
</defs>
</svg>
