<svg width="121" height="121" viewBox="0 0 121 121" fill="none" xmlns="http://www.w3.org/2000/svg">
<g id="Pasted-20230719-203412 1" clip-path="url(#clip0_1003_29072)">
<path id="Vector" d="M17.4862 0H100.884C105.867 1.10917 106.934 4.27701 106.925 9.20944C106.92 26.2167 106.92 43.1959 106.925 60.1471C106.925 60.2075 106.944 60.2659 106.98 60.3137C107.016 60.3615 107.068 60.396 107.126 60.4121C107.185 60.4282 107.248 60.425 107.306 60.403C107.363 60.3809 107.413 60.3413 107.446 60.2899C111.278 53.9963 119.151 54.8785 121 62.231V63.9115C120.625 65.4128 119.975 66.7769 119.051 68.0037C110.665 79.2018 102.262 90.3859 93.8422 101.556C88.8762 108.144 84.2715 106.379 79.776 100.422C76.7958 96.4723 73.8352 92.5034 70.8942 88.5149C64.3653 79.6415 75.8519 71.6589 81.9187 79.86C83.5992 82.1288 85.2322 84.3611 86.8175 86.557C86.8613 86.6183 86.919 86.6684 86.9857 86.7032C87.0525 86.738 87.1266 86.7565 87.2019 86.7574C87.2772 86.7582 87.3517 86.7412 87.4192 86.7079C87.4867 86.6745 87.5454 86.6257 87.5906 86.5654L102.884 66.1719C103.046 65.9534 103.13 65.7097 103.136 65.4408C103.164 46.0864 103.161 26.7376 103.127 7.39444C103.127 5.62146 101.968 3.78125 100.203 3.78125C72.8437 3.77565 45.4814 3.77845 18.1164 3.78965C16.1922 3.78965 15.3099 5.98278 15.3267 7.80618C15.3547 13.6433 15.3519 19.4804 15.3183 25.3176C15.3158 25.5666 15.2548 25.8115 15.1402 26.0325C15.0257 26.2536 14.8607 26.4446 14.6587 26.5902C14.4567 26.7358 14.2233 26.8318 13.9773 26.8706C13.7314 26.9093 13.4798 26.8897 13.2428 26.8133C12.184 26.4688 11.5706 25.7797 11.5706 24.5697C11.5538 20.3179 11.5482 16.0717 11.5538 11.8311C11.5545 11.7599 11.5398 11.6895 11.5108 11.6245C11.4818 11.5595 11.4391 11.5015 11.3857 11.4545C11.3323 11.4074 11.2694 11.3724 11.2013 11.3519C11.1331 11.3313 11.0613 11.3257 10.9908 11.3353C8.20951 11.7051 3.78965 10.6547 3.78965 15.125C3.77845 45.7055 3.77845 76.2888 3.78965 106.875C3.78965 110.009 9.17583 109.429 11.0917 109.631C11.1503 109.637 11.2096 109.631 11.2656 109.613C11.3216 109.595 11.3731 109.565 11.4167 109.526C11.4603 109.488 11.495 109.44 11.5186 109.387C11.5423 109.334 11.5543 109.277 11.5538 109.219C11.5538 83.8093 11.5538 58.4105 11.5538 33.0229C11.5538 31.4852 12.016 30.5777 13.6377 30.5189C13.8562 30.5098 14.0743 30.5453 14.2789 30.6231C14.4835 30.701 14.6703 30.8196 14.828 30.9719C14.9858 31.1242 15.1113 31.307 15.197 31.5093C15.2827 31.7116 15.3268 31.9292 15.3267 32.149C15.3379 59.2956 15.3407 86.3637 15.3351 113.353C15.3351 115.412 16.3518 117.219 18.4861 117.219C45.7951 117.219 73.1042 117.219 100.413 117.219C102.253 117.219 103.153 114.958 103.153 113.194C103.141 106.617 103.141 100.018 103.153 93.3969C103.152 93.0176 103.287 92.6506 103.534 92.3624C103.781 92.0742 104.122 91.8838 104.497 91.8256C106.43 91.5231 106.925 92.7751 106.925 94.464C106.931 100.436 106.928 106.413 106.917 112.396C106.917 116.95 105.573 119.748 101.203 121H17.3853C13.6545 120.008 11.7023 117.695 11.5286 114.059C11.5235 113.933 11.4913 113.809 11.4342 113.696C11.377 113.584 11.2963 113.484 11.1975 113.406C11.0987 113.327 10.9841 113.27 10.8615 113.239C10.7388 113.208 10.611 113.204 10.4867 113.227C5.03046 114.236 1.53491 112.258 0 107.295V13.6041C1.47049 7.8566 5.77271 7.45326 10.9404 7.5625C11.2597 7.5737 11.4306 7.41965 11.453 7.10035C11.7555 3.29109 13.7666 0.924306 17.4862 0ZM87.809 92.0524C87.479 92.2047 87.1066 92.2386 86.7545 92.1483C86.4025 92.058 86.0923 91.849 85.8764 91.5567C83.518 88.3804 81.1512 85.2378 78.776 82.1287C75.5578 77.9274 70.6422 81.8178 73.5327 85.7083C77.2299 90.6828 80.9496 95.6404 84.6916 100.581C86.557 103.035 88.893 101.816 90.4475 99.7494C99.0687 88.2992 107.665 76.8266 116.236 65.3316C119.168 61.3991 113.908 57.9119 111.597 60.9706C104.018 71.0315 96.4527 81.1008 88.9014 91.1785C88.7165 91.4306 88.0611 91.9348 87.809 92.0524Z" fill="#D6224C"/>
<path id="Vector_2" d="M87.2125 22.906H31.25C30.2522 22.906 29.4434 23.7148 29.4434 24.7126V24.8975C29.4434 25.8952 30.2522 26.7041 31.25 26.7041H87.2125C88.2102 26.7041 89.0191 25.8952 89.0191 24.8975V24.7126C89.0191 23.7148 88.2102 22.906 87.2125 22.906Z" fill="#D6224C"/>
<path id="Vector_3" d="M73.1544 33.1489H45.2068C44.1951 33.1489 43.375 33.9691 43.375 34.9807V35.132C43.375 36.1437 44.1951 36.9638 45.2068 36.9638H73.1544C74.1661 36.9638 74.9862 36.1437 74.9862 35.132V34.9807C74.9862 33.9691 74.1661 33.1489 73.1544 33.1489Z" fill="#D6224C"/>
<path id="Vector_4" d="M71.9613 48.3245H31.1911C30.2072 48.3245 29.4097 49.122 29.4097 50.1059V50.3243C29.4097 51.3082 30.2072 52.1057 31.1911 52.1057H71.9613C72.9452 52.1057 73.7427 51.3082 73.7427 50.3243V50.1059C73.7427 49.122 72.9452 48.3245 71.9613 48.3245Z" fill="#D6224C"/>
<path id="Vector_5" d="M85.9753 52.282C87.7666 52.2914 89.2235 51.3999 89.2293 50.2907C89.2351 49.1816 87.7877 48.2749 85.9964 48.2655C84.2051 48.2561 82.7482 49.1477 82.7424 50.2568C82.7366 51.3659 84.184 52.2726 85.9753 52.282Z" fill="#D6224C"/>
<path id="Vector_6" d="M72.012 58.6094H31.2585C30.2282 58.6094 29.3931 59.4446 29.3931 60.4748V60.5252C29.3931 61.5554 30.2282 62.3906 31.2585 62.3906H72.012C73.0422 62.3906 73.8774 61.5554 73.8774 60.5252V60.4748C73.8774 59.4446 73.0422 58.6094 72.012 58.6094Z" fill="#D6224C"/>
<path id="Vector_7" d="M87.3098 58.6238L84.5705 58.6285C83.6053 58.6302 82.8241 59.4141 82.8258 60.3794L82.8262 60.6146C82.8279 61.5799 83.6118 62.3611 84.577 62.3594L87.3163 62.3546C88.2816 62.3529 89.0628 61.569 89.0611 60.6038L89.0607 60.3685C89.059 59.4032 88.2751 58.6221 87.3098 58.6238Z" fill="#D6224C"/>
<path id="Vector_8" d="M59.1302 86.5486H31.3674C30.2908 86.5486 29.418 87.4214 29.418 88.498V88.5821C29.418 89.6587 30.2908 90.5315 31.3674 90.5315H59.1302C60.2068 90.5315 61.0796 89.6587 61.0796 88.5821V88.498C61.0796 87.4214 60.2068 86.5486 59.1302 86.5486Z" fill="#D6224C"/>
<path id="Vector_9" d="M41.4258 96.842H31.2249C30.2132 96.842 29.3931 97.6622 29.3931 98.6738V98.7915C29.3931 99.8032 30.2132 100.623 31.2249 100.623H41.4258C42.4375 100.623 43.2576 99.8032 43.2576 98.7915V98.6738C43.2576 97.6622 42.4375 96.842 41.4258 96.842Z" fill="#D6224C"/>
</g>
<defs>
<clipPath id="clip0_1003_29072">
<rect width="121" height="121" fill="white"/>
</clipPath>
</defs>
</svg>
