<svg width="134" height="134" viewBox="0 0 134 134" fill="none" xmlns="http://www.w3.org/2000/svg">
<g id="Pasted-20230719-203443 1">
<path id="Vector" d="M54.5029 50.2221C51.3297 50.2035 49.3476 46.1277 49.3383 43.3546C49.3135 32.7029 49.3073 22.0542 49.3197 11.4086C49.329 6.60698 53.014 5.11809 57.4155 5.11809C72.5153 5.11189 87.6151 5.11499 102.715 5.1274C107.386 5.1367 110.243 6.89545 110.252 11.7343C110.271 22.1752 110.277 32.6129 110.271 43.0475C110.271 51.6552 103.469 50.1384 97.3457 50.2686C96.992 50.2748 96.8121 50.4548 96.8059 50.8084C96.7687 52.5578 98.1832 65.2878 93.2419 61.6959C88.068 57.924 82.8693 54.1925 77.6458 50.5013C77.3914 50.3276 77.1092 50.2407 76.799 50.2407C69.3607 50.2655 61.9287 50.2593 54.5029 50.2221ZM55.3404 46.0625H78.018C78.415 46.0625 78.7749 46.1773 79.0975 46.4068L92.1718 55.7961C92.2175 55.8306 92.2719 55.8512 92.3289 55.8556C92.3859 55.8599 92.4432 55.8479 92.4944 55.8209C92.5456 55.7938 92.5887 55.7528 92.6189 55.7024C92.649 55.652 92.6649 55.5942 92.665 55.5356L92.5626 47.8678C92.5589 47.6321 92.6021 47.3979 92.6898 47.1791C92.7775 46.9602 92.9078 46.761 93.0732 46.5929C93.2386 46.4249 93.4358 46.2915 93.6533 46.2004C93.8708 46.1094 94.1042 46.0625 94.34 46.0625L104.548 46.0532C104.955 46.0532 105.346 45.8915 105.634 45.6035C105.922 45.3156 106.084 44.925 106.084 44.5178V10.9341C106.084 10.5022 105.912 10.088 105.607 9.78256C105.301 9.47716 104.887 9.30559 104.455 9.30559H55.3962C54.8952 9.30559 54.4147 9.50461 54.0605 9.85887C53.7062 10.2131 53.5072 10.6936 53.5072 11.1946L53.5165 44.2293C53.5165 44.7155 53.7086 45.1818 54.0507 45.5256C54.3927 45.8694 54.8567 46.0625 55.3404 46.0625Z" fill="#D6224C"/>
<path id="Vector_2" d="M43.9966 61.4446L55.675 53.0417C55.948 52.8432 56.252 52.7471 56.587 52.7533C63.3738 52.8277 70.0956 52.9083 76.7521 52.9952C78.545 53.02 79.3205 53.8885 79.0785 55.6008C79.0247 55.9872 78.8331 56.3413 78.539 56.5977C78.245 56.8542 77.8682 56.9958 77.478 56.9966H57.713C57.4276 56.9966 57.167 57.0803 56.9313 57.2478C52.2599 60.6227 47.5823 63.9727 42.8985 67.2978C37.8642 70.8619 39.3066 59.2392 39.3159 57.4433C39.316 57.3712 39.3014 57.2999 39.273 57.2336C39.2446 57.1674 39.203 57.1076 39.1508 57.058C39.0985 57.0083 39.0367 56.9699 38.9691 56.9449C38.9015 56.92 38.8295 56.909 38.7575 56.9128C33.9652 57.1269 27.0046 58.0481 26.9953 50.9666C26.9829 41.4749 26.9798 31.9864 26.986 22.5009C26.9953 12.8789 37.7432 15.5962 43.8384 15.5776C45.7832 15.5776 46.9185 16.1638 46.4625 18.3227C46.3788 18.7327 46.1552 19.1012 45.8296 19.3657C45.504 19.6303 45.0964 19.7746 44.6759 19.7744H32.0203C31.7957 19.7744 31.5803 19.8636 31.4215 20.0224C31.2627 20.1812 31.1735 20.3966 31.1735 20.6212V51.8227C31.1735 52.0778 31.2742 52.3225 31.4537 52.5038C31.6332 52.685 31.8769 52.788 32.132 52.7905C34.843 52.8215 37.5416 52.8277 40.2278 52.8091C45.1039 52.7719 43.3173 57.8992 43.4475 61.1748C43.4662 61.609 43.6492 61.699 43.9966 61.4446Z" fill="#D6224C"/>
<path id="Vector_3" d="M98.4061 22.1006H61.37C60.2342 22.1006 59.3135 23.0213 59.3135 24.1571V24.2129C59.3135 25.3487 60.2342 26.2695 61.37 26.2695H98.4061C99.5419 26.2695 100.463 25.3487 100.463 24.2129V24.1571C100.463 23.0213 99.5419 22.1006 98.4061 22.1006Z" fill="#D6224C"/>
<path id="Vector_4" d="M83.0984 31.6296H61.3793C60.2486 31.6296 59.332 32.5462 59.332 33.6769V33.7699C59.332 34.9006 60.2486 35.8171 61.3793 35.8171H83.0984C84.2291 35.8171 85.1456 34.9006 85.1456 33.7699V33.6769C85.1456 32.5462 84.2291 31.6296 83.0984 31.6296Z" fill="#D6224C"/>
<path id="Vector_5" d="M89.6179 35.938C91.4269 35.9411 92.8951 34.9438 92.8973 33.7103C92.8995 32.4769 91.4347 31.4745 89.6256 31.4713C87.8166 31.4681 86.3484 32.4655 86.3462 33.6989C86.344 34.9323 87.8088 35.9348 89.6179 35.938Z" fill="#D6224C"/>
<path id="Vector_6" d="M32.2901 69.103C32.2901 70.8591 31.9442 72.5979 31.2722 74.2203C30.6002 75.8427 29.6152 77.3168 28.3735 78.5585C27.1318 79.8002 25.6576 80.7852 24.0353 81.4572C22.4129 82.1292 20.674 82.4751 18.918 82.4751C15.3715 82.4751 11.9702 81.0663 9.46249 78.5585C6.95474 76.0508 5.5459 72.6495 5.5459 69.103C5.5459 65.5565 6.95474 62.1553 9.46249 59.6476C11.9702 57.1398 15.3715 55.731 18.918 55.731C20.674 55.731 22.4129 56.0768 24.0353 56.7488C25.6576 57.4209 27.1318 58.4058 28.3735 59.6476C29.6152 60.8893 30.6002 62.3634 31.2722 63.9858C31.9442 65.6081 32.2901 67.347 32.2901 69.103ZM28.1119 69.1217C28.1119 66.6808 27.1423 64.3399 25.4163 62.614C23.6904 60.8881 21.3495 59.9185 18.9087 59.9185C16.4678 59.9185 14.127 60.8881 12.401 62.614C10.6751 64.3399 9.70548 66.6808 9.70548 69.1217C9.70548 71.5625 10.6751 73.9034 12.401 75.6293C14.127 77.3552 16.4678 78.3248 18.9087 78.3248C21.3495 78.3248 23.6904 77.3552 25.4163 75.6293C27.1423 73.9034 28.1119 71.5625 28.1119 69.1217Z" fill="#D6224C"/>
<path id="Vector_7" d="M128.444 69.103C128.444 72.6495 127.036 76.0508 124.528 78.5585C122.02 81.0663 118.619 82.4751 115.072 82.4751C111.526 82.4751 108.125 81.0663 105.617 78.5585C103.109 76.0508 101.7 72.6495 101.7 69.103C101.7 65.5565 103.109 62.1553 105.617 59.6476C108.125 57.1398 111.526 55.731 115.072 55.731C118.619 55.731 122.02 57.1398 124.528 59.6476C127.036 62.1553 128.444 65.5565 128.444 69.103ZM124.285 69.1123C124.285 66.669 123.314 64.3258 121.586 62.5981C119.859 60.8704 117.516 59.8998 115.072 59.8998C112.629 59.8998 110.286 60.8704 108.558 62.5981C106.83 64.3258 105.86 66.669 105.86 69.1123C105.86 71.5557 106.83 73.8989 108.558 75.6266C110.286 77.3542 112.629 78.3248 115.072 78.3248C117.516 78.3248 119.859 77.3542 121.586 75.6266C123.314 73.8989 124.285 71.5557 124.285 69.1123Z" fill="#D6224C"/>
<path id="Vector_8" d="M33.6208 94.7491C37.6128 95.9495 45.2806 96.7963 48.3607 99.225C53.0973 102.957 53.302 110.997 45.2062 110.606C41.6887 110.432 38.1619 110.277 34.6257 110.14C31.1362 110.001 28.726 108.261 25.8506 106.586C25.8012 106.556 25.7448 106.54 25.6872 106.539C25.6296 106.539 25.5728 106.553 25.5227 106.582C25.4725 106.61 25.4308 106.651 25.4018 106.701C25.3728 106.751 25.3574 106.807 25.3574 106.865V127.077C25.3573 127.336 25.3015 127.592 25.1938 127.828C25.0862 128.064 24.9292 128.275 24.7334 128.445C24.5376 128.615 24.3076 128.741 24.0589 128.815C23.8102 128.889 23.5485 128.908 23.2916 128.873C22.665 128.786 22.1253 128.488 21.6724 127.979C21.4925 127.781 21.4026 127.545 21.4026 127.272V102.342C21.4036 102.063 21.4757 101.789 21.6119 101.545C21.7481 101.302 21.9439 101.097 22.1808 100.951C22.4176 100.804 22.6876 100.721 22.965 100.709C23.2425 100.697 23.5183 100.756 23.7662 100.881C27.0045 102.501 31.4805 105.776 35.1189 105.953C39.0273 106.151 42.9387 106.307 46.8532 106.418C47.1324 106.424 47.2782 106.291 47.2906 106.018C47.4085 103.766 46.5865 102.414 44.8246 101.961C40.5131 100.857 36.186 99.7834 31.8434 98.7411C31.5394 98.6667 31.2882 98.5116 31.0896 98.2759C28.512 95.326 25.4505 91.3618 22.2866 89.7334C16.8521 86.9324 9.45422 89.3425 6.68117 94.7863C5.81265 96.4985 5.37218 99.1847 5.35978 102.845C5.34737 110.91 5.34117 119.018 5.34117 127.17C5.34151 127.405 5.29385 127.638 5.20111 127.854C5.10836 128.071 4.97248 128.266 4.80177 128.428C4.63106 128.59 4.4291 128.715 4.20825 128.796C3.98739 128.878 3.75228 128.913 3.51728 128.9C2.01908 128.817 1.18158 128.082 1.18158 126.5C1.16297 118.695 1.15677 110.891 1.16297 103.087C1.18158 93.1206 5.65756 84.9224 16.6195 84.392C23.6545 84.0477 28.6144 88.4399 32.8391 94.2C33.0376 94.4668 33.2982 94.6498 33.6208 94.7491Z" fill="#D6224C"/>
<path id="Vector_9" d="M107.935 106.753L102.556 109.675C102.265 109.83 101.955 109.92 101.626 109.945C97.4818 110.224 93.347 110.441 89.2216 110.597C81.163 110.904 80.2976 103.338 85.4249 99.3741C88.4958 97.0012 95.6703 95.9962 99.8113 95.0656C100.115 94.9974 100.373 94.8454 100.584 94.6096C102.91 92.0413 105.283 88.9333 107.861 87.1559C115.91 81.6098 127.784 84.8947 131.525 93.8931C132.393 95.9962 132.831 99.2252 132.837 103.58C132.837 111.236 132.837 118.894 132.837 126.556C132.837 128.138 131.962 128.826 130.501 128.929C130.265 128.945 130.028 128.913 129.805 128.835C129.582 128.756 129.377 128.633 129.204 128.472C129.032 128.311 128.894 128.117 128.8 127.901C128.706 127.685 128.658 127.452 128.659 127.216C128.652 118.996 128.649 110.873 128.649 102.845C128.649 95.6519 126.239 89.8824 118.711 88.7472C110.764 87.5467 107.488 93.4651 102.752 98.3319C102.541 98.549 102.287 98.6948 101.989 98.7692C98.0619 99.7556 88.3655 100.779 86.6626 104.706C86.1663 105.854 86.5416 106.412 87.7885 106.381C91.3867 106.282 95.174 106.136 99.1506 105.944C102.575 105.776 107.181 102.37 110.327 100.872C110.573 100.755 110.845 100.702 111.118 100.718C111.391 100.735 111.655 100.821 111.886 100.967C112.117 101.114 112.308 101.317 112.441 101.557C112.573 101.798 112.643 102.068 112.644 102.343L112.579 127.495C112.579 127.701 112.535 127.905 112.451 128.092C112.366 128.28 112.242 128.447 112.087 128.584C111.932 128.72 111.75 128.822 111.552 128.883C111.355 128.944 111.146 128.963 110.941 128.938C109.489 128.77 108.642 128.091 108.652 126.518C108.67 120.067 108.661 113.612 108.624 107.154C108.617 106.639 108.388 106.505 107.935 106.753Z" fill="#D6224C"/>
<path id="Vector_10" d="M76.2402 111.937H34.7561C33.5637 111.937 32.5972 112.903 32.5972 114.095V114.151C32.5972 115.344 33.5637 116.31 34.7561 116.31H76.2402C77.4325 116.31 78.3991 115.344 78.3991 114.151V114.095C78.3991 112.903 77.4325 111.937 76.2402 111.937Z" fill="#D6224C"/>
<path id="Vector_11" d="M83.4545 116.403C85.1862 116.373 86.5722 115.332 86.5504 114.078C86.5285 112.824 85.1069 111.832 83.3752 111.863C81.6436 111.893 80.2575 112.934 80.2794 114.187C80.3013 115.441 81.7228 116.433 83.4545 116.403Z" fill="#D6224C"/>
<path id="Vector_12" d="M99.2812 111.946H91.2598C90.1034 111.946 89.166 112.883 89.166 114.04V114.188C89.166 115.345 90.1034 116.282 91.2598 116.282H99.2812C100.438 116.282 101.375 115.345 101.375 114.188V114.04C101.375 112.883 100.438 111.946 99.2812 111.946Z" fill="#D6224C"/>
</g>
</svg>
