<svg width="119" height="114" viewBox="0 0 119 114" fill="none" xmlns="http://www.w3.org/2000/svg">
<g id="Pasted-20230719-203510 1" clip-path="url(#clip0_1003_29219)">
<path id="Vector" d="M20.8646 0H21.5257C21.8386 0.194419 22.0678 0.466163 22.2132 0.815233C22.3014 1.02733 22.2771 1.22616 22.1405 1.41174C19.2845 5.3686 27.6806 8.31139 21.4794 13.6999C21.2458 13.9031 21.0232 13.8921 20.8117 13.6667L20.2167 13.0371C19.9919 12.7985 19.9875 12.5555 20.2035 12.308C24.7916 6.99907 15.6616 4.83837 20.8646 0Z" fill="#D6224C"/>
<path id="Vector_2" d="M16.3955 3.81761C13.923 7.35028 20.5142 9.67668 17.1624 14.4223C16.4286 15.4562 16.1906 16.1256 14.9477 15.8804C13.9296 15.6727 13.7929 15.2044 14.5378 14.4753C19.1325 9.9683 10.5116 7.43644 14.8816 2.53842C15.0358 2.37051 15.2253 2.2954 15.4501 2.31307C16.0099 2.35284 16.3625 2.6511 16.5079 3.20784C16.5608 3.42877 16.5233 3.63203 16.3955 3.81761Z" fill="#D6224C"/>
<path id="Vector_3" d="M27.3369 2.39267C27.4763 2.42273 27.6057 2.48784 27.7131 2.58195C27.8205 2.67606 27.9024 2.79612 27.9512 2.93099C28 3.06587 28.0142 3.21118 27.9923 3.35344C27.9704 3.49571 27.9133 3.63031 27.8261 3.74477C25.1751 7.22442 31.568 9.26581 28.5798 14.3229C27.9914 15.3237 27.6873 15.9931 26.537 15.9269C25.488 15.865 25.2897 15.4231 25.942 14.6013C29.3665 10.2865 25.4395 9.71651 25.0429 6.32302C24.8842 4.98418 25.4197 1.97511 27.3369 2.39267Z" fill="#D6224C"/>
<path id="Vector_4" d="M14.6964 20.0825C15.2733 20.0825 15.741 19.6136 15.741 19.0352C15.741 18.4569 15.2733 17.988 14.6964 17.988C14.1195 17.988 13.6519 18.4569 13.6519 19.0352C13.6519 19.6136 14.1195 20.0825 14.6964 20.0825Z" fill="#D6224C"/>
<path id="Vector_5" d="M9.65707e-05 47.0185L-0.032959 45.4013C2.4396 44.5927 4.94962 44.4579 7.4971 44.997C7.55944 45.012 7.62464 45.0053 7.68222 44.978C7.73981 44.9506 7.78645 44.9041 7.81466 44.846C7.84287 44.7879 7.85101 44.7216 7.83778 44.6576C7.82456 44.5936 7.79072 44.5357 7.74171 44.4932C3.38278 40.6888 0.802245 35.8968 9.65707e-05 30.1173V18.6842L0.31743 18.3263C0.471689 18.1539 0.665615 18.0678 0.899208 18.0678C2.35365 18.0612 9.28871 17.637 9.90354 18.6842C10.4412 19.5944 10.1834 20.0495 9.13004 20.0495H2.34704C2.1443 20.0495 2.03852 20.1511 2.02971 20.3544C1.71899 30.4355 2.16854 38.5414 11.2787 44.5529C11.4638 44.6766 11.6665 44.7385 11.8869 44.7385H31.112C31.3632 44.7385 31.5946 44.67 31.8062 44.533C40.9295 38.6474 41.3328 30.3427 40.9097 20.4472C40.9008 20.1821 40.7642 20.0495 40.4998 20.0495H19.6814C19.5727 20.0495 19.4654 20.0244 19.368 19.9761C19.2705 19.9279 19.1855 19.8577 19.1194 19.7711C18.7272 19.2498 18.7558 18.7527 19.2054 18.2799C19.342 18.1341 19.5095 18.0612 19.7078 18.0612H42.3244C42.505 18.0612 42.6782 18.1324 42.8059 18.2592C42.9336 18.3859 43.0054 18.5579 43.0054 18.7372L43.0252 20.8051C43.0252 21.0746 43.1618 21.2094 43.4351 21.2094H51.4213C51.5746 21.2094 51.7264 21.2401 51.8677 21.2997C52.009 21.3593 52.1371 21.4466 52.2442 21.5565C52.3514 21.6664 52.4356 21.7967 52.4918 21.9397C52.548 22.0827 52.5752 22.2355 52.5717 22.3892C52.4989 25.2392 52.8559 28.7188 52.3072 31.1977C51.0202 37.0302 47.0778 39.7985 40.4799 39.5024C39.7461 39.4759 36.0042 43.8304 35.2241 44.4932C35.192 44.52 35.1691 44.5563 35.1588 44.5969C35.1485 44.6375 35.1512 44.6803 35.1666 44.7193C35.182 44.7582 35.2093 44.7913 35.2445 44.8138C35.2798 44.8363 35.3212 44.847 35.3629 44.8445C37.9192 44.7208 40.4667 44.6921 43.0054 44.7584C44.8036 44.8048 46.0663 44.818 45.4317 47.1444C44.4356 50.8163 42.0049 52.6588 38.1396 52.6721C27.9629 52.6986 17.7862 52.692 7.60949 52.6522C3.65604 52.6345 1.11958 50.7566 9.65707e-05 47.0185ZM49.9404 23.2442L43.4219 23.1845C43.1266 23.1801 42.9789 23.3259 42.9789 23.622V24.921C42.9789 25.2038 43.1222 25.3474 43.4087 25.3518L47.7059 25.3585C47.7794 25.3585 47.8521 25.3731 47.9199 25.4015C47.9877 25.4299 48.0493 25.4715 48.1009 25.5239C48.1526 25.5763 48.1933 25.6384 48.2208 25.7068C48.2484 25.7751 48.2621 25.8482 48.2612 25.9218C48.2546 28.0295 48.6116 30.5282 47.6662 32.3178C46.5952 34.3415 44.7771 35.3489 42.212 35.3401C42.0005 35.3357 41.844 35.4263 41.7427 35.6118L40.9956 36.9242C40.8105 37.26 40.9074 37.4345 41.2865 37.4478C45.5969 37.6024 48.4485 35.9211 49.8413 32.4039C50.7867 29.998 50.3834 26.4918 50.4164 23.7346C50.4182 23.6714 50.4072 23.6085 50.3841 23.5495C50.3611 23.4905 50.3264 23.4367 50.2821 23.391C50.2378 23.3454 50.1848 23.3089 50.1262 23.2837C50.0675 23.2585 50.0044 23.2451 49.9404 23.2442ZM43.1112 27.6915L42.5955 33.0336C42.569 33.3075 42.6903 33.4092 42.9591 33.3385C45.749 32.5917 46.82 30.7337 46.1721 27.7644C46.1104 27.4816 45.9341 27.3402 45.6432 27.3402H43.4946C43.261 27.3402 43.1332 27.4573 43.1112 27.6915ZM43.0318 46.8793L2.63132 46.8992C2.40213 46.8992 2.31839 47.0096 2.3801 47.2306C3.00154 49.4266 4.36123 50.5246 6.45915 50.5246C16.8915 50.5423 27.3282 50.5423 37.7694 50.5246C40.5328 50.5246 42.2782 49.7956 43.2963 47.2703C43.3136 47.227 43.32 47.1802 43.315 47.1338C43.3101 47.0874 43.2938 47.043 43.2677 47.0044C43.2416 46.9658 43.2064 46.9342 43.1653 46.9123C43.1242 46.8905 43.0783 46.8792 43.0318 46.8793Z" fill="#D6224C"/>
<path id="Vector_6" d="M119 53.3943V60.8507C118.128 62.7375 116.625 63.725 114.491 63.8134C114.237 63.8236 113.99 63.9063 113.781 64.0518C113.571 64.1974 113.407 64.3997 113.308 64.6353L111.391 69.235C111.294 69.4736 111.294 69.7145 111.391 69.9575C112.257 72.1248 114.478 74.0403 112.33 76.3269C109.963 78.8521 107.312 82.0534 105.064 81.8612C103.729 81.7552 102.704 80.8007 101.554 80.0452C101.32 79.8905 101.073 79.8684 100.813 79.9789L95.7159 82.1329C95.5658 82.1952 95.4377 82.301 95.3482 82.4369C95.2586 82.5727 95.2117 82.7323 95.2135 82.8952C95.273 86.2025 93.4152 87.6341 90.189 87.6474C87.2537 87.6606 83.5052 88.5421 81.978 85.2215C81.5615 84.3268 81.8524 82.809 80.8938 82.0998C80.171 81.5652 78.4741 80.8692 75.8032 80.012C75.5961 79.9457 75.3978 79.97 75.2082 80.0849C73.7935 80.9532 72.2795 82.3649 70.4549 81.7485C68.5839 81.1189 65.5428 77.6856 64.604 76.5589C61.3844 72.7147 66.4155 71.5018 65.0932 68.5855C64.5027 67.2864 63.9517 65.9653 63.4405 64.622C63.3492 64.3815 63.1876 64.174 62.9766 64.0263C62.7656 63.8786 62.515 63.7975 62.2571 63.7935C58.5747 63.7339 57.6557 61.3876 57.6822 57.9875C57.702 54.1565 57.3516 50.1599 62.581 50.1665C62.8763 50.1665 63.0813 50.034 63.1959 49.7689L65.4833 44.5196C65.5759 44.3075 65.5582 44.1064 65.4304 43.9164C62.3695 39.3432 63.5727 38.2695 67.1427 34.8296C68.8748 33.1593 69.8334 31.9729 71.9688 32.2182C73.2117 32.3574 74.1967 33.4377 75.4661 33.9481C75.6776 34.0364 75.887 34.0364 76.0941 33.9481L80.669 32.0591C80.9716 31.9331 81.2284 31.7175 81.4045 31.4413C81.5807 31.1651 81.6678 30.8417 81.6541 30.5148C81.5285 27.6714 83.6903 26.3657 86.4009 26.3458C90.0171 26.326 95.2201 25.4113 95.187 30.9589C95.1873 31.1688 95.2498 31.3737 95.3664 31.5472C95.483 31.7208 95.6484 31.8552 95.8415 31.9332C97.8976 32.7617 100.721 34.8296 102.704 33.1593C106.208 30.2165 108.958 34.306 111.166 36.46C113.46 38.6936 113.969 41.1526 111.457 43.5055C111.272 43.6778 111.215 43.8833 111.285 44.1219C111.629 45.3215 112.925 49.9213 114.558 50.0472C116.757 50.224 118.238 51.3397 119 53.3943ZM79.9154 34.3391C77.0594 35.5189 75.3537 36.9041 72.5902 34.2861C72.2783 33.9925 71.865 33.8317 71.438 33.8379C71.011 33.8441 70.6038 34.0167 70.3028 34.3192L65.5891 39.0515C65.4348 39.2062 65.3665 39.3918 65.3841 39.6083C65.4502 40.5495 65.772 41.3868 66.3494 42.1203C68.2335 44.5395 66.5543 46.561 65.6354 48.841C64.8354 50.8227 63.533 52.2875 61.391 52.1218C61.1496 52.1025 60.9068 52.1339 60.678 52.2138C60.4492 52.2938 60.2393 52.4206 60.0616 52.5862C59.884 52.7519 59.7423 52.9528 59.6457 53.1764C59.5491 53.3999 59.4996 53.6411 59.5002 53.8848L59.5135 60.2078C59.5147 60.4394 59.5632 60.6682 59.6559 60.8801C59.7487 61.0919 59.8837 61.2821 60.0524 61.4389C60.2212 61.5957 60.4201 61.7156 60.6368 61.7911C60.8535 61.8667 61.0832 61.8963 61.3117 61.8781C63.8636 61.6858 65.0073 63.482 65.8601 65.6891C66.389 67.0611 67.46 68.7512 67.2286 70.1828C66.9444 71.9326 65.3114 72.5954 65.4172 74.3982C65.4304 74.6279 65.5142 74.8268 65.6684 74.9947C67.0171 76.4572 68.4208 77.8734 69.8797 79.2432C72.4779 81.6756 73.8199 77.0361 77.1189 78.4346C78.6306 79.0753 80.1269 79.7491 81.6078 80.4561C84.5497 81.8546 82.0706 85.765 86.0439 85.8247C87.9434 85.8512 89.8541 85.8468 91.7757 85.8114C91.9739 85.8081 92.1694 85.7649 92.3506 85.6845C92.5317 85.604 92.6947 85.4879 92.8299 85.3431C92.9651 85.1983 93.0696 85.0278 93.1372 84.8418C93.2049 84.6558 93.2342 84.4581 93.2235 84.2605C93.0252 80.5422 96.5291 79.78 99.1537 78.6864C101.335 77.7718 102.836 78.3683 104.423 79.8397C104.595 79.9988 104.797 80.0761 105.031 80.0717C106.909 79.9988 109.632 76.5854 110.928 75.2465C111.629 74.5241 111.212 73.1786 110.551 72.3303C108.575 69.7719 110.102 67.4588 111.173 64.9932C112.125 62.8192 113.368 61.772 115.715 61.8383C115.903 61.8436 116.091 61.8111 116.268 61.7427C116.444 61.6743 116.605 61.5713 116.741 61.4399C116.877 61.3084 116.985 61.1511 117.06 60.9771C117.135 60.8031 117.174 60.616 117.176 60.4265C117.189 57.9411 118.359 52.5659 114.895 52.135C111.272 51.6777 107.788 43.9297 110.842 41.4442C111.037 41.2852 111.197 41.0869 111.311 40.8622C111.424 40.6374 111.49 40.3913 111.503 40.1396C111.516 39.8879 111.476 39.6363 111.387 39.4009C111.297 39.1655 111.158 38.9517 110.981 38.7732C109.787 37.5713 108.594 36.3761 107.404 35.1875C104.502 32.2977 103.9 35.6647 101.197 35.7774C98.962 35.8768 93.4483 33.2985 93.2566 30.7799C92.9459 26.8231 87.6636 28.1354 84.8869 28.1884C84.6958 28.1924 84.5076 28.2354 84.3335 28.3147C84.1594 28.394 84.0031 28.508 83.8739 28.6498C83.7448 28.7916 83.6456 28.9584 83.5822 29.1399C83.5188 29.3215 83.4926 29.5141 83.5052 29.7062C83.6771 32.3043 82.2359 33.3847 79.9154 34.3391Z" fill="#D6224C"/>
<path id="Vector_7" d="M32.3548 37.7392C34.7921 35.0571 36.0262 31.6968 36.057 27.6581C36.057 27.3886 36.1893 27.2229 36.4537 27.1611L37.128 26.9954C37.2598 26.9636 37.3972 26.9628 37.5293 26.9931C37.6615 27.0234 37.7849 27.0838 37.8899 27.1698C37.9948 27.2558 38.0786 27.365 38.1345 27.4888C38.1904 27.6126 38.217 27.7477 38.2123 27.8835C38.0492 32.4479 36.4206 36.3672 33.3266 39.6414C33.1724 39.8049 32.9829 39.9021 32.7581 39.933C30.9136 40.1915 31.6871 38.4683 32.3548 37.7392Z" fill="#D6224C"/>
<path id="Vector_8" d="M76.7815 42.3193C85.8189 35.181 98.6973 37.6267 104.522 47.6349C108.405 54.2981 108.032 61.2199 103.404 68.4001C103.29 68.5758 103.12 68.7068 102.922 68.7708C102.724 68.8349 102.512 68.828 102.32 68.7514C101.388 68.3736 101.547 67.7042 102.029 67.0082C113.295 50.8693 93.6728 31.9069 77.8194 43.7178C77.5902 43.8857 77.3897 43.857 77.2178 43.6316L76.7021 42.9622C76.5126 42.7192 76.5391 42.5049 76.7815 42.3193Z" fill="#D6224C"/>
<path id="Vector_9" d="M29.076 42.5097C29.6587 42.6117 30.2079 42.2529 30.3027 41.7084C30.3975 41.1639 30.002 40.6398 29.4193 40.5379C28.8366 40.4359 28.2874 40.7947 28.1926 41.3392C28.0978 41.8837 28.4934 42.4077 29.076 42.5097Z" fill="#D6224C"/>
<path id="Vector_10" d="M101.328 57C101.328 60.4453 99.9632 63.7496 97.5332 66.1858C95.1031 68.622 91.8072 69.9907 88.3706 69.9907C84.934 69.9907 81.6381 68.622 79.2081 66.1858C76.778 63.7496 75.4128 60.4453 75.4128 57C75.4128 53.5546 76.778 50.2504 79.2081 47.8142C81.6381 45.3779 84.934 44.0093 88.3706 44.0093C91.8072 44.0093 95.1031 45.3779 97.5332 47.8142C99.9632 50.2504 101.328 53.5546 101.328 57ZM99.5037 57C99.5037 54.0415 98.3315 51.2043 96.2449 49.1124C94.1582 47.0204 91.3282 45.8452 88.3772 45.8452C86.9161 45.8452 85.4692 46.1337 84.1193 46.6943C82.7694 47.2549 81.5428 48.0765 80.5096 49.1124C79.4764 50.1482 78.6568 51.3779 78.0977 52.7312C77.5385 54.0846 77.2507 55.5351 77.2507 57C77.2507 58.4648 77.5385 59.9154 78.0977 61.2687C78.6568 62.6221 79.4764 63.8518 80.5096 64.8876C81.5428 65.9234 82.7694 66.7451 84.1193 67.3056C85.4692 67.8662 86.9161 68.1547 88.3772 68.1547C91.3282 68.1547 94.1582 66.9795 96.2449 64.8876C98.3315 62.7957 99.5037 59.9584 99.5037 57Z" fill="#D6224C"/>
<path id="Vector_11" d="M100.33 70.2358C100.727 70.9782 100.434 71.6498 99.4509 72.2507C80.8076 83.6507 61.404 64.0255 73.4494 45.6132C73.78 45.1094 74.2383 44.862 74.8245 44.8708C75.8426 44.8885 76.0366 45.2972 75.4063 46.097C62.6601 62.2492 82.4471 82.3318 99.3518 70.0105C99.4293 69.9544 99.518 69.9154 99.6116 69.8964C99.7052 69.8773 99.8017 69.8784 99.8945 69.8998C99.9873 69.9212 100.074 69.9622 100.149 70.0202C100.225 70.0782 100.286 70.1517 100.33 70.2358Z" fill="#D6224C"/>
<path id="Vector_12" d="M43.5937 114H37.4784C35.6449 113.355 34.7105 112.009 34.6753 109.964C34.6716 109.798 34.6202 109.637 34.5275 109.5C34.4347 109.364 34.3046 109.258 34.153 109.195L29.9814 107.445C29.7169 107.335 29.4635 107.354 29.2211 107.505C28.895 107.708 28.4652 108 27.9319 108.38C24.9768 110.481 22.2596 106.577 20.5077 104.714C18.8946 103 18.91 101.25 20.5539 99.465C20.7212 99.2835 20.8322 99.0571 20.8732 98.8135C20.9143 98.5699 20.8838 98.3195 20.7853 98.093L19.1326 94.3018C19.022 94.0486 18.841 93.8326 18.6112 93.6798C18.3814 93.527 18.1125 93.4438 17.8368 93.4402C13.566 93.3673 14.1676 88.9133 14.2337 86.0037C14.291 83.3437 15.5846 81.954 18.1144 81.8347C18.3306 81.8249 18.5393 81.755 18.717 81.6332C18.8946 81.5113 19.034 81.3423 19.1193 81.1454L20.8514 77.1554C20.944 76.9417 20.9669 76.7039 20.9171 76.4756C20.8673 76.2473 20.7472 76.04 20.5738 75.8829C18.6433 74.1265 19.0334 72.1514 20.7324 70.3221C22.8612 68.0354 25.5387 64.4033 28.8575 67.7637C29.0426 67.9493 29.263 68.0133 29.5186 67.9559C31.2551 67.5538 32.8748 66.8667 34.3778 65.8946C34.5849 65.7576 34.6929 65.5654 34.7017 65.318C34.8075 60.42 39.7063 61.275 42.9722 61.3214C46.8596 61.3678 45.5572 65.5964 47.1306 66.2724C48.4705 66.8513 49.8169 67.4146 51.17 67.9625C51.3904 68.0509 51.6019 68.0332 51.8047 67.9095C53.5831 66.8225 55.2292 65.4307 57.2126 67.2335C58.8984 68.7645 62.4287 71.4554 61.5957 74.2259C61.3643 74.9947 60.7032 75.5316 60.2933 76.3402C60.192 76.539 60.1787 76.7445 60.2537 76.9566C60.9985 79.1482 61.5781 80.5511 61.9924 81.1653C62.5808 82.0336 63.8237 81.8082 64.5575 82.1264C67.5391 83.4387 66.7788 86.5803 66.7788 89.1984C66.7854 92.0086 65.5359 93.5661 62.7064 93.533C62.4199 93.533 62.2194 93.6634 62.1048 93.9241L60.2272 98.2786C60.131 98.5017 60.1079 98.7496 60.1614 98.9867C60.2149 99.2238 60.3421 99.4377 60.5247 99.5975C62.3957 101.241 62.0849 103.15 60.4983 104.913C59.1959 106.365 57.0936 108.877 55.0507 108.976C53.788 109.036 52.8823 108.108 51.7914 107.485C51.5887 107.37 51.3771 107.352 51.1568 107.432C49.9712 107.874 48.8098 108.353 47.6727 108.87C45.3522 109.924 47.005 112.747 43.5937 114ZM20.8911 101.778C20.7523 103.422 23.6546 105.907 24.8247 106.848C26.1007 107.869 26.7882 107.299 27.8063 106.424C29.8822 104.641 36.0107 107.644 36.3677 110.388C36.771 113.503 40.8963 112.515 43.0912 112.502C43.3082 112.501 43.5228 112.457 43.7221 112.371C43.9215 112.286 44.1016 112.161 44.2516 112.005C44.4015 111.848 44.5184 111.663 44.595 111.46C44.6717 111.258 44.7066 111.042 44.6977 110.825C44.5589 107.312 51.4344 104.595 53.9665 107.047C54.2471 107.317 54.6199 107.468 55.0084 107.471C55.3969 107.473 55.7716 107.326 56.0556 107.061C57.5563 105.662 61.5362 102.945 59.4471 100.631C57.3382 98.3117 60.5115 91.6971 63.7774 91.8495C63.9721 91.8585 64.1667 91.8277 64.3492 91.7592C64.5318 91.6906 64.6986 91.5856 64.8395 91.4505C64.9804 91.3154 65.0925 91.1531 65.169 90.9733C65.2456 90.7935 65.2849 90.6001 65.2847 90.4046V85.0625C65.2843 84.8467 65.2397 84.6333 65.1537 84.4354C65.0677 84.2375 64.9421 84.0595 64.7847 83.9122C64.6273 83.765 64.4414 83.6517 64.2386 83.5794C64.0358 83.507 63.8203 83.4772 63.6055 83.4917C61.7213 83.6243 60.7495 82.4379 60.0289 80.7213C59.0042 78.2756 57.596 76.2673 60.0884 73.974C60.2008 73.8701 60.2912 73.7445 60.3543 73.605C60.4174 73.4655 60.4518 73.3148 60.4555 73.1619C60.4592 73.0091 60.4321 72.8573 60.3759 72.7155C60.3196 72.5738 60.2353 72.445 60.1281 72.337L55.9234 68.1017C55.8081 67.985 55.6698 67.8937 55.5174 67.8337C55.3649 67.7736 55.2016 67.7462 55.038 67.753C54.8743 67.7599 54.7139 67.8009 54.5669 67.8735C54.42 67.9461 54.2898 68.0487 54.1847 68.1746C52.8955 69.7123 51.2163 69.7388 49.3718 68.9368C47.5339 68.1349 45.8613 67.9095 44.9291 65.9211C44.8366 65.7267 44.7903 65.5213 44.7903 65.3047C44.8035 61.9113 39.8121 62.9651 37.6503 62.9717C37.4726 62.9721 37.2969 63.0093 37.1341 63.081C36.9713 63.1527 36.8249 63.2574 36.704 63.3886C36.5831 63.5198 36.4903 63.6746 36.4313 63.8434C36.3723 64.0123 36.3484 64.1916 36.3611 64.3702C36.6322 68.1017 29.2079 71.0909 26.9998 68.221C26.8978 68.0869 26.7684 67.9763 26.6201 67.8965C26.4718 67.8167 26.308 67.7696 26.1397 67.7583C25.9715 67.747 25.8025 67.7718 25.6441 67.831C25.4858 67.8902 25.3417 67.9825 25.2214 68.1017L21.0696 72.2508C20.9471 72.3729 20.8507 72.5187 20.7864 72.6794C20.722 72.8401 20.6911 73.0123 20.6954 73.1854C20.6997 73.3585 20.7393 73.5289 20.8116 73.6862C20.8839 73.8434 20.9874 73.9842 21.1159 74.1C23.3372 76.1149 22.1009 77.9442 21.2283 80.2109C20.4019 82.365 19.6152 83.5447 17.2153 83.5315C16.868 83.5297 16.534 83.6649 16.2854 83.908C16.0367 84.1511 15.8934 84.4825 15.8865 84.8306C15.8512 86.5229 15.849 88.2064 15.8799 89.881C15.9196 91.9357 17.3674 91.6242 18.7425 92.0682C20.6333 92.678 21.1357 94.8586 21.7968 96.4493C22.5968 98.3581 22.6166 99.7632 21.1622 101.201C20.9991 101.361 20.9087 101.553 20.8911 101.778Z" fill="#D6224C"/>
<path id="Vector_13" d="M31.1052 74.6301C46.6083 64.7015 64.26 82.2058 53.3913 97.3837C53.304 97.5072 53.1843 97.6042 53.0454 97.6638C52.9066 97.7235 52.754 97.7435 52.6046 97.7217C51.8707 97.6157 51.7584 96.8933 52.1749 96.3166C62.118 82.7824 45.3191 66.385 31.6209 76.2076C31.5388 76.2669 31.445 76.3079 31.3459 76.3277C31.2468 76.3476 31.1447 76.3458 31.0467 76.3225C30.9487 76.2992 30.8571 76.2549 30.7782 76.1927C30.6993 76.1306 30.6349 76.052 30.5896 75.9623C30.3295 75.4586 30.5014 75.0145 31.1052 74.6301Z" fill="#D6224C"/>
<path id="Vector_14" d="M51.6592 87.6872C51.6592 89.1503 51.3717 90.5991 50.8132 91.9508C50.2547 93.3026 49.4361 94.5308 48.4042 95.5654C47.3722 96.6 46.1471 97.4207 44.7988 97.9806C43.4504 98.5405 42.0053 98.8287 40.5459 98.8287C37.5985 98.8287 34.7718 97.6548 32.6876 95.5654C30.6035 93.476 29.4326 90.6421 29.4326 87.6872C29.4326 84.7323 30.6035 81.8984 32.6876 79.8089C34.7718 77.7195 37.5985 76.5457 40.5459 76.5457C42.0053 76.5457 43.4504 76.8338 44.7988 77.3938C46.1471 77.9537 47.3722 78.7743 48.4042 79.8089C49.4361 80.8435 50.2547 82.0717 50.8132 83.4235C51.3717 84.7752 51.6592 86.224 51.6592 87.6872ZM50.0857 87.6872C50.0857 85.1506 49.0806 82.718 47.2916 80.9243C45.5025 79.1307 43.076 78.1231 40.5459 78.1231C38.0158 78.1231 35.5893 79.1307 33.8002 80.9243C32.0111 82.718 31.0061 85.1506 31.0061 87.6872C31.0061 90.2237 32.0111 92.6564 33.8002 94.45C35.5893 96.2436 38.0158 97.2512 40.5459 97.2512C43.076 97.2512 45.5025 96.2436 47.2916 94.45C49.0806 92.6564 50.0857 90.2237 50.0857 87.6872Z" fill="#D6224C"/>
<path id="Vector_15" d="M27.7535 77.825C28.0047 77.4361 28.3551 77.2925 28.8047 77.3941C29.5628 77.5709 29.6796 78.0238 29.1551 78.7529C19.0599 92.9366 36.1562 109.579 49.8016 98.8884C49.8973 98.8144 50.0116 98.7684 50.1318 98.7556C50.252 98.7427 50.3734 98.7635 50.4825 98.8155C51.3552 99.2397 51.0511 99.9423 50.4296 100.4C35.3695 111.621 17.3542 93.9705 27.7535 77.825Z" fill="#D6224C"/>
</g>
<defs>
<clipPath id="clip0_1003_29219">
<rect width="119" height="114" fill="white"/>
</clipPath>
</defs>
</svg>
