<svg width="130" height="130" viewBox="0 0 130 130" fill="none" xmlns="http://www.w3.org/2000/svg">
<g id="Pasted-20230719-203536 1" clip-path="url(#clip0_1003_29235)">
<path id="Vector" d="M130 18.1096V102.294C129.627 103.202 129.013 103.931 128.158 104.478C127.906 104.641 127.632 104.722 127.337 104.722C116.621 104.731 106.293 103.91 95.9743 107.62C76.3058 114.686 56.6343 121.752 36.9597 128.817C34.8382 129.576 32.7167 129.558 31.8771 127.237C26.9539 113.569 22.0278 99.9013 17.0986 86.2332C16.7014 85.1319 17.0775 84.1629 18.2271 83.3263C18.4019 83.2004 18.6035 83.1168 18.8161 83.0821C19.0288 83.0475 19.2465 83.0627 19.4522 83.1266C19.658 83.1905 19.846 83.3013 20.0016 83.4504C20.1572 83.5994 20.2759 83.7825 20.3486 83.9853L35.1181 124.971C35.1568 125.079 35.2364 125.167 35.3396 125.216C35.4427 125.265 35.561 125.271 35.6688 125.233L76.059 110.789C76.1191 110.761 76.1674 110.713 76.1953 110.653C76.2233 110.593 76.2292 110.525 76.2118 110.461C76.1945 110.398 76.1552 110.342 76.1008 110.304C76.0464 110.267 75.9804 110.25 75.9146 110.256C64.672 112.296 53.634 114.219 42.8007 116.025C40.2188 116.458 38.5125 115.808 38.0521 113.136C33.3817 86.1249 28.7354 59.0807 24.1132 32.0034C24.1029 31.9381 24.0781 31.8759 24.0405 31.8214C24.003 31.7668 23.9536 31.7211 23.8959 31.6875C23.8382 31.6539 23.7736 31.6333 23.7066 31.627C23.6397 31.6208 23.572 31.629 23.5083 31.6513L4.33333 38.2506C4.23105 38.2874 4.14728 38.3629 4.10002 38.4608C4.05276 38.5587 4.04577 38.6712 4.08056 38.7742C8.57639 51.1964 13.0421 63.6036 17.4778 75.9957C18.1097 77.7832 17.4417 78.9749 15.5188 79.0291C15.2344 79.0372 14.9548 78.9561 14.7198 78.7973C14.4849 78.6385 14.3064 78.41 14.2097 78.1444L0 38.7652V37.411C0.514583 36.2013 1.15556 35.3888 2.48264 34.9194C9.24745 32.53 16.0514 30.1888 22.8944 27.8957C23.2194 27.7814 23.3519 27.5557 23.2917 27.2187C22.7139 24.2576 20.4389 18.1728 25.7201 17.3423C32.4729 16.277 39.2227 15.1696 45.9694 14.0201C46.2884 13.9659 46.4509 13.7733 46.4569 13.4423C46.5292 9.84019 44.7326 0.676997 50.2847 0.676997C70.7958 0.689034 91.3069 0.686024 111.818 0.667969C112.125 0.667969 112.393 0.773293 112.622 0.983941C118.279 6.15385 123.819 11.417 129.242 16.7735C129.494 17.0203 129.747 17.4657 130 18.1096ZM83.1097 104.894C75.3157 104.725 64.013 104.677 49.2014 104.749C48.9065 104.749 48.6326 104.674 48.3799 104.524C47.128 103.771 46.5021 102.784 46.5021 101.562C46.484 89.3629 46.487 77.1603 46.5111 64.9548C46.5111 63.2846 46.9625 61.5513 49.0569 62.1742C49.424 62.2815 49.7465 62.5049 49.976 62.8109C50.2055 63.1169 50.3296 63.489 50.3299 63.8714V100.66C50.3299 100.779 50.3774 100.894 50.4621 100.979C50.5467 101.063 50.6615 101.111 50.7812 101.111H125.883C125.92 101.111 125.956 101.104 125.99 101.09C126.024 101.076 126.055 101.055 126.081 101.029C126.107 101.003 126.128 100.972 126.142 100.938C126.156 100.904 126.163 100.868 126.163 100.831V21.2062C126.163 20.8571 125.992 20.6856 125.649 20.6916C121.61 20.7638 117.572 20.7187 113.533 20.5562C106.113 20.2673 108.388 11.0951 108.297 4.93811C108.297 4.65524 108.156 4.5138 107.873 4.5138H50.7812C50.6615 4.5138 50.5467 4.56136 50.4621 4.64601C50.3774 4.73066 50.3299 4.84548 50.3299 4.96519C50.3299 21.4138 50.3299 37.8624 50.3299 54.311C50.3299 56.0624 49.8153 57.227 47.8292 56.8478C47.4531 56.7763 47.1138 56.5757 46.8698 56.2807C46.6259 55.9856 46.4926 55.6147 46.4931 55.2319V18.2451C46.4931 17.92 46.3336 17.7846 46.0146 17.8388L26.4694 21.1881C26.4218 21.1959 26.3762 21.2129 26.3353 21.2382C26.2944 21.2634 26.259 21.2964 26.2313 21.3351C26.2035 21.3738 26.1839 21.4175 26.1736 21.4636C26.1634 21.5097 26.1627 21.5572 26.1715 21.6034L41.5188 111.005C41.6692 111.884 42.1838 112.251 43.0625 112.107L83.6243 105.264C83.859 105.222 83.8741 105.143 83.6694 105.029C83.519 104.945 83.3324 104.9 83.1097 104.894ZM123.076 16.8819C123.138 16.881 123.199 16.8617 123.25 16.8263C123.302 16.791 123.341 16.7412 123.365 16.6833C123.388 16.6253 123.393 16.5618 123.38 16.5008C123.368 16.4397 123.337 16.3839 123.292 16.3402L112.658 6.07561C112.612 6.03302 112.556 6.00469 112.494 5.99416C112.433 5.98363 112.37 5.99137 112.314 6.01642C112.257 6.04146 112.209 6.0827 112.175 6.13497C112.141 6.18724 112.124 6.24824 112.125 6.31033L112.315 16.7555C112.317 16.8377 112.351 16.9158 112.41 16.9731C112.469 17.0304 112.548 17.0624 112.631 17.0624L123.076 16.8819Z" fill="#D6224C"/>
<path id="Vector_2" d="M115.872 28.2209H61.4703C60.4282 28.2209 59.5835 29.0657 59.5835 30.1078V30.1619C59.5835 31.204 60.4282 32.0487 61.4703 32.0487H115.872C116.914 32.0487 117.758 31.204 117.758 30.1619V30.1078C117.758 29.0657 116.914 28.2209 115.872 28.2209Z" fill="#D6224C"/>
<path id="Vector_3" d="M115.872 41.7625H61.4703C60.4282 41.7625 59.5835 42.6072 59.5835 43.6493V43.7034C59.5835 44.7455 60.4282 45.5902 61.4703 45.5902H115.872C116.914 45.5902 117.758 44.7455 117.758 43.7034V43.6493C117.758 42.6072 116.914 41.7625 115.872 41.7625Z" fill="#D6224C"/>
<path id="Vector_4" d="M115.88 55.3042H61.4791C60.437 55.3042 59.5923 56.149 59.5923 57.191V57.2452C59.5923 58.2872 60.437 59.132 61.4791 59.132H115.88C116.923 59.132 117.767 58.2872 117.767 57.2452V57.191C117.767 56.149 116.923 55.3042 115.88 55.3042Z" fill="#D6224C"/>
<path id="Vector_5" d="M115.89 68.8459H61.4703C60.4282 68.8459 59.5835 69.6907 59.5835 70.7327V70.7869C59.5835 71.829 60.4282 72.6737 61.4703 72.6737H115.89C116.932 72.6737 117.777 71.829 117.777 70.7869V70.7327C117.777 69.6907 116.932 68.8459 115.89 68.8459Z" fill="#D6224C"/>
<path id="Vector_6" d="M115.89 82.3875H61.4703C60.4282 82.3875 59.5835 83.2322 59.5835 84.2743V84.3284C59.5835 85.3705 60.4282 86.2152 61.4703 86.2152H115.89C116.932 86.2152 117.777 85.3705 117.777 84.3284V84.2743C117.777 83.2322 116.932 82.3875 115.89 82.3875Z" fill="#D6224C"/>
</g>
<defs>
<clipPath id="clip0_1003_29235">
<rect width="130" height="130" fill="white"/>
</clipPath>
</defs>
</svg>
