<svg width="125" height="147" viewBox="0 0 125 147" fill="none" xmlns="http://www.w3.org/2000/svg">
<g id="Pasted-20230719-203603 1">
<path id="Vector" d="M125 45.4335V54.2696L124.407 54.6391C124.204 54.7622 123.982 54.8238 123.742 54.8238H111.194C110.921 54.8238 110.785 54.9577 110.785 55.2255C110.764 71.2214 110.767 87.2094 110.793 103.189C110.793 105.99 110.473 108.095 109.832 109.503C107.252 115.19 102.62 115.238 96.3061 115.246C83.571 115.246 70.8333 115.193 58.0929 115.086C56.4477 115.07 54.6261 114.585 52.6282 113.632C52.4816 113.561 52.3156 113.54 52.1561 113.574C51.9966 113.607 51.8527 113.693 51.7468 113.817C50.601 115.182 51.2901 117.745 51.0737 119.512C51.0363 119.79 51.1004 120.047 51.266 120.283L58.5577 130.501C58.6546 130.634 58.7126 130.792 58.7252 130.957C58.7379 131.122 58.7048 131.287 58.6295 131.434C58.5542 131.582 58.4396 131.706 58.2983 131.794C58.1571 131.881 57.9945 131.929 57.8285 131.931L53.4856 131.939C53.1864 131.944 52.9781 132.083 52.8606 132.356L50.9776 136.814C50.9256 136.937 50.8419 137.044 50.7352 137.124C50.6285 137.204 50.5028 137.254 50.371 137.269C50.2392 137.284 50.1063 137.263 49.9861 137.208C49.8659 137.154 49.7628 137.068 49.6875 136.959L42.6522 127.087C42.6002 127.011 42.5249 126.955 42.4378 126.928C42.3507 126.9 42.2567 126.902 42.1702 126.934C42.0838 126.966 42.0096 127.026 41.9592 127.104C41.9087 127.183 41.8848 127.275 41.891 127.368L42.8926 139.473C42.9052 139.617 42.8783 139.762 42.815 139.892C42.7516 140.022 42.6541 140.132 42.5329 140.211C42.4118 140.289 42.2716 140.333 42.1274 140.337C41.9833 140.342 41.8406 140.307 41.7147 140.236L37.6282 137.987C37.3771 137.848 37.1368 137.867 36.9071 138.044L33.2051 140.919C33.0985 141.003 32.9711 141.055 32.8368 141.072C32.7025 141.088 32.5663 141.068 32.4428 141.012C32.3192 140.957 32.213 140.869 32.1356 140.758C32.0582 140.647 32.0124 140.516 32.0032 140.381L31.1699 129.497C31.1378 129.116 31.3114 128.926 31.6907 128.926H32.2276C32.5748 128.926 32.7591 129.1 32.7804 129.448L33.3253 138.035C33.3296 138.108 33.3534 138.178 33.3942 138.238C33.435 138.298 33.4913 138.346 33.5571 138.376C33.6229 138.407 33.6957 138.419 33.7677 138.411C33.8398 138.404 33.9085 138.376 33.9663 138.333L36.7067 136.236C36.9845 136.022 37.2756 136 37.5801 136.172L40.6811 137.907C40.7356 137.938 40.7975 137.953 40.8601 137.951C40.9227 137.95 40.9837 137.931 41.0364 137.897C41.0891 137.863 41.1317 137.816 41.1594 137.759C41.1872 137.703 41.1991 137.64 41.1939 137.578L40.3846 127.521C40.3633 127.285 40.2484 127.119 40.0401 127.023C39.2975 126.669 38.5203 126.407 37.7083 126.235C34.5353 125.569 31.9471 129.633 29.375 125.553C28.5524 124.24 27.4306 123.349 26.0096 122.878C22.8846 121.833 21.0657 121.086 21.9311 117.351C21.9952 117.083 21.9712 116.824 21.859 116.572C20.8413 114.291 18.2131 112.596 19.0465 109.688C19.1213 109.436 19.2495 109.214 19.4311 109.021C20.9696 107.393 21.5999 105.476 21.3221 103.27C21.0337 100.916 22.1394 99.9119 24.3429 99.1969C25.9989 98.6614 27.2837 97.66 28.1971 96.1927C30.649 92.2566 32.5641 94.6343 35.9054 94.7147C38.2853 94.7789 39.1346 92.6502 42.1394 94.1604C42.3531 94.2675 42.5134 94.4255 42.6202 94.6343C43.7687 96.846 45.5609 98.15 47.9968 98.5463C48.2105 98.5838 48.3387 98.4954 48.3814 98.2812L48.6779 96.6987C48.7473 96.3614 48.953 96.1927 49.2949 96.1927H53.7821C54.1186 96.1927 54.2869 96.0267 54.2869 95.6946V52.8156C54.2865 52.7561 54.2725 52.6974 54.2457 52.6441C54.2189 52.5907 54.1802 52.5442 54.1323 52.5078C54.0845 52.4715 54.0288 52.4463 53.9696 52.4342C53.9103 52.4221 53.8489 52.4235 53.7901 52.4381C42.8125 55.3138 32.524 55.2576 22.9247 52.2694C21.859 51.932 21.2179 51.0484 21.9391 50.0122C22.0136 49.908 22.1182 49.83 22.2378 49.7896C22.3575 49.7491 22.4858 49.7483 22.6042 49.7873C32.7003 53.0807 42.8392 53.1744 53.0208 50.0684C53.8916 49.8007 54.3082 49.2116 54.2708 48.3012C54.1693 45.5379 55.0881 43.2138 57.0272 41.3287C57.2516 41.1092 57.3825 40.8414 57.4199 40.5255L57.6442 38.5574C57.687 38.1879 57.5374 38.0755 57.1955 38.2201C52.7404 40.1265 48.2746 42.0115 43.7981 43.8751C35.9615 47.1364 26.6907 41.4573 19.5353 38.2201C19.4816 38.1944 19.4223 38.1831 19.3629 38.1872C19.3035 38.1912 19.246 38.2106 19.1956 38.2435C19.1452 38.2763 19.1037 38.3216 19.0748 38.3751C19.0459 38.4286 19.0307 38.4885 19.0304 38.5494V53.1851C19.0304 53.4315 19.1293 53.6269 19.3269 53.7715C22.508 56.0609 21.4663 60.993 21.4263 64.415C21.4221 64.6934 21.3096 64.959 21.1132 65.1543C20.9168 65.3497 20.6522 65.4592 20.3766 65.4592L15.625 65.4673C15.4675 65.4683 15.3114 65.4379 15.1657 65.3779C15.0199 65.3178 14.8873 65.2292 14.7756 65.1172C14.6639 65.0052 14.5752 64.872 14.5147 64.7253C14.4542 64.5786 14.4231 64.4213 14.4231 64.2624V56.2456C14.4231 55.9457 14.5272 55.6887 14.7356 55.4745L16.6186 53.5386C16.7575 53.3993 16.8269 53.228 16.8269 53.0245V37.5694C16.8269 37.3177 16.7121 37.141 16.4824 37.0392C13.2452 35.6174 1.22596 31.4324 0 28.8699V27.4642C0.456731 26.7171 0.99359 26.0102 1.84295 25.6487C12.3558 21.1557 22.8766 16.6734 33.4054 12.2019C36.891 10.7158 40.4487 11.1496 44.1747 12.6919C54.1587 16.8314 64.1026 21.0593 74.0064 25.3756C82.6042 29.1269 68.0369 33.6414 66.1538 34.4768C66.0049 34.5411 65.8405 34.5594 65.6819 34.5293C65.5233 34.4992 65.3778 34.4222 65.2644 34.3081C64.367 33.4084 64.6234 32.6453 65.7212 32.1473C68.4722 30.9156 71.2046 29.7722 73.9183 28.7173C74.0126 28.6814 74.0941 28.6179 74.1521 28.5351C74.2102 28.4523 74.2421 28.354 74.2439 28.2528C74.2456 28.1516 74.217 28.0522 74.1618 27.9675C74.1066 27.8828 74.0274 27.8166 73.9343 27.7774C64.0999 23.5897 54.2815 19.4153 44.4792 15.2543C39.5753 13.1658 37.0753 13.1337 31.9231 15.3266C22.1848 19.4555 12.3718 23.6245 2.48397 27.8337C2.40987 27.865 2.34663 27.9175 2.30216 27.9846C2.25769 28.0518 2.23397 28.1306 2.23397 28.2112C2.23397 28.2918 2.25769 28.3706 2.30216 28.4378C2.34663 28.5049 2.40987 28.5575 2.48397 28.5887L17.9247 35.1355C18.1506 35.2283 18.4039 35.2283 18.6298 35.1355C23.2131 33.1969 27.8018 31.2958 32.3958 29.4322C33.3307 29.052 33.7687 28.4308 33.7099 27.5686C33.6886 27.3008 33.7607 27.0598 33.9263 26.8456C38.0769 21.3512 46.7228 27.5686 41.3942 30.854C39.4765 32.0321 37.4786 32.0777 35.4006 30.9905C35.1656 30.8674 34.9279 30.8567 34.6875 30.9584L21.6186 36.3243C21.5825 36.3398 21.5516 36.3655 21.53 36.3983C21.5083 36.4312 21.4968 36.4697 21.4968 36.5091C21.4968 36.5484 21.5083 36.587 21.53 36.6198C21.5516 36.6527 21.5825 36.6784 21.6186 36.6938C26.2874 38.7663 30.9802 40.7183 35.6971 42.5497C40.2965 44.341 55.617 36.4287 60.4808 34.3402C61.25 34.0028 61.7708 34.2117 62.0994 34.9427C62.1564 35.0729 62.1872 35.2132 62.1898 35.3553C62.1924 35.4974 62.1669 35.6384 62.1146 35.7701C62.0624 35.9018 61.9845 36.0215 61.8856 36.1221C61.7866 36.2228 61.6686 36.3025 61.5385 36.3564L60.1362 36.9348C59.8104 37.074 59.6581 37.3204 59.6795 37.6738L59.7516 38.9109C59.7783 39.3179 59.9733 39.4303 60.3365 39.2483C61.4904 38.6645 62.2943 38.3727 62.7484 38.3727C79.9706 38.3513 97.1902 38.3486 114.407 38.3646C120.048 38.3727 123.662 39.8105 125 45.4335ZM40.6329 28.2482C40.6349 28.0804 40.5758 27.9136 40.4589 27.7572C40.342 27.6008 40.1696 27.4579 39.9515 27.3366C39.7335 27.2153 39.4741 27.1181 39.1881 27.0504C38.9021 26.9827 38.5952 26.9459 38.2848 26.9421C37.9744 26.9383 37.6666 26.9676 37.3791 27.0282C37.0915 27.0889 36.8298 27.1798 36.6089 27.2957C36.3879 27.4116 36.2121 27.5503 36.0915 27.7038C35.9708 27.8573 35.9076 28.0226 35.9056 28.1903C35.9036 28.358 35.9627 28.5249 36.0796 28.6813C36.1965 28.8377 36.3689 28.9806 36.5869 29.1019C36.805 29.2231 37.0644 29.3204 37.3504 29.3881C37.6363 29.4558 37.9433 29.4926 38.2537 29.4964C38.5641 29.5002 38.8718 29.4709 39.1594 29.4102C39.447 29.3496 39.7087 29.2587 39.9296 29.1428C40.1505 29.0269 40.3263 28.8882 40.447 28.7347C40.5677 28.5812 40.6308 28.4159 40.6329 28.2482ZM92.0994 96.1927C92.1982 96.1926 92.2961 96.2125 92.3871 96.2511C92.4782 96.2898 92.5605 96.3464 92.6293 96.4176C92.6981 96.4888 92.7519 96.5731 92.7875 96.6656C92.8231 96.758 92.8398 96.8567 92.8365 96.9558C92.6522 102.41 91.4423 110.105 97.6603 112.604C104.535 115.367 108.782 110.105 108.774 103.695C108.769 84.7486 108.771 65.8046 108.782 46.8633C108.782 44.3169 109.407 42.6702 111.002 40.8789C111.044 40.8327 111.072 40.7751 111.082 40.7132C111.092 40.6513 111.083 40.5879 111.058 40.5307C111.032 40.4735 110.99 40.425 110.938 40.3913C110.885 40.3575 110.824 40.3399 110.761 40.3407C95.5315 40.3782 80.2457 40.3836 64.9038 40.3568C63.1197 40.3568 61.5598 40.6219 60.2244 41.152C59.9466 41.2645 59.7917 41.4707 59.7596 41.7705C59.399 45.4576 60.8173 48.6707 56.6266 50.6066C56.2687 50.7726 56.0897 51.0564 56.0897 51.4581V95.7669C56.0897 95.8799 56.1345 95.9881 56.2141 96.068C56.2938 96.1478 56.4018 96.1927 56.5144 96.1927H92.0994ZM120.24 41.5215C116.325 39.5615 113.462 40.1613 111.651 43.3209C110.248 45.7548 110.785 49.474 110.777 52.3979C110.777 52.6764 110.916 52.8156 111.194 52.8156H122.412C122.77 52.8156 122.957 52.6362 122.973 52.2774C123.085 49.0001 123.782 43.2887 120.24 41.5215ZM57.2516 44.4214C56.4744 44.6383 56.1538 47.016 56.0577 47.7389C56.0474 47.8193 56.0638 47.9009 56.1044 47.9711C56.145 48.0412 56.2074 48.0961 56.2821 48.1271C56.3568 48.1582 56.4397 48.1637 56.5179 48.1429C56.596 48.1221 56.6652 48.0761 56.7147 48.012C57.4252 47.0427 57.7511 45.953 57.6923 44.7427C57.6763 44.4481 57.5294 44.341 57.2516 44.4214ZM19.2243 56.8606C19.2247 56.7361 19.2007 56.6128 19.1536 56.4976C19.1064 56.3825 19.0372 56.2777 18.9497 56.1894C18.8622 56.1011 18.7582 56.0309 18.6436 55.9829C18.5291 55.9348 18.4062 55.9099 18.2821 55.9095L17.5929 55.9071C17.4688 55.9066 17.3457 55.9307 17.2309 55.9779C17.116 56.0252 17.0115 56.0946 16.9234 56.1823C16.8353 56.2701 16.7653 56.3743 16.7174 56.4891C16.6695 56.604 16.6446 56.7271 16.6441 56.8516L16.6251 62.3139C16.6246 62.4384 16.6487 62.5617 16.6958 62.6769C16.7429 62.7921 16.8122 62.8968 16.8997 62.9851C16.9872 63.0735 17.0912 63.1436 17.2057 63.1917C17.3203 63.2397 17.4431 63.2646 17.5673 63.2651L18.2564 63.2675C18.3806 63.2679 18.5036 63.2438 18.6185 63.1966C18.7334 63.1494 18.8378 63.0799 18.926 62.9922C19.0141 62.9045 19.0841 62.8002 19.132 62.6854C19.1799 62.5706 19.2048 62.4474 19.2052 62.3229L19.2243 56.8606ZM32.6042 95.6625C32.0898 95.4123 31.4983 95.3739 30.9572 95.5558C30.4162 95.7376 29.9688 96.125 29.7115 96.6345C28.4776 99.0872 26.5144 100.522 23.8221 100.94C23.5069 100.988 23.2933 101.162 23.1811 101.462C22.7324 102.662 22.6603 103.907 22.9647 105.197C23.0128 105.406 23.0075 105.61 22.9487 105.808C22.4947 107.506 21.64 109.008 20.3846 110.314C19.9145 110.802 19.9332 111.27 20.4407 111.72C22.8606 113.846 23.8488 116.534 23.4054 119.785C23.3845 119.941 23.4187 120.1 23.5021 120.233C23.5855 120.367 23.7129 120.467 23.8622 120.516L28.101 121.93C28.3841 122.021 28.6191 122.181 28.8061 122.412L31.2821 125.408C31.521 125.697 31.8563 125.889 32.2251 125.948C32.5939 126.007 32.9708 125.929 33.2853 125.729C35.6357 124.24 38.0182 124.19 40.4327 125.577C40.6098 125.679 40.8063 125.742 41.0095 125.763C41.2126 125.784 41.4179 125.762 41.6121 125.698C41.8062 125.635 41.9849 125.531 42.1364 125.394C42.288 125.257 42.4091 125.089 42.492 124.902C43.6512 122.251 45.641 120.65 48.4615 120.098C48.7981 120.029 49.0465 119.844 49.2067 119.544C49.8157 118.366 49.8878 117.14 49.4231 115.865C49.3162 115.581 49.3269 115.303 49.4551 115.03L50.7772 112.218C50.8894 111.977 50.8627 111.755 50.6971 111.551C47.8526 108.121 48.5016 104.723 48.4615 100.803C48.4615 100.439 48.2853 100.209 47.9327 100.113L44.4952 99.1568C44.2014 99.0711 43.9557 98.9104 43.758 98.6748L41.4583 95.9115C41.1513 95.5406 40.7237 95.2904 40.2514 95.2051C39.7791 95.1198 39.2927 95.205 38.8782 95.4456C36.8376 96.6291 34.7463 96.7014 32.6042 95.6625ZM93.7981 112.411C89.9359 108.451 91.0256 103.832 90.9215 98.7391C90.9161 98.3803 90.7345 98.2009 90.3766 98.2009L50.8894 98.1928C50.8136 98.1925 50.7386 98.2081 50.6692 98.2385C50.5997 98.2689 50.5374 98.3135 50.4861 98.3695C50.4348 98.4254 50.3957 98.4915 50.3714 98.5634C50.347 98.6353 50.3379 98.7116 50.3446 98.7873L50.8093 104.748C50.8307 105.021 50.9188 105.267 51.0737 105.487L53.5256 108.933C53.7126 109.19 53.7767 109.474 53.7179 109.784L53.4615 111.15C53.4135 111.391 53.4882 111.586 53.6859 111.736C54.984 112.743 56.1351 113.246 57.1394 113.246C69.4311 113.252 81.7361 113.262 94.0545 113.278C94.1056 113.279 94.1561 113.267 94.2017 113.244C94.2472 113.221 94.2863 113.187 94.3155 113.145C94.3448 113.102 94.3633 113.054 94.3695 113.003C94.3757 112.952 94.3693 112.901 94.351 112.853C94.2548 112.59 94.0705 112.443 93.7981 112.411ZM51.0337 108.893C51.0924 109.407 51.3328 109.728 51.7548 109.856C52.1287 109.974 52.2516 109.848 52.1234 109.479C51.9631 109.002 51.6693 108.617 51.242 108.322C51.0283 108.178 50.9054 108.234 50.8734 108.491C50.852 108.652 50.9054 108.785 51.0337 108.893ZM51.4423 131.722C51.5791 131.372 51.8173 131.071 52.126 130.859C52.4347 130.647 52.7996 130.533 53.1731 130.533H55.6731C55.761 130.532 55.847 130.507 55.9216 130.46C55.9962 130.413 56.0567 130.347 56.0963 130.268C56.136 130.19 56.1534 130.101 56.1465 130.014C56.1397 129.926 56.109 129.841 56.0577 129.77L50.2564 121.633C50.0962 121.408 49.8798 121.317 49.6074 121.359C46.9845 121.772 45.1042 123.143 43.9663 125.472C43.8221 125.761 43.8462 126.04 44.0385 126.308L49.7436 134.26C50.0481 134.688 50.2965 134.659 50.4888 134.172L51.4423 131.722Z" fill="#D6224C"/>
<path id="Vector_2" d="M98.1652 53.0164H66.6748C66.1349 53.0164 65.6973 53.4551 65.6973 53.9964V54.0446C65.6973 54.5858 66.1349 55.0246 66.6748 55.0246H98.1652C98.7051 55.0246 99.1428 54.5858 99.1428 54.0446V53.9964C99.1428 53.4551 98.7051 53.0164 98.1652 53.0164Z" fill="#D6224C"/>
<path id="Vector_3" d="M98.2774 63.8606H66.5786C66.114 63.8606 65.7373 64.2382 65.7373 64.704V64.8647C65.7373 65.3305 66.114 65.7081 66.5786 65.7081H98.2774C98.742 65.7081 99.1187 65.3305 99.1187 64.8647V64.704C99.1187 64.2382 98.742 63.8606 98.2774 63.8606Z" fill="#D6224C"/>
<path id="Vector_4" d="M98.1731 74.5122H66.6988C66.1589 74.5122 65.7212 74.951 65.7212 75.4922V75.5404C65.7212 76.0816 66.1589 76.5204 66.6988 76.5204H98.1731C98.713 76.5204 99.1507 76.0816 99.1507 75.5404V75.4922C99.1507 74.951 98.713 74.5122 98.1731 74.5122Z" fill="#D6224C"/>
<path id="Vector_5" d="M98.141 85.3484H66.6826C66.1427 85.3484 65.7051 85.7872 65.7051 86.3284V86.3766C65.7051 86.9178 66.1427 87.3566 66.6826 87.3566H98.141C98.6809 87.3566 99.1185 86.9178 99.1185 86.3766V86.3284C99.1185 85.7872 98.6809 85.3484 98.141 85.3484Z" fill="#D6224C"/>
<path id="Vector_6" d="M28.2292 115.969C35.1362 126.79 52.7083 115.367 43.125 103.527C42.7404 103.05 42.8873 102.643 43.5657 102.306C43.7255 102.223 43.9098 102.202 44.0839 102.247C44.258 102.291 44.41 102.398 44.5112 102.547C48.3574 108.1 48.5096 113.072 44.9679 117.463C35.625 129.047 18.4856 115.319 27.2917 103.639C30.5529 99.3174 36.4663 97.9679 41.4503 100.45C41.5734 100.511 41.6773 100.605 41.7508 100.723C41.8243 100.84 41.8645 100.977 41.867 101.117C41.883 101.936 41.4343 102.241 40.6891 101.864C31.7468 97.3172 22.8205 107.495 28.2292 115.969Z" fill="#D6224C"/>
<path id="Vector_7" d="M37.3837 104.85L31.762 106.979C31.377 107.125 31.1829 107.556 31.3283 107.942L31.351 108.002C31.4965 108.388 31.9265 108.583 32.3115 108.437L37.9332 106.307C38.3181 106.161 38.5123 105.73 38.3668 105.344L38.3442 105.284C38.1987 104.898 37.7687 104.704 37.3837 104.85Z" fill="#D6224C"/>
<path id="Vector_8" d="M40.3188 109.939C41.3357 109.562 42.0244 108.888 41.857 108.435C41.6897 107.981 40.7297 107.919 39.7128 108.296C38.6959 108.673 38.0072 109.347 38.1746 109.8C38.3419 110.254 39.3019 110.316 40.3188 109.939Z" fill="#D6224C"/>
<path id="Vector_9" d="M36.3738 109.599L31.1304 111.595C30.7539 111.739 30.5647 112.161 30.7077 112.538L30.7304 112.598C30.8734 112.976 31.2945 113.166 31.671 113.022L36.9144 111.025C37.2909 110.882 37.4801 110.46 37.3371 110.082L37.3144 110.022C37.1714 109.645 36.7502 109.455 36.3738 109.599Z" fill="#D6224C"/>
<path id="Vector_10" d="M40.1713 112.538L34.5536 114.632C34.1637 114.777 33.9652 115.212 34.1102 115.603L34.1325 115.663C34.2775 116.054 34.7112 116.253 35.1011 116.108L40.7187 114.013C41.1086 113.868 41.3072 113.433 41.1622 113.042L41.1398 112.982C40.9948 112.591 40.5612 112.392 40.1713 112.538Z" fill="#D6224C"/>
</g>
</svg>
