<svg width="129" height="129" viewBox="0 0 129 129" fill="none" xmlns="http://www.w3.org/2000/svg">
<g id="CREATIVE TEACHING">
<g id="Group">
<path id="Vector" d="M73.3762 31.6504H101.376C101.84 31.6504 102.285 31.466 102.614 31.1378C102.942 30.8096 103.126 30.3645 103.126 29.9004C103.126 29.4363 102.942 28.9911 102.614 28.663C102.285 28.3348 101.84 28.1504 101.376 28.1504H73.3762C72.9121 28.1504 72.467 28.3348 72.1388 28.663C71.8106 28.9911 71.6262 29.4363 71.6262 29.9004C71.6262 30.3645 71.8106 30.8096 72.1388 31.1378C72.467 31.466 72.9121 31.6504 73.3762 31.6504Z" fill="#B9B9B9"/>
<path id="Vector_2" d="M73.3762 42.3174H88.3762C88.8403 42.3174 89.2855 42.133 89.6137 41.8048C89.9418 41.4766 90.1262 41.0315 90.1262 40.5674C90.1262 40.1033 89.9418 39.6581 89.6137 39.3299C89.2855 39.0018 88.8403 38.8174 88.3762 38.8174H73.3762C72.9121 38.8174 72.467 39.0018 72.1388 39.3299C71.8106 39.6581 71.6262 40.1033 71.6262 40.5674C71.6262 41.0315 71.8106 41.4766 72.1388 41.8048C72.467 42.133 72.9121 42.3174 73.3762 42.3174Z" fill="#B9B9B9"/>
<path id="Vector_3" d="M101.376 38.8174H97.3762C96.9121 38.8174 96.467 39.0018 96.1388 39.3299C95.8106 39.6581 95.6262 40.1033 95.6262 40.5674C95.6262 41.0315 95.8106 41.4766 96.1388 41.8048C96.467 42.133 96.9121 42.3174 97.3762 42.3174H101.376C101.84 42.3174 102.285 42.133 102.614 41.8048C102.942 41.4766 103.126 41.0315 103.126 40.5674C103.126 40.1033 102.942 39.6581 102.614 39.3299C102.285 39.0018 101.84 38.8174 101.376 38.8174Z" fill="#B9B9B9"/>
<path id="Vector_4" d="M73.3762 63.6504H88.3762C88.8403 63.6504 89.2855 63.466 89.6137 63.1378C89.9418 62.8096 90.1262 62.3645 90.1262 61.9004C90.1262 61.4363 89.9418 60.9911 89.6137 60.663C89.2855 60.3348 88.8403 60.1504 88.3762 60.1504H73.3762C72.9121 60.1504 72.467 60.3348 72.1388 60.663C71.8106 60.9911 71.6262 61.4363 71.6262 61.9004C71.6262 62.3645 71.8106 62.8096 72.1388 63.1378C72.467 63.466 72.9121 63.6504 73.3762 63.6504Z" fill="#B9B9B9"/>
<path id="Vector_5" d="M101.376 60.1504H97.3762C96.9121 60.1504 96.467 60.3348 96.1388 60.663C95.8106 60.9911 95.6262 61.4363 95.6262 61.9004C95.6262 62.3645 95.8106 62.8096 96.1388 63.1378C96.467 63.466 96.9121 63.6504 97.3762 63.6504H101.376C101.84 63.6504 102.285 63.466 102.614 63.1378C102.942 62.8096 103.126 62.3645 103.126 61.9004C103.126 61.4363 102.942 60.9911 102.614 60.663C102.285 60.3348 101.84 60.1504 101.376 60.1504Z" fill="#B9B9B9"/>
<path id="Vector_6" d="M73.3762 52.9834H101.376C101.84 52.9834 102.285 52.799 102.614 52.4708C102.942 52.1426 103.126 51.6975 103.126 51.2334C103.126 50.7693 102.942 50.3241 102.614 49.996C102.285 49.6678 101.84 49.4834 101.376 49.4834H73.3762C72.9121 49.4834 72.467 49.6678 72.1388 49.996C71.8106 50.3241 71.6262 50.7693 71.6262 51.2334C71.6262 51.6975 71.8106 52.1426 72.1388 52.4708C72.467 52.799 72.9121 52.9834 73.3762 52.9834Z" fill="#B9B9B9"/>
<path id="Vector_7" d="M118.369 6.15723H10.3691C9.10985 6.15881 7.90259 6.65977 7.01214 7.55022C6.12168 8.44068 5.62073 9.64794 5.61914 10.9072V15.9072C5.61941 16.3713 5.80386 16.8162 6.132 17.1444C6.46013 17.4725 6.90509 17.657 7.36914 17.6572H11.6191V82.5422C11.6207 83.9341 12.1744 85.2686 13.1586 86.2528C14.1428 87.237 15.4772 87.7906 16.8691 87.7922C17.4667 87.7861 18.0588 87.6769 18.6191 87.4692V121.907C18.6191 122.371 18.8035 122.816 19.1317 123.145C19.4599 123.473 19.905 123.657 20.3691 123.657C20.8333 123.657 21.2784 123.473 21.6066 123.145C21.9348 122.816 22.1191 122.371 22.1191 121.907V60.9472C22.1191 60.7174 22.0739 60.4898 21.9859 60.2775C21.898 60.0652 21.7691 59.8723 21.6066 59.7098C21.4441 59.5473 21.2512 59.4184 21.0388 59.3304C20.8265 59.2425 20.599 59.1972 20.3691 59.1972C20.1393 59.1972 19.9118 59.2425 19.6994 59.3304C19.4871 59.4184 19.2942 59.5473 19.1317 59.7098C18.9692 59.8723 18.8403 60.0652 18.7523 60.2775C18.6644 60.4898 18.6191 60.7174 18.6191 60.9472V82.5472C18.6191 83.0114 18.4348 83.4565 18.1066 83.7847C17.7784 84.1128 17.3333 84.2972 16.8691 84.2972C16.405 84.2972 15.9599 84.1128 15.6317 83.7847C15.3035 83.4565 15.1191 83.0114 15.1191 82.5472V57.2672C15.1236 56.4094 15.4338 55.5813 15.9939 54.9316C16.554 54.2818 17.3273 53.8531 18.1751 53.7222L25.3151 52.6592C27.9385 53.5833 30.7988 53.5833 33.4221 52.6592L36.1801 53.0702C37.5046 53.2701 38.7307 53.8874 39.6801 54.8322L48.7431 63.8952C49.0715 64.2232 49.5166 64.4074 49.9806 64.4074C50.4447 64.4074 50.8898 64.2232 51.2181 63.8952L59.5182 55.5952C59.8392 55.2479 60.2789 55.0339 60.7503 54.9955C61.2217 54.9572 61.6903 55.0974 62.0632 55.3882C62.2404 55.547 62.3833 55.7403 62.4834 55.9562C62.5835 56.1721 62.6385 56.4061 62.6451 56.644C62.6518 56.8818 62.6099 57.1185 62.522 57.3397C62.4342 57.5608 62.3022 57.7618 62.1342 57.9302L52.2832 67.7812C51.6729 68.3907 50.8456 68.733 49.9831 68.733C49.1207 68.733 48.2934 68.3907 47.6831 67.7812L39.6061 59.7072C39.3612 59.4625 39.0492 59.2959 38.7096 59.2285C38.3699 59.1612 38.018 59.1961 37.6982 59.3288C37.3784 59.4616 37.1052 59.6862 36.9131 59.9743C36.721 60.2624 36.6187 60.601 36.6191 60.9472V121.907C36.6191 122.371 36.8035 122.816 37.1317 123.145C37.4599 123.473 37.905 123.657 38.3691 123.657C38.8333 123.657 39.2784 123.473 39.6066 123.145C39.9348 122.816 40.1191 122.371 40.1191 121.907V77.6432H62.6192V84.3972C61.1749 84.8185 59.931 85.7466 59.1159 87.0111C58.3008 88.2757 57.9692 89.7918 58.182 91.2811C58.3947 92.7705 59.1376 94.1331 60.2741 95.1188C61.4107 96.1045 62.8647 96.6472 64.3692 96.6472C65.8736 96.6472 67.3276 96.1045 68.4642 95.1188C69.6007 94.1331 70.3436 92.7705 70.5563 91.2811C70.7691 89.7918 70.4375 88.2757 69.6224 87.0111C68.8073 85.7466 67.5634 84.8185 66.1192 84.3972V77.6432H115.369C115.833 77.6432 116.278 77.4588 116.607 77.1307C116.935 76.8025 117.119 76.3574 117.119 75.8932V17.6572H121.369C121.833 17.657 122.278 17.4725 122.606 17.1444C122.934 16.8162 123.119 16.3713 123.119 15.9072V10.9072C123.118 9.64794 122.617 8.44068 121.726 7.55022C120.836 6.65977 119.628 6.15881 118.369 6.15723ZM67.1192 90.3932C67.1192 90.9371 66.9579 91.4688 66.6557 91.921C66.3535 92.3733 65.924 92.7258 65.4215 92.9339C64.919 93.142 64.3661 93.1965 63.8327 93.0904C63.2992 92.9843 62.8092 92.7224 62.4246 92.3378C62.04 91.9532 61.7781 91.4632 61.672 90.9297C61.5659 90.3963 61.6203 89.8433 61.8285 89.3409C62.0366 88.8384 62.3891 88.4089 62.8413 88.1067C63.2936 87.8045 63.8253 87.6432 64.3692 87.6432C65.0983 87.6438 65.7975 87.9337 66.3131 88.4493C66.8287 88.9649 67.1186 89.664 67.1192 90.3932ZM20.4521 40.9362C20.4519 39.1726 20.9747 37.4485 21.9544 35.9819C22.9341 34.5154 24.3267 33.3723 25.9561 32.6973C27.5854 32.0222 29.3784 31.8455 31.1082 32.1894C32.8379 32.5334 34.4269 33.3826 35.6741 34.6296C36.9212 35.8766 37.7706 37.4655 38.1147 39.1952C38.4589 40.925 38.2824 42.718 37.6075 44.3474C36.9326 45.9768 35.7897 47.3695 34.3233 48.3494C32.8569 49.3292 31.1328 49.8522 29.3691 49.8522C27.0052 49.8496 24.7388 48.9094 23.0671 47.2379C21.3955 45.5665 20.4551 43.3002 20.4521 40.9362ZM113.619 74.1432H40.1191V65.1722L45.2061 70.2592C46.4732 71.5229 48.1897 72.2326 49.9791 72.2326C51.7686 72.2326 53.4851 71.5229 54.7522 70.2592L64.6031 60.4072C65.1061 59.9026 65.5016 59.3013 65.7656 58.6396C66.0296 57.9779 66.1567 57.2695 66.1391 56.5572C66.1234 55.8436 65.9608 55.1409 65.6616 54.4928C65.3625 53.8447 64.933 53.2651 64.4001 52.7902C64.1502 52.5632 63.8778 52.3622 63.5872 52.1902L67.1692 30.1812C67.2437 29.7231 67.1331 29.2541 66.8619 28.8774C66.5906 28.5007 66.1808 28.2473 65.7227 28.1727C65.2645 28.0982 64.7955 28.2087 64.4188 28.48C64.0422 28.7513 63.7887 29.1611 63.7142 29.6192L60.1441 51.5652C58.9706 51.7391 57.8839 52.2853 57.0442 53.1232L49.9841 60.1822L42.1591 52.3582C40.9893 51.1948 39.5447 50.3456 37.9591 49.8892C39.7449 48.1785 40.979 45.9735 41.5033 43.5568C42.0276 41.1401 41.8182 38.6218 40.9019 36.3249C39.9855 34.028 38.4041 32.0571 36.3603 30.665C34.3165 29.2728 31.9034 28.5227 29.4305 28.511C26.9576 28.4992 24.5376 29.2263 22.4806 30.599C20.4236 31.9717 18.8235 33.9275 17.8854 36.2156C16.9473 38.5037 16.714 41.0198 17.2153 43.4414C17.7166 45.863 18.9297 48.0796 20.6991 49.8072L17.6591 50.2602C16.7613 50.3953 15.8985 50.7044 15.1191 51.1702V17.6572H113.619V74.1432ZM119.619 14.1572H9.11914V10.9072C9.11914 10.5757 9.25084 10.2578 9.48526 10.0233C9.71968 9.78892 10.0376 9.65723 10.3691 9.65723H118.369C118.701 9.65749 119.018 9.78927 119.253 10.0236C119.487 10.258 119.619 10.5758 119.619 10.9072V14.1572Z" fill="#B9B9B9"/>
<path id="Vector_8" d="M29.3691 84.292C28.905 84.292 28.4599 84.4764 28.1317 84.8046C27.8035 85.1327 27.6191 85.5779 27.6191 86.042V121.907C27.6191 122.371 27.8035 122.816 28.1317 123.144C28.4599 123.473 28.905 123.657 29.3691 123.657C29.8333 123.657 30.2784 123.473 30.6066 123.144C30.9348 122.816 31.1191 122.371 31.1191 121.907V86.042C31.1191 85.5779 30.9348 85.1327 30.6066 84.8046C30.2784 84.4764 29.8333 84.292 29.3691 84.292Z" fill="#FF033E"/>
</g>
<path id="Subtract" fill-rule="evenodd" clip-rule="evenodd" d="M11.5137 82.5426C11.5153 83.9345 12.0689 85.2689 13.0531 86.2532C14.0373 87.2374 15.3718 87.791 16.7637 87.7926C17.3613 87.7865 17.9533 87.6772 18.5137 87.4696V121.908C18.5137 122.372 18.698 122.817 19.0262 123.145C19.3544 123.473 19.7995 123.658 20.2637 123.658C20.7278 123.658 21.1729 123.473 21.5011 123.145C21.8293 122.817 22.0137 122.372 22.0137 121.908V60.9476C22.0137 60.7178 21.9684 60.4902 21.8805 60.2779C21.7925 60.0656 21.6636 59.8727 21.5011 59.7102C21.3386 59.5477 21.1457 59.4188 20.9334 59.3308C20.721 59.2429 20.4935 59.1976 20.2637 59.1976C20.0339 59.1976 19.8063 59.2429 19.594 59.3308C19.3817 59.4188 19.1887 59.5477 19.0262 59.7102C18.8637 59.8727 18.7348 60.0656 18.6469 60.2779C18.5589 60.4902 18.5137 60.7178 18.5137 60.9476V82.5476C18.5137 83.0117 18.3293 83.4568 18.0011 83.785C17.6729 84.1132 17.2278 84.2976 16.7637 84.2976C16.2995 84.2976 15.8544 84.1132 15.5262 83.785C15.198 83.4568 15.0137 83.0117 15.0137 82.5476V57.2676C15.0181 56.4098 15.3283 55.5817 15.8884 54.9319C16.4485 54.2822 17.2219 53.8534 18.0697 53.7226L25.2097 52.6596C27.833 53.5837 30.6933 53.5837 33.3167 52.6596L36.0747 53.0706C37.3991 53.2705 38.6253 53.8878 39.5747 54.8326L48.6377 63.8956C48.966 64.2236 49.4111 64.4078 49.8752 64.4078C50.3392 64.4078 50.7843 64.2236 51.1127 63.8956L59.4127 55.5956C59.7337 55.2483 60.1734 55.0343 60.6448 54.9959C61.1162 54.9576 61.5848 55.0977 61.9577 55.3886C62.1349 55.5474 62.2779 55.7407 62.3779 55.9566C62.478 56.1725 62.533 56.4065 62.5396 56.6443C62.5463 56.8822 62.5044 57.1189 62.4165 57.3401C62.3287 57.5612 62.1967 57.7621 62.0287 57.9306L52.1777 67.7816C51.5674 68.391 50.7402 68.7333 49.8777 68.7333C49.0152 68.7333 48.188 68.391 47.5777 67.7816L39.5007 59.7076C39.2558 59.4629 38.9437 59.2963 38.6041 59.2289C38.2645 59.1615 37.9125 59.1965 37.5927 59.3292C37.2729 59.462 36.9997 59.6866 36.8076 59.9747C36.6156 60.2628 36.5133 60.6014 36.5137 60.9476V121.908C36.5137 122.372 36.698 122.817 37.0262 123.145C37.3544 123.473 37.7995 123.658 38.2637 123.658C38.7278 123.658 39.1729 123.473 39.5011 123.145C39.8293 122.817 40.0137 122.372 40.0137 121.908V77.6436V74.1436V65.1726L45.1007 70.2596C46.3677 71.5233 48.0842 72.2329 49.8737 72.2329C51.6632 72.2329 53.3796 71.5233 54.6467 70.2596L64.4977 60.4076C65.0006 59.903 65.3961 59.3017 65.6601 58.64C65.9241 57.9782 66.0512 57.2698 66.0337 56.5576C66.0179 55.844 65.8553 55.1412 65.5562 54.4931C65.257 53.8451 64.8276 53.2655 64.2947 52.7906C64.0447 52.5636 63.7723 52.3626 63.4817 52.1906L67.0637 30.1816C67.1382 29.7234 67.0277 29.2544 66.7564 28.8778C66.4851 28.5011 66.0753 28.2476 65.6172 28.1731C65.159 28.0986 64.69 28.2091 64.3133 28.4804C63.9367 28.7517 63.6832 29.1614 63.6087 29.6196L60.0387 51.5656C58.8651 51.7395 57.7785 52.2856 56.9387 53.1236L49.8787 60.1826L42.0537 52.3586C40.8838 51.1952 39.4392 50.3459 37.8537 49.8896C39.6394 48.1789 40.8736 45.9739 41.3979 43.5571C41.9221 41.1404 41.7127 38.6222 40.7964 36.3253C39.8801 34.0284 38.2986 32.0575 36.2548 30.6653C34.211 29.2731 31.7979 28.5231 29.325 28.5113C26.8521 28.4996 24.4321 29.2267 22.3751 30.5994C20.3182 31.9721 18.7181 33.9279 17.78 36.216C16.8419 38.504 16.6085 41.0202 17.1098 43.4418C17.6111 45.8633 18.8243 48.08 20.5937 49.8076L17.5537 50.2606C16.6558 50.3957 15.793 50.7048 15.0137 51.1706C13.847 51.9763 11.5137 54.3236 11.5137 57.2676V82.5426ZM29.2244 49.5776C34.0535 49.5776 37.9683 45.6629 37.9683 40.8337C37.9683 36.0046 34.0535 32.0898 29.2244 32.0898C24.3952 32.0898 20.4805 36.0046 20.4805 40.8337C20.4805 45.6629 24.3952 49.5776 29.2244 49.5776Z" fill="#FF033E"/>
</g>
</svg>
