<svg width="141" height="141" viewBox="0 0 141 141" fill="none" xmlns="http://www.w3.org/2000/svg">
<g id="IDEA">
<g id="Group">
<path id="Vector" d="M70.5 18.3516C71.0076 18.3516 71.4945 18.1499 71.8534 17.7909C72.2124 17.432 72.4141 16.9451 72.4141 16.4375V7.6875C72.4141 7.17986 72.2124 6.69301 71.8534 6.33405C71.4945 5.9751 71.0076 5.77344 70.5 5.77344C69.9924 5.77344 69.5055 5.9751 69.1466 6.33405C68.7876 6.69301 68.5859 7.17986 68.5859 7.6875V16.4375C68.5859 16.9451 68.7876 17.432 69.1466 17.7909C69.5055 18.1499 69.9924 18.3516 70.5 18.3516Z" fill="#B9B9B9"/>
<path id="Vector_2" d="M125.188 60.4609H116.438C115.93 60.4609 115.443 60.6626 115.084 61.0216C114.725 61.3805 114.523 61.8674 114.523 62.375C114.523 62.8826 114.725 63.3695 115.084 63.7284C115.443 64.0874 115.93 64.2891 116.438 64.2891H125.188C125.695 64.2891 126.182 64.0874 126.541 63.7284C126.9 63.3695 127.102 62.8826 127.102 62.375C127.102 61.8674 126.9 61.3805 126.541 61.0216C126.182 60.6626 125.695 60.4609 125.188 60.4609Z" fill="#B9B9B9"/>
<path id="Vector_3" d="M24.5625 60.4609H15.8125C15.3049 60.4609 14.818 60.6626 14.4591 61.0216C14.1001 61.3805 13.8984 61.8674 13.8984 62.375C13.8984 62.8826 14.1001 63.3695 14.4591 63.7284C14.818 64.0874 15.3049 64.2891 15.8125 64.2891H24.5625C25.0701 64.2891 25.557 64.0874 25.9159 63.7284C26.2749 63.3695 26.4766 62.8826 26.4766 62.375C26.4766 61.8674 26.2749 61.3805 25.9159 61.0216C25.557 60.6626 25.0701 60.4609 24.5625 60.4609Z" fill="#B9B9B9"/>
<path id="Vector_4" d="M107.817 22.3512L101.629 28.5396C101.452 28.7173 101.311 28.9282 101.214 29.1604C101.118 29.3925 101.069 29.6413 101.069 29.8926C101.069 30.1438 101.118 30.3927 101.214 30.6248C101.311 30.8569 101.452 31.0679 101.629 31.2455C101.807 31.4232 102.018 31.5642 102.25 31.6603C102.482 31.7565 102.731 31.806 102.982 31.806C103.234 31.806 103.482 31.7565 103.714 31.6603C103.947 31.5642 104.158 31.4232 104.335 31.2455L110.524 25.0582C110.701 24.8805 110.842 24.6694 110.939 24.4372C111.035 24.205 111.084 23.9561 111.084 23.7047C111.084 23.4533 111.035 23.2044 110.939 22.9722C110.842 22.7399 110.701 22.5289 110.524 22.3512C110.346 22.1734 110.135 22.0324 109.903 21.9362C109.67 21.84 109.421 21.7905 109.17 21.7905C108.919 21.7905 108.67 21.84 108.438 21.9362C108.205 22.0324 107.994 22.1734 107.817 22.3512Z" fill="#B9B9B9"/>
<path id="Vector_5" d="M36.6638 93.5044L30.4764 99.6917C30.1174 100.051 29.9158 100.538 29.9158 101.045C29.9158 101.553 30.1174 102.04 30.4764 102.399C30.8354 102.758 31.3223 102.959 31.8299 102.959C32.3376 102.959 32.8245 102.758 33.1834 102.399L39.3708 96.2103C39.7194 95.8492 39.9122 95.3657 39.9077 94.8638C39.9033 94.362 39.7019 93.8819 39.3469 93.5271C38.992 93.1723 38.5119 92.9711 38.01 92.9669C37.5081 92.9626 37.0247 93.1556 36.6638 93.5044Z" fill="#B9B9B9"/>
<path id="Vector_6" d="M104.335 93.5043C103.976 93.1454 103.49 92.9438 102.982 92.9438C102.475 92.9438 101.988 93.1454 101.629 93.5043C101.27 93.8631 101.069 94.3498 101.069 94.8572C101.069 95.3647 101.27 95.8514 101.629 96.2102L107.817 102.399C108.176 102.758 108.662 102.959 109.17 102.959C109.678 102.959 110.165 102.758 110.524 102.399C110.883 102.04 111.084 101.553 111.084 101.045C111.084 100.537 110.883 100.051 110.524 99.6916L104.335 93.5043Z" fill="#B9B9B9"/>
<path id="Vector_7" d="M36.6638 31.2455C36.8403 31.4284 37.0515 31.5743 37.285 31.6746C37.5185 31.775 37.7696 31.8278 38.0238 31.8301C38.2779 31.8323 38.53 31.784 38.7652 31.6878C39.0005 31.5916 39.2142 31.4495 39.394 31.2698C39.5737 31.0901 39.7159 30.8765 39.8122 30.6412C39.9085 30.406 39.9569 30.154 39.9548 29.8999C39.9526 29.6457 39.8999 29.3945 39.7996 29.161C39.6993 28.9274 39.5536 28.7162 39.3708 28.5396L33.1834 22.3512C33.0057 22.1734 32.7947 22.0324 32.5624 21.9362C32.3302 21.84 32.0813 21.7905 31.8299 21.7905C31.5786 21.7905 31.3297 21.84 31.0974 21.9362C30.8652 22.0324 30.6542 22.1734 30.4764 22.3512C30.2987 22.5289 30.1577 22.7399 30.0615 22.9722C29.9653 23.2044 29.9158 23.4533 29.9158 23.7047C29.9158 23.9561 29.9653 24.205 30.0615 24.4372C30.1577 24.6694 30.2987 24.8805 30.4764 25.0582L36.6638 31.2455Z" fill="#B9B9B9"/>
<path id="Vector_8" d="M70.4999 23.2734C62.5521 23.2731 54.7929 25.6949 48.2563 30.2161C41.7197 34.7373 36.7162 41.1432 33.9125 48.5801C31.1088 56.017 30.6381 64.1317 32.5631 71.8429C34.4881 79.5541 38.7174 86.4955 44.6874 91.7422C48.2526 94.8251 50.7613 98.9484 51.8603 103.532C50.641 103.994 49.5959 104.824 48.8696 105.907C48.1433 106.99 47.7719 108.272 47.8069 109.576C47.8419 110.879 48.2815 112.139 49.0648 113.182C49.8481 114.224 50.9363 114.997 52.1785 115.393V128C52.1806 129.668 52.844 131.266 54.0232 132.445C55.2024 133.624 56.8012 134.287 58.4687 134.289H82.5312C84.1986 134.287 85.7973 133.624 86.9763 132.445C88.1554 131.266 88.8185 129.667 88.8203 128V115.396C90.0625 114.999 91.1507 114.226 91.934 113.184C92.7173 112.142 93.1569 110.881 93.1919 109.578C93.2269 108.274 92.8555 106.992 92.1292 105.909C91.4029 104.826 90.3577 103.996 89.1385 103.534C90.2383 98.9506 92.7472 94.8274 96.3124 91.7444C102.283 86.4979 106.513 79.5563 108.439 71.8447C110.364 64.1331 109.894 56.0179 107.09 48.5805C104.286 41.1431 99.2823 34.7368 92.7452 30.2155C86.2081 25.6942 78.4483 23.2726 70.4999 23.2734ZM84.9921 115.695V121.164H56.0078V115.695H84.9921ZM82.5312 130.461H58.4687C57.8163 130.46 57.1908 130.201 56.7295 129.739C56.2682 129.278 56.0086 128.652 56.0078 128V124.992H84.9921V128C84.9913 128.652 84.7317 129.278 84.2704 129.739C83.809 130.201 83.1836 130.46 82.5312 130.461ZM86.9062 111.867H54.0937C53.441 111.867 52.8151 111.608 52.3535 111.146C51.892 110.685 51.6328 110.059 51.6328 109.406C51.6328 108.754 51.892 108.128 52.3535 107.666C52.8151 107.205 53.441 106.945 54.0937 106.945H86.9062C87.5589 106.945 88.1848 107.205 88.6463 107.666C89.1078 108.128 89.3671 108.754 89.3671 109.406C89.3671 110.059 89.1078 110.685 88.6463 111.146C88.1848 111.608 87.5589 111.867 86.9062 111.867ZM93.7837 88.8689C89.5021 92.5828 86.5348 97.5803 85.3235 103.117H55.6763C54.4653 97.5805 51.4983 92.583 47.2173 88.8689C41.831 84.136 38.015 77.874 36.2779 70.9173C34.5408 63.9607 34.9649 56.6399 37.4939 49.9304C40.0229 43.221 44.5366 37.4416 50.4334 33.3625C56.3303 29.2833 63.3303 27.0982 70.5005 27.0982C77.6707 27.0982 84.6707 29.2833 90.5676 33.3625C96.4644 37.4416 100.978 43.221 103.507 49.9304C106.036 56.6399 106.46 63.9607 104.723 70.9173C102.986 77.874 99.17 84.136 93.7837 88.8689Z" fill="#B9B9B9"/>
</g>
<path id="Subtract" fill-rule="evenodd" clip-rule="evenodd" d="M65.7214 41.7579L66.8356 36.8242C66.9385 36.3682 67.3436 36.0444 67.811 36.0444H73.3729C73.8346 36.0444 74.2363 36.3605 74.3448 36.8093L75.5583 41.8251C75.629 42.1172 75.8272 42.362 76.0981 42.4918L80.0647 44.3925C80.3412 44.525 80.6631 44.5234 80.9382 44.3881L86.0086 41.8944C86.3893 41.7072 86.8466 41.7806 87.1497 42.0774L91.03 45.8785C91.3529 46.1948 91.4235 46.6883 91.2022 47.0824L88.5791 51.7548C88.4371 52.0078 88.4119 52.3101 88.5102 52.5831L89.9954 56.7087C90.1037 57.0093 90.3491 57.2402 90.6558 57.3298L95.9924 58.8897C96.4187 59.0144 96.7118 59.4054 96.7118 59.8496V64.9841C96.7118 65.4336 96.4119 65.8279 95.9787 65.9478L90.6877 67.413C90.3631 67.5029 90.1056 67.7501 90.0026 68.0708L88.4932 72.7665C88.4056 73.039 88.439 73.336 88.5849 73.5823L91.1855 77.9707C91.4165 78.3605 91.3565 78.8568 91.0394 79.1804L87.2364 83.061C86.8945 83.41 86.3504 83.4607 85.9498 83.181L81.7956 80.281C81.4951 80.0711 81.1038 80.0426 80.776 80.2065L76.0648 82.5621C75.8133 82.6879 75.6263 82.9137 75.5498 83.1842L74.3657 87.3678C74.2439 87.7983 73.8509 88.0955 73.4035 88.0955H67.7818C67.3279 88.0955 66.9309 87.7897 66.8149 87.3509L65.7235 83.2196C65.6466 82.9285 65.4427 82.6876 65.1683 82.5636L59.8061 80.1419C59.5247 80.0149 59.2003 80.0249 58.9273 80.1691L54.6768 82.4148C54.2889 82.6197 53.8127 82.5479 53.5025 82.2377L50.0624 78.7976C49.7303 78.4655 49.674 77.947 49.9272 77.5514L52.4402 73.6248C52.613 73.3549 52.6459 73.0184 52.5287 72.7201L50.6801 68.0147C50.5668 67.7261 50.326 67.5064 50.0282 67.42L44.9795 65.9542C44.5522 65.8302 44.2583 65.4388 44.2583 64.9939V59.8395C44.2583 59.4001 44.5452 59.0121 44.9653 58.8834L50.0427 57.3274C50.3321 57.2387 50.5657 57.0237 50.6782 56.7427L52.541 52.0855C52.6514 51.8095 52.6333 51.4987 52.4916 51.2374L49.867 46.3983C49.6477 45.9939 49.7326 45.4921 50.0726 45.1823L53.4887 42.0699C53.8083 41.7788 54.2787 41.726 54.6548 41.9389L58.9555 44.3733C59.212 44.5185 59.5195 44.5432 59.7959 44.4406L65.0938 42.4752C65.4108 42.3576 65.6469 42.0877 65.7214 41.7579ZM70.4854 73.9146C77.027 73.9146 82.3301 68.6115 82.3301 62.0698C82.3301 55.5282 77.027 50.2251 70.4854 50.2251C63.9437 50.2251 58.6406 55.5282 58.6406 62.0698C58.6406 68.6115 63.9437 73.9146 70.4854 73.9146Z" fill="#FF033E"/>
</g>
</svg>
