<svg width="121" height="121" viewBox="0 0 121 121" fill="none" xmlns="http://www.w3.org/2000/svg">
<g id="consultation" clip-path="url(#clip0_959_27651)">
<path id="Vector" d="M118.791 96.1858H112.111V93.3217C112.111 85.4397 106.559 78.8233 99.1316 77.117C100.658 75.6215 101.705 73.7052 102.138 71.6124C102.571 69.5196 102.371 67.3452 101.564 65.3666C100.756 63.3879 99.3772 61.6947 97.6033 60.5028C95.8294 59.3109 93.7407 58.6743 91.6035 58.6743C89.4664 58.6743 87.3777 59.3109 85.6038 60.5028C83.8299 61.6947 82.4512 63.3879 81.6435 65.3666C80.8358 67.3452 80.6358 69.5196 81.0689 71.6124C81.5021 73.7052 82.5487 75.6215 84.0754 77.117C76.648 78.8233 71.0957 85.4397 71.0957 93.3217V96.1858H2.30664C1.84044 96.1858 1.39333 96.371 1.06368 96.7006C0.734026 97.0303 0.548828 97.4774 0.548828 97.9436L0.548828 104.975C0.548828 105.441 0.734026 105.888 1.06368 106.218C1.39333 106.547 1.84044 106.733 2.30664 106.733H7.22852V118.686C7.22852 119.152 7.41371 119.599 7.74337 119.929C8.07302 120.258 8.52013 120.444 8.98633 120.444H112.111C112.578 120.444 113.025 120.258 113.354 119.929C113.684 119.599 113.869 119.152 113.869 118.686V106.733H118.791C119.257 106.733 119.704 106.547 120.034 106.218C120.364 105.888 120.549 105.441 120.549 104.975V97.9436C120.549 97.4774 120.364 97.0303 120.034 96.7006C119.704 96.371 119.257 96.1858 118.791 96.1858ZM91.6035 62.2014C93.0359 62.2014 94.4361 62.6262 95.6271 63.4219C96.818 64.2177 97.7463 65.3488 98.2944 66.6721C98.8426 67.9955 98.986 69.4516 98.7066 70.8565C98.4271 72.2613 97.7374 73.5518 96.7245 74.5646C95.7117 75.5774 94.4212 76.2672 93.0164 76.5466C91.6115 76.8261 90.1554 76.6827 88.832 76.1345C87.5087 75.5864 86.3776 74.6581 85.5819 73.4671C84.7861 72.2762 84.3613 70.876 84.3613 69.4436C84.3632 67.5234 85.1268 65.6824 86.4846 64.3247C87.8423 62.9669 89.6833 62.2033 91.6035 62.2014ZM74.6113 93.3217C74.6113 86.0866 80.5527 80.1967 87.8535 80.1967H95.3535C102.654 80.1967 108.596 86.0819 108.596 93.3217V96.1858H74.6113V93.3217ZM10.7441 106.733H28.3223V116.928H10.7441V106.733ZM89.2598 106.733V116.928H31.8379V106.733H89.2598ZM110.354 116.928H92.7754V106.733H110.354V116.928ZM117.033 103.217H4.06445V99.7014H117.033V103.217Z" fill="#B9B9B9"/>
<path id="Vector_2" d="M114.104 0.443359H69.5723C67.8636 0.445839 66.2257 1.12569 65.0175 2.33389C63.8093 3.54208 63.1294 5.18003 63.127 6.88867V48.2559C63.1257 49.2766 63.4418 50.2726 64.0316 51.1057C64.6214 51.9389 65.4557 52.5681 66.4189 52.9061C67.382 53.2442 68.4265 53.2744 69.4076 52.9926C70.3887 52.7108 71.258 52.1309 71.8949 51.3332L79.791 41.459H114.104C115.812 41.4565 117.45 40.7766 118.658 39.5685C119.867 38.3603 120.546 36.7223 120.549 35.0137V6.88867C120.546 5.18003 119.867 3.54208 118.658 2.33389C117.45 1.12569 115.812 0.445839 114.104 0.443359ZM117.033 35.0137C117.032 35.7903 116.723 36.5347 116.174 37.0839C115.625 37.6331 114.88 37.9421 114.104 37.9434H72.7809C72.3147 37.9434 71.8676 38.1286 71.5379 38.4582C71.2082 38.7879 71.0231 39.235 71.0231 39.7012C71.0231 40.1674 71.2082 40.6145 71.5379 40.9441C71.8676 41.2738 72.3147 41.459 72.7809 41.459H75.291L69.1504 49.1348C68.9687 49.3637 68.7202 49.5304 68.4394 49.6116C68.1586 49.6927 67.8595 49.6844 67.5837 49.5878C67.3079 49.4911 67.069 49.3109 66.9004 49.0722C66.7317 48.8335 66.6416 48.5481 66.6426 48.2559V6.88867C66.6438 6.11205 66.9529 5.36759 67.502 4.81844C68.0512 4.26928 68.7956 3.96022 69.5723 3.95898H114.104C114.88 3.96022 115.625 4.26928 116.174 4.81844C116.723 5.36759 117.032 6.11205 117.033 6.88867V35.0137Z" fill="#B9B9B9"/>
<path id="Vector_3" d="M109.416 28.5684H81.291C80.8248 28.5684 80.3777 28.7536 80.0481 29.0832C79.7184 29.4129 79.5332 29.86 79.5332 30.3262C79.5332 30.7924 79.7184 31.2395 80.0481 31.5691C80.3777 31.8988 80.8248 32.084 81.291 32.084H109.416C109.882 32.084 110.329 31.8988 110.659 31.5691C110.989 31.2395 111.174 30.7924 111.174 30.3262C111.174 29.86 110.989 29.4129 110.659 29.0832C110.329 28.7536 109.882 28.5684 109.416 28.5684Z" fill="#B9B9B9"/>
<path id="Vector_4" d="M74.2598 13.334H100.041C100.507 13.334 100.954 13.1488 101.284 12.8191C101.614 12.4895 101.799 12.0424 101.799 11.5762C101.799 11.11 101.614 10.6629 101.284 10.3332C100.954 10.0036 100.507 9.81836 100.041 9.81836H74.2598C73.7936 9.81836 73.3465 10.0036 73.0168 10.3332C72.6871 10.6629 72.502 11.11 72.502 11.5762C72.502 12.0424 72.6871 12.4895 73.0168 12.8191C73.3465 13.1488 73.7936 13.334 74.2598 13.334Z" fill="#B9B9B9"/>
<path id="Vector_5" d="M109.416 9.81836H107.072C106.606 9.81836 106.159 10.0036 105.829 10.3332C105.5 10.6629 105.314 11.11 105.314 11.5762C105.314 12.0424 105.5 12.4895 105.829 12.8191C106.159 13.1488 106.606 13.334 107.072 13.334H109.416C109.882 13.334 110.329 13.1488 110.659 12.8191C110.989 12.4895 111.174 12.0424 111.174 11.5762C111.174 11.11 110.989 10.6629 110.659 10.3332C110.329 10.0036 109.882 9.81836 109.416 9.81836Z" fill="#B9B9B9"/>
<path id="Vector_6" d="M109.416 19.1934H74.2598C73.7936 19.1934 73.3465 19.3786 73.0168 19.7082C72.6871 20.0379 72.502 20.485 72.502 20.9512C72.502 21.4174 72.6871 21.8645 73.0168 22.1941C73.3465 22.5238 73.7936 22.709 74.2598 22.709H109.416C109.882 22.709 110.329 22.5238 110.659 22.1941C110.989 21.8645 111.174 21.4174 111.174 20.9512C111.174 20.485 110.989 20.0379 110.659 19.7082C110.329 19.3786 109.882 19.1934 109.416 19.1934Z" fill="#B9B9B9"/>
<path id="Vector_7" d="M52.3457 73.9199H68.752C70.7722 73.9199 72.7096 73.1174 74.1381 71.6889C75.5666 70.2604 76.3691 68.3229 76.3691 66.3027C76.3691 64.2825 75.5666 62.3451 74.1381 60.9166C72.7096 59.4881 70.7722 58.6855 68.752 58.6855H52.3457C50.3255 58.6855 48.388 59.4881 46.9595 60.9166C45.531 62.3451 44.7285 64.2825 44.7285 66.3027C44.7285 68.3229 45.531 70.2604 46.9595 71.6889C48.388 73.1174 50.3255 73.9199 52.3457 73.9199ZM52.3457 62.2012H68.752C69.8398 62.2012 70.883 62.6333 71.6522 63.4025C72.4214 64.1717 72.8535 65.2149 72.8535 66.3027C72.8535 67.3905 72.4214 68.4338 71.6522 69.203C70.883 69.9722 69.8398 70.4043 68.752 70.4043H52.3457C51.2579 70.4043 50.2147 69.9722 49.4455 69.203C48.6763 68.4338 48.2441 67.3905 48.2441 66.3027C48.2441 65.2149 48.6763 64.1717 49.4455 63.4025C50.2147 62.6333 51.2579 62.2012 52.3457 62.2012Z" fill="#B9B9B9"/>
<path id="Vector_8" d="M51.5254 0.443359H6.99414C5.2855 0.445839 3.64755 1.12569 2.43936 2.33389C1.23116 3.54208 0.551308 5.18003 0.548828 6.88867L0.548828 35.0137C0.551308 36.7223 1.23116 38.3603 2.43936 39.5685C3.64755 40.7766 5.2855 41.4565 6.99414 41.459H48.3168C48.783 41.459 49.2301 41.6442 49.5598 41.9738C49.8894 42.3035 50.0746 42.7506 50.0746 43.2168C50.0746 43.683 49.8894 44.1301 49.5598 44.4598C49.2301 44.7894 48.783 44.9746 48.3168 44.9746H44.1191L49.2027 51.3309C49.8396 52.1284 50.7086 52.7082 51.6895 52.9901C52.6704 53.2719 53.7146 53.2419 54.6777 52.9042C55.6408 52.5664 56.475 51.9376 57.065 51.1048C57.655 50.272 57.9715 49.2764 57.9707 48.2559V6.88867C57.9682 5.18003 57.2884 3.54208 56.0802 2.33389C54.872 1.12569 53.234 0.445839 51.5254 0.443359ZM11.6816 9.81836H14.0254C14.4916 9.81836 14.9387 10.0036 15.2684 10.3332C15.598 10.6629 15.7832 11.11 15.7832 11.5762C15.7832 12.0424 15.598 12.4895 15.2684 12.8191C14.9387 13.1488 14.4916 13.334 14.0254 13.334H11.6816C11.2154 13.334 10.7683 13.1488 10.4387 12.8191C10.109 12.4895 9.92383 12.0424 9.92383 11.5762C9.92383 11.11 10.109 10.6629 10.4387 10.3332C10.7683 10.0036 11.2154 9.81836 11.6816 9.81836ZM39.8066 32.084H11.6816C11.2154 32.084 10.7683 31.8988 10.4387 31.5691C10.109 31.2395 9.92383 30.7924 9.92383 30.3262C9.92383 29.86 10.109 29.4129 10.4387 29.0832C10.7683 28.7536 11.2154 28.5684 11.6816 28.5684H39.8066C40.2728 28.5684 40.7199 28.7536 41.0496 29.0832C41.3793 29.4129 41.5645 29.86 41.5645 30.3262C41.5645 30.7924 41.3793 31.2395 41.0496 31.5691C40.7199 31.8988 40.2728 32.084 39.8066 32.084ZM46.8379 22.709H11.6816C11.2154 22.709 10.7683 22.5238 10.4387 22.1941C10.109 21.8645 9.92383 21.4174 9.92383 20.9512C9.92383 20.485 10.109 20.0379 10.4387 19.7082C10.7683 19.3786 11.2154 19.1934 11.6816 19.1934H46.8379C47.3041 19.1934 47.7512 19.3786 48.0809 19.7082C48.4105 20.0379 48.5957 20.485 48.5957 20.9512C48.5957 21.4174 48.4105 21.8645 48.0809 22.1941C47.7512 22.5238 47.3041 22.709 46.8379 22.709ZM46.8379 13.334H21.0566C20.5904 13.334 20.1433 13.1488 19.8137 12.8191C19.484 12.4895 19.2988 12.0424 19.2988 11.5762C19.2988 11.11 19.484 10.6629 19.8137 10.3332C20.1433 10.0036 20.5904 9.81836 21.0566 9.81836H46.8379C47.3041 9.81836 47.7512 10.0036 48.0809 10.3332C48.4105 10.6629 48.5957 11.11 48.5957 11.5762C48.5957 12.0424 48.4105 12.4895 48.0809 12.8191C47.7512 13.1488 47.3041 13.334 46.8379 13.334Z" fill="#FF033E"/>
<path id="Vector_9" d="M27.416 80.2012C29.5437 80.2012 31.6236 79.5702 33.3927 78.3882C35.1618 77.2061 36.5407 75.5259 37.3549 73.5602C38.1692 71.5945 38.3822 69.4314 37.9671 67.3446C37.552 65.2578 36.5274 63.3409 35.0229 61.8364C33.5184 60.3319 31.6016 59.3074 29.5148 58.8923C27.4279 58.4772 25.2649 58.6902 23.2992 59.5044C21.3334 60.3187 19.6533 61.6975 18.4712 63.4666C17.2891 65.2358 16.6582 67.3157 16.6582 69.4434C16.6644 72.2946 17.7998 75.0273 19.8159 77.0434C21.8321 79.0596 24.5648 80.195 27.416 80.2012Z" fill="#FF033E"/>
<path id="Vector_10" d="M47.9102 92.6699C47.787 89.6617 46.8501 86.7432 45.1991 84.2255C43.5481 81.7077 41.245 79.6851 38.5352 78.373C37.2002 80.0378 35.5083 81.3815 33.5844 82.3048C31.6605 83.228 29.5539 83.7074 27.4199 83.7074C25.286 83.7074 23.1793 83.228 21.2554 82.3048C19.3316 81.3815 17.6397 80.0378 16.3047 78.373C13.5959 79.6865 11.2938 81.7095 9.64303 84.227C7.99226 86.7444 7.05458 89.6621 6.92969 92.6699H47.9102Z" fill="#FF033E"/>
</g>
<defs>
<clipPath id="clip0_959_27651">
<rect width="120" height="120" fill="white" transform="translate(0.548828 0.443359)"/>
</clipPath>
</defs>
</svg>
