<svg width="129" height="128" viewBox="0 0 129 128" fill="none" xmlns="http://www.w3.org/2000/svg">
<path d="M121.301 12.1538H7.30079C6.83735 12.1538 6.39284 12.3376 6.06476 12.665C5.73669 12.9923 5.55185 13.4364 5.55079 13.8998V97.8998C5.55013 98.13 5.59492 98.358 5.68258 98.5709C5.77024 98.7837 5.89906 98.9772 6.06164 99.1401C6.22422 99.3031 6.41737 99.4323 6.63001 99.5205C6.84265 99.6086 7.0706 99.6539 7.30079 99.6538H56.5508V114.1C56.5505 114.446 56.6529 114.785 56.8452 115.072C57.0374 115.36 57.3107 115.585 57.6306 115.717C57.9505 115.85 58.3024 115.884 58.6419 115.817C58.9815 115.749 59.2932 115.582 59.5378 115.337L64.3008 110.57L69.0638 115.333C69.3081 115.578 69.6195 115.745 69.9586 115.812C70.2978 115.88 70.6494 115.846 70.9691 115.714C71.2888 115.582 71.5622 115.358 71.7548 115.071C71.9473 114.784 72.0503 114.446 72.0508 114.1V99.6538H121.301C121.531 99.6539 121.758 99.6088 121.971 99.5209C122.183 99.433 122.376 99.3041 122.539 99.1415C122.701 98.979 122.83 98.786 122.918 98.5737C123.006 98.3613 123.051 98.1337 123.051 97.9038V13.9038C123.051 13.4397 122.866 12.9946 122.538 12.6664C122.21 12.3382 121.765 12.1538 121.301 12.1538ZM51.1798 86.3448H26.7008C26.3426 84.3969 25.4012 82.6037 24.0011 81.2028C22.6011 79.8018 20.8085 78.8592 18.8608 78.4998V33.3068C20.8081 32.9473 22.6004 32.0049 24.0003 30.6044C25.4003 29.2039 26.342 27.4113 26.7008 25.4638H101.901C102.26 27.4115 103.202 29.2043 104.602 30.6049C106.002 32.0054 107.795 32.9476 109.743 33.3068V78.4998C107.795 78.8587 106.002 79.8009 104.602 81.2014C103.201 82.602 102.259 84.395 101.901 86.3428H77.4208C76.9996 83.1613 75.4367 80.2413 73.0231 78.1262C70.6095 76.011 67.5095 74.845 64.3003 74.845C61.091 74.845 57.9911 76.011 55.5775 78.1262C53.1639 80.2413 51.601 83.1613 51.1798 86.3428V86.3448ZM64.3008 78.3448C66.2292 78.3448 68.1142 78.9166 69.7176 79.988C71.321 81.0593 72.5707 82.5821 73.3086 84.3636C74.0466 86.1452 74.2397 88.1056 73.8634 89.9969C73.4872 91.8883 72.5586 93.6255 71.1951 94.9891C69.8315 96.3527 68.0942 97.2813 66.2029 97.6575C64.3116 98.0337 62.3512 97.8406 60.5696 97.1026C58.788 96.3647 57.2653 95.115 56.194 93.5116C55.1226 91.9082 54.5508 90.0232 54.5508 88.0948C54.554 85.51 55.5822 83.032 57.4101 81.2044C59.2379 79.3767 61.716 78.3477 64.3008 78.3448ZM65.5378 106.857C65.2096 106.529 64.7647 106.345 64.3008 106.345C63.8369 106.345 63.3919 106.529 63.0638 106.857L60.0508 109.87V100.633C62.8046 101.582 65.797 101.582 68.5508 100.633V109.87L65.5378 106.857ZM119.551 96.1568H74.7938C76.2099 94.3218 77.1165 92.1455 77.4218 89.8478H103.491C103.955 89.8478 104.4 89.6634 104.728 89.3352C105.056 89.0071 105.241 88.5619 105.241 88.0978C105.243 86.4408 105.902 84.8521 107.073 83.6804C108.245 82.5087 109.834 81.8497 111.491 81.8478C111.955 81.8478 112.4 81.6634 112.728 81.3352C113.056 81.0071 113.241 80.5619 113.241 80.0978V31.7138C113.241 31.484 113.196 31.2563 113.108 31.044C113.02 30.8316 112.891 30.6386 112.729 30.4761C112.566 30.3136 112.373 30.1847 112.161 30.0968C111.948 30.0089 111.721 29.9637 111.491 29.9638C109.834 29.962 108.245 29.3029 107.073 28.1312C105.902 26.9595 105.243 25.3708 105.241 23.7138C105.241 23.484 105.196 23.2563 105.108 23.044C105.02 22.8316 104.891 22.6386 104.729 22.4761C104.566 22.3135 104.373 22.1847 104.161 22.0968C103.948 22.0089 103.721 21.9637 103.491 21.9638H25.1108C24.8809 21.9637 24.6533 22.0089 24.4409 22.0968C24.2286 22.1847 24.0356 22.3135 23.8731 22.4761C23.7105 22.6386 23.5816 22.8316 23.4937 23.044C23.4058 23.2563 23.3607 23.484 23.3608 23.7138C23.3589 25.3708 22.6999 26.9595 21.5282 28.1312C20.3565 29.3029 18.7678 29.962 17.1108 29.9638C16.8809 29.9637 16.6533 30.0089 16.4409 30.0968C16.2286 30.1847 16.0356 30.3136 15.8731 30.4761C15.7105 30.6386 15.5816 30.8316 15.4937 31.044C15.4058 31.2563 15.3607 31.484 15.3608 31.7138V80.0998C15.3608 80.5639 15.5452 81.0091 15.8734 81.3372C16.2015 81.6654 16.6467 81.8498 17.1108 81.8498C18.7678 81.8517 20.3565 82.5107 21.5282 83.6824C22.6999 84.8541 23.3589 86.4428 23.3608 88.0998C23.3608 88.5639 23.5452 89.0091 23.8734 89.3372C24.2015 89.6654 24.6467 89.8498 25.1108 89.8498H51.1798C51.4851 92.1475 52.3916 94.3238 53.8078 96.1588H9.05079V15.6588H119.551V96.1568Z" fill="#B9B9B9"/>
<path d="M64.3008 95.3457C65.7347 95.3457 67.1364 94.9205 68.3287 94.1239C69.5209 93.3272 70.4502 92.1949 70.9989 90.8702C71.5476 89.5454 71.6912 88.0877 71.4115 86.6813C71.1317 85.2749 70.4412 83.9831 69.4273 82.9692C68.4134 81.9553 67.1215 81.2648 65.7152 80.985C64.3088 80.7053 62.8511 80.8488 61.5263 81.3976C60.2016 81.9463 59.0693 82.8756 58.2726 84.0678C57.476 85.2601 57.0508 86.6618 57.0508 88.0957C57.0529 90.0179 57.8174 91.8607 59.1766 93.2199C60.5358 94.5791 62.3786 95.3436 64.3008 95.3457ZM64.3008 84.3457C65.0425 84.3457 65.7675 84.5656 66.3842 84.9777C67.0009 85.3898 67.4815 85.9754 67.7653 86.6606C68.0492 87.3459 68.1234 88.0999 67.9787 88.8273C67.834 89.5547 67.4769 90.2229 66.9524 90.7474C66.428 91.2718 65.7598 91.629 65.0324 91.7736C64.3049 91.9183 63.5509 91.8441 62.8657 91.5603C62.1805 91.2764 61.5948 90.7958 61.1828 90.1791C60.7707 89.5624 60.5508 88.8374 60.5508 88.0957C60.5521 87.1016 60.9476 86.1485 61.6506 85.4455C62.3536 84.7425 63.3066 84.347 64.3008 84.3457Z" fill="#B9B9B9"/>
<path d="M47.8008 38.3408H80.8008C81.2649 38.3408 81.71 38.1564 82.0382 37.8283C82.3664 37.5001 82.5508 37.0549 82.5508 36.5908C82.5508 36.1267 82.3664 35.6816 82.0382 35.3534C81.71 35.0252 81.2649 34.8408 80.8008 34.8408H47.8008C47.3367 34.8408 46.8915 35.0252 46.5633 35.3534C46.2352 35.6816 46.0508 36.1267 46.0508 36.5908C46.0508 37.0549 46.2352 37.5001 46.5633 37.8283C46.8915 38.1564 47.3367 38.3408 47.8008 38.3408Z" fill="#B9B9B9"/>
<path d="M47.8008 64.0928H97.3008C97.7649 64.0928 98.21 63.9084 98.5382 63.5802C98.8664 63.252 99.0508 62.8069 99.0508 62.3428C99.0508 61.8786 98.8664 61.4335 98.5382 61.1053C98.21 60.7772 97.7649 60.5928 97.3008 60.5928H47.8008C47.3367 60.5928 46.8915 60.7772 46.5633 61.1053C46.2352 61.4335 46.0508 61.8786 46.0508 62.3428C46.0508 62.8069 46.2352 63.252 46.5633 63.5802C46.8915 63.9084 47.3367 64.0928 47.8008 64.0928Z" fill="#B9B9B9"/>
<path d="M31.3008 64.0928H38.8008C39.2649 64.0928 39.71 63.9084 40.0382 63.5802C40.3664 63.252 40.5508 62.8069 40.5508 62.3428C40.5508 61.8786 40.3664 61.4335 40.0382 61.1053C39.71 60.7772 39.2649 60.5928 38.8008 60.5928H31.3008C30.8367 60.5928 30.3915 60.7772 30.0633 61.1053C29.7352 61.4335 29.5508 61.8786 29.5508 62.3428C29.5508 62.8069 29.7352 63.252 30.0633 63.5802C30.3915 63.9084 30.8367 64.0928 31.3008 64.0928Z" fill="#B9B9B9"/>
<path d="M47.8008 51.2168H97.3008C97.7649 51.2168 98.21 51.0324 98.5382 50.7042C98.8664 50.376 99.0508 49.9309 99.0508 49.4668C99.0508 49.0027 98.8664 48.5576 98.5382 48.2294C98.21 47.9012 97.7649 47.7168 97.3008 47.7168H47.8008C47.3367 47.7168 46.8915 47.9012 46.5633 48.2294C46.2352 48.5576 46.0508 49.0027 46.0508 49.4668C46.0508 49.9309 46.2352 50.376 46.5633 50.7042C46.8915 51.0324 47.3367 51.2168 47.8008 51.2168Z" fill="#B9B9B9"/>
<path d="M31.3008 51.2168H38.8008C39.2649 51.2168 39.71 51.0324 40.0382 50.7042C40.3664 50.376 40.5508 49.9309 40.5508 49.4668C40.5508 49.0027 40.3664 48.5576 40.0382 48.2294C39.71 47.9012 39.2649 47.7168 38.8008 47.7168H31.3008C30.8367 47.7168 30.3915 47.9012 30.0633 48.2294C29.7352 48.5576 29.5508 49.0027 29.5508 49.4668C29.5508 49.9309 29.7352 50.376 30.0633 50.7042C30.3915 51.0324 30.8367 51.2168 31.3008 51.2168Z" fill="#B9B9B9"/>
<path d="M48.3008 73.4688H31.3008C30.8367 73.4688 30.3915 73.6531 30.0633 73.9813C29.7352 74.3095 29.5508 74.7546 29.5508 75.2188C29.5508 75.6829 29.7352 76.128 30.0633 76.4562C30.3915 76.7844 30.8367 76.9688 31.3008 76.9688H48.3008C48.7649 76.9688 49.21 76.7844 49.5382 76.4562C49.8664 76.128 50.0508 75.6829 50.0508 75.2188C50.0508 74.7546 49.8664 74.3095 49.5382 73.9813C49.21 73.6531 48.7649 73.4688 48.3008 73.4688Z" fill="#B9B9B9"/>
<path d="M97.3008 73.4688H80.3008C79.8367 73.4688 79.3915 73.6531 79.0633 73.9813C78.7352 74.3095 78.5508 74.7546 78.5508 75.2188C78.5508 75.6829 78.7352 76.128 79.0633 76.4562C79.3915 76.7844 79.8367 76.9688 80.3008 76.9688H97.3008C97.7649 76.9688 98.21 76.7844 98.5382 76.4562C98.8664 76.128 99.0508 75.6829 99.0508 75.2188C99.0508 74.7546 98.8664 74.3095 98.5382 73.9813C98.21 73.6531 97.7649 73.4688 97.3008 73.4688Z" fill="#B9B9B9"/>
<path d="M53.9955 72.9038H75.0261L83.7256 84.0124V95.121V117.338H45.0127V95.121V84.0124L53.9955 72.9038Z" fill="#F7F7F7"/>
<path d="M51.9355 106.101V119.279C51.9359 119.489 51.9912 119.694 52.0959 119.876C52.2006 120.057 52.3511 120.208 52.5323 120.313C52.7135 120.418 52.9191 120.473 53.1285 120.474C53.3379 120.475 53.5438 120.42 53.7257 120.316L64.3006 114.276L74.8755 120.316C75.0574 120.42 75.2635 120.475 75.473 120.474C75.6826 120.473 75.8883 120.418 76.0695 120.312C76.2508 120.207 76.4012 120.056 76.5058 119.875C76.6104 119.693 76.6655 119.487 76.6656 119.278V106.101C73.0682 108.704 68.741 110.105 64.3006 110.105C59.8601 110.105 55.5329 108.704 51.9355 106.101Z" fill="#FF033E"/>
<path d="M64.3007 77.3975C62.0129 77.3975 59.7765 78.0759 57.8742 79.3469C55.972 80.6179 54.4894 82.4245 53.6139 84.5381C52.7384 86.6518 52.5093 88.9776 52.9557 91.2214C53.402 93.4652 54.5037 95.5263 56.1214 97.1441C57.7391 98.7618 59.8002 99.8634 62.044 100.31C64.2879 100.756 66.6136 100.527 68.7273 99.6515C70.8409 98.776 72.6475 97.2934 73.9185 95.3912C75.1896 93.489 75.868 91.2525 75.868 88.9647C75.8646 85.8979 74.6448 82.9577 72.4763 80.7892C70.3077 78.6206 67.3675 77.4008 64.3007 77.3975ZM70.764 85.7881L63.396 93.7656C63.284 93.8864 63.1483 93.9828 62.9973 94.0487C62.8463 94.1146 62.6833 94.1486 62.5185 94.1486C62.3538 94.1486 62.1908 94.1146 62.0398 94.0487C61.8888 93.9828 61.753 93.8864 61.641 93.7656L57.8374 89.6508C57.7232 89.537 57.6332 89.4013 57.5727 89.2519C57.5123 89.1024 57.4826 88.9423 57.4856 88.7811C57.4886 88.6199 57.5241 88.461 57.59 88.3139C57.656 88.1667 57.7509 88.0345 57.8693 87.925C57.9876 87.8155 58.1268 87.731 58.2786 87.6767C58.4304 87.6223 58.5916 87.5992 58.7525 87.6087C58.9134 87.6182 59.0708 87.6601 59.2151 87.7319C59.3594 87.8037 59.4878 87.9039 59.5924 88.0266L62.5137 91.1904L69.0026 84.1703C69.2215 83.9522 69.5162 83.8272 69.8251 83.8215C70.1341 83.8158 70.4332 83.9298 70.66 84.1397C70.8868 84.3495 71.0236 84.639 71.0418 84.9475C71.06 85.2559 70.9582 85.5594 70.7576 85.7945L70.764 85.7881Z" fill="#FF033E"/>
<path d="M64.3007 70.2178C60.5929 70.2178 56.9684 71.3173 53.8854 73.3772C50.8025 75.4372 48.3997 78.365 46.9807 81.7906C45.5618 85.2162 45.1906 88.9855 45.9139 92.6221C46.6373 96.2587 48.4228 99.5991 51.0446 102.221C53.6664 104.843 57.0068 106.628 60.6433 107.352C64.2799 108.075 68.0493 107.704 71.4749 106.285C74.9004 104.866 77.8283 102.463 79.8882 99.38C81.9482 96.2971 83.0477 92.6726 83.0477 88.9648C83.0422 83.9944 81.0653 79.2293 77.5507 75.7147C74.0362 72.2001 69.271 70.2233 64.3007 70.2178ZM64.3007 102.925C61.5396 102.925 58.8404 102.106 56.5446 100.572C54.2489 99.0385 52.4595 96.8582 51.4029 94.3072C50.3462 91.7563 50.0698 88.9493 50.6084 86.2412C51.1471 83.5331 52.4767 81.0456 54.4291 79.0932C56.3815 77.1408 58.8691 75.8112 61.5771 75.2725C64.2852 74.7338 67.0922 75.0103 69.6432 76.0669C72.1941 77.1236 74.3744 78.9129 75.9084 81.2087C77.4424 83.5045 78.2612 86.2036 78.2612 88.9648C78.257 92.666 76.7848 96.2145 74.1676 98.8317C71.5504 101.449 68.002 102.921 64.3007 102.925Z" fill="#FF033E"/>
</svg>
