<svg width="121" height="121" viewBox="0 0 121 121" fill="none" xmlns="http://www.w3.org/2000/svg">
<g id="conference" clip-path="url(#clip0_959_27640)">
<path id="Vector" d="M112.062 99.7324H8.9375C8.4713 99.7324 8.02419 99.9176 7.69454 100.247C7.36489 100.577 7.17969 101.024 7.17969 101.49V108.521C7.17969 108.988 7.36489 109.435 7.69454 109.764C8.02419 110.094 8.4713 110.279 8.9375 110.279H11.8672V119.068C11.8672 119.535 12.0524 119.982 12.382 120.311C12.7117 120.641 13.1588 120.826 13.625 120.826H107.375C107.841 120.826 108.288 120.641 108.618 120.311C108.948 119.982 109.133 119.535 109.133 119.068V110.279H112.062C112.529 110.279 112.976 110.094 113.305 109.764C113.635 109.435 113.82 108.988 113.82 108.521V101.49C113.82 101.024 113.635 100.577 113.305 100.247C112.976 99.9176 112.529 99.7324 112.062 99.7324ZM15.3828 110.279H35.3047V117.311H15.3828V110.279ZM82.1797 110.279V117.311H38.8203V110.279H82.1797ZM105.617 117.311H85.6953V110.279H105.617V117.311ZM110.305 106.764H10.6953V103.248H110.305V106.764Z" fill="#B9B9B9"/>
<path id="Vector_2" d="M118.742 0.826172H2.25781C1.79161 0.826172 1.34451 1.01137 1.01485 1.34102C0.685198 1.67068 0.5 2.11778 0.5 2.58398L0.5 9.61523C0.5 10.0814 0.685198 10.5285 1.01485 10.8582C1.34451 11.1878 1.79161 11.373 2.25781 11.373H4.83594V61.1777C4.83594 61.6439 5.02113 62.091 5.35079 62.4207C5.68044 62.7504 6.12755 62.9355 6.59375 62.9355H114.406C114.872 62.9355 115.32 62.7504 115.649 62.4207C115.979 62.091 116.164 61.6439 116.164 61.1777V11.373H118.742C119.208 11.373 119.655 11.1878 119.985 10.8582C120.315 10.5285 120.5 10.0814 120.5 9.61523V2.58398C120.5 2.11778 120.315 1.67068 119.985 1.34102C119.655 1.01137 119.208 0.826172 118.742 0.826172ZM112.648 59.4199H8.35156V11.373H112.648V59.4199ZM116.984 7.85742H4.01562V4.3418H116.984V7.85742Z" fill="#B9B9B9"/>
<path id="Vector_3" d="M15.7579 51.7184C16.0468 52.0844 16.469 52.3209 16.932 52.3763C17.3951 52.4316 17.8611 52.3012 18.2282 52.0137L40.0368 34.8574L51.2657 47.9543C51.4232 48.1384 51.6171 48.2879 51.8351 48.3936C52.0531 48.4992 52.2907 48.5586 52.5327 48.568C52.7748 48.5775 53.0163 48.5368 53.2419 48.4486C53.4675 48.3603 53.6724 48.2263 53.8438 48.0551L78.6641 23.2348V33.0527C78.6641 33.5189 78.8493 33.966 79.179 34.2957C79.5086 34.6253 79.9557 34.8105 80.422 34.8105C80.8882 34.8105 81.3353 34.6253 81.6649 34.2957C81.9946 33.966 82.1798 33.5189 82.1798 33.0527V18.9902C82.1798 18.524 81.9946 18.0769 81.6649 17.7473C81.3353 17.4176 80.8882 17.2324 80.422 17.2324H66.3595C65.8933 17.2324 65.4461 17.4176 65.1165 17.7473C64.7868 18.0769 64.6016 18.524 64.6016 18.9902C64.6016 19.4564 64.7868 19.9035 65.1165 20.2332C65.4461 20.5628 65.8933 20.748 66.3595 20.748H76.1774L52.7001 44.2254L41.6095 31.2949C41.3139 30.9513 40.8971 30.735 40.446 30.6913C39.9949 30.6477 39.5443 30.7799 39.1884 31.0605L16.0532 49.248C15.6872 49.537 15.4506 49.9592 15.3953 50.4222C15.3399 50.8852 15.4703 51.3513 15.7579 51.7184Z" fill="#B9B9B9"/>
<path id="Vector_4" d="M82.1797 50.0449V47.1152C82.1797 46.649 81.9945 46.2019 81.6648 45.8723C81.3352 45.5426 80.8881 45.3574 80.4219 45.3574C79.9557 45.3574 79.5086 45.5426 79.1789 45.8723C78.8493 46.2019 78.6641 46.649 78.6641 47.1152V50.0449H75.7344C75.2682 50.0449 74.8211 50.2301 74.4914 50.5598C74.1618 50.8894 73.9766 51.3365 73.9766 51.8027C73.9766 52.2689 74.1618 52.716 74.4914 53.0457C74.8211 53.3753 75.2682 53.5605 75.7344 53.5605H103.859C104.326 53.5605 104.773 53.3753 105.102 53.0457C105.432 52.716 105.617 52.2689 105.617 51.8027C105.617 51.3365 105.432 50.8894 105.102 50.5598C104.773 50.2301 104.326 50.0449 103.859 50.0449H100.93V33.0527C100.93 32.5865 100.744 32.1394 100.415 31.8098C100.085 31.4801 99.6381 31.2949 99.1719 31.2949C98.7057 31.2949 98.2586 31.4801 97.9289 31.8098C97.5993 32.1394 97.4141 32.5865 97.4141 33.0527V50.0449H91.5547V40.084C91.5547 39.6178 91.3695 39.1707 91.0398 38.841C90.7102 38.5114 90.2631 38.3262 89.7969 38.3262C89.3307 38.3262 88.8836 38.5114 88.5539 38.841C88.2243 39.1707 88.0391 39.6178 88.0391 40.084V50.0449H82.1797Z" fill="#B9B9B9"/>
<path id="Vector_5" d="M60.5 84.498C65.3541 84.498 69.2891 80.563 69.2891 75.709C69.2891 70.8549 65.3541 66.9199 60.5 66.9199C55.6459 66.9199 51.7109 70.8549 51.7109 75.709C51.7109 80.563 55.6459 84.498 60.5 84.498Z" fill="#FF033E"/>
<path id="Vector_6" d="M70.4445 82.9419C69.3051 84.5124 67.81 85.7907 66.0815 86.6722C64.353 87.5537 62.4403 88.0132 60.5 88.0132C58.5597 88.0132 56.647 87.5537 54.9185 86.6722C53.19 85.7907 51.6949 84.5124 50.5555 82.9419C48.5868 84.1288 46.9577 85.8036 45.8257 87.8044C44.6937 89.8052 44.0972 92.0642 44.0938 94.363V96.2169H76.9062V94.363C76.9028 92.0642 76.3063 89.8052 75.1743 87.8044C74.0423 85.8036 72.4132 84.1288 70.4445 82.9419Z" fill="#FF033E"/>
<path id="Vector_7" d="M37.298 86.2539C36.3016 87.734 34.9567 88.9466 33.3816 89.785C31.8065 90.6234 30.0495 91.0619 28.2652 91.0619C26.4809 91.0619 24.724 90.6234 23.1489 89.785C21.5738 88.9466 20.2289 87.734 19.2324 86.2539C17.8532 87.277 16.7322 88.6083 15.959 90.1417C15.1858 91.675 14.7818 93.3679 14.7793 95.0852V96.2172H41.7512V95.0852C41.7486 93.3679 41.3447 91.675 40.5715 90.1417C39.7983 88.6083 38.6773 87.277 37.298 86.2539Z" fill="#FF033E"/>
<path id="Vector_8" d="M28.2734 87.5449C32.3509 87.5449 35.6562 84.2395 35.6562 80.1621C35.6562 76.0847 32.3509 72.7793 28.2734 72.7793C24.196 72.7793 20.8906 76.0847 20.8906 80.1621C20.8906 84.2395 24.196 87.5449 28.2734 87.5449Z" fill="#FF033E"/>
<path id="Vector_9" d="M101.751 86.2539C100.755 87.734 99.4098 88.9466 97.8347 89.785C96.2596 90.6234 94.5027 91.0619 92.7184 91.0619C90.934 91.0619 89.1771 90.6234 87.602 89.785C86.0269 88.9466 84.682 87.734 83.6855 86.2539C82.3063 87.277 81.1853 88.6083 80.4121 90.1417C79.6389 91.675 79.235 93.3679 79.2324 95.0852V96.2172H106.204V95.0852C106.202 93.3679 105.798 91.675 105.025 90.1417C104.251 88.6083 103.13 87.277 101.751 86.2539Z" fill="#FF033E"/>
<path id="Vector_10" d="M92.7266 87.5449C96.804 87.5449 100.109 84.2395 100.109 80.1621C100.109 76.0847 96.804 72.7793 92.7266 72.7793C88.6491 72.7793 85.3438 76.0847 85.3438 80.1621C85.3438 84.2395 88.6491 87.5449 92.7266 87.5449Z" fill="#FF033E"/>
</g>
<defs>
<clipPath id="clip0_959_27640">
<rect width="120" height="120" fill="white" transform="translate(0.5 0.826172)"/>
</clipPath>
</defs>
</svg>
