<svg width="242" height="283" viewBox="0 0 242 283" fill="none" xmlns="http://www.w3.org/2000/svg">
<path d="M241.892 0.972656H227.773V162.632C227.773 165.764 227.573 168.846 227.322 171.928C222.666 226.113 177.105 268.666 121.331 268.666C65.5563 268.666 19.5949 225.815 15.2391 171.332C14.9888 168.449 14.8386 165.565 14.8386 162.632V14.9911H114.221V85.4811H185.166V156.071H114.221V240.529H128.44V170.089H199.335V71.4627H128.44V0.972656H0.719727V162.632C0.719727 165.217 0.719727 167.951 0.869927 170.487C4.82521 233.172 57.2452 282.784 121.381 282.784C185.517 282.784 237.887 233.172 241.892 170.487C242.042 167.902 241.992 165.267 241.992 162.632V0.972656H241.892Z" fill="#F23C66"/>
</svg>
