<svg width="120" height="120" viewBox="0 0 120 120" fill="none" xmlns="http://www.w3.org/2000/svg">
<g clip-path="url(#clip0_209_8873)">
<path d="M118.242 31.2891H101.602V29.5312C101.6 28.133 101.044 26.7924 100.056 25.8037C99.0669 24.815 97.7263 24.2591 96.3281 24.2578H95.7422V15.8203C95.7372 11.626 94.0689 7.60495 91.103 4.63914C88.1372 1.67333 84.1162 0.00496219 79.9219 0L40.0781 0C35.8838 0.00496219 31.8628 1.67333 28.897 4.63914C25.9311 7.60495 24.2628 11.626 24.2578 15.8203V24.2578H23.6719C22.2737 24.2591 20.9331 24.815 19.9444 25.8037C18.9557 26.7924 18.3997 28.133 18.3984 29.5312V31.2891H1.75781C1.29161 31.2891 0.844505 31.4743 0.514852 31.8039C0.185198 32.1336 2.98288e-07 32.5807 2.98288e-07 33.0469V77.5781C-0.000213975 77.946 0.115018 78.3047 0.329461 78.6037C0.543903 78.9027 0.846744 79.1268 1.19531 79.2445L28.9688 88.6195C29.15 88.6804 29.34 88.7113 29.5312 88.7109H90.4688C90.66 88.7113 90.85 88.6804 91.0312 88.6195L118.805 79.2445C119.153 79.1268 119.456 78.9027 119.671 78.6037C119.885 78.3047 120 77.946 120 77.5781V33.0469C120 32.5807 119.815 32.1336 119.485 31.8039C119.155 31.4743 118.708 31.2891 118.242 31.2891ZM98.0859 29.5312V31.2891H83.5336L84.7055 27.7734H96.3281C96.7943 27.7734 97.2414 27.9586 97.5711 28.2883C97.9007 28.6179 98.0859 29.065 98.0859 29.5312ZM40.1742 31.2891L38.2312 25.4602C38.114 25.1103 37.8898 24.806 37.5904 24.5903C37.2911 24.3746 36.9315 24.2583 36.5625 24.2578H34.8047V15.8203C34.8059 14.4221 35.3619 13.0815 36.3506 12.0928C37.3393 11.1041 38.6799 10.5481 40.0781 10.5469H79.9219C81.3201 10.5481 82.6607 11.1041 83.6494 12.0928C84.6381 13.0815 85.1941 14.4221 85.1953 15.8203V24.2578H83.4375C83.0685 24.2583 82.7089 24.3746 82.4096 24.5903C82.1102 24.806 81.886 25.1103 81.7688 25.4602L79.8258 31.2891H40.1742ZM27.7734 15.8203C27.7772 12.558 29.0747 9.43047 31.3815 7.1237C33.6883 4.81693 36.8159 3.51935 40.0781 3.51562H79.9219C83.1841 3.51935 86.3117 4.81693 88.6185 7.1237C90.9253 9.43047 92.2228 12.558 92.2266 15.8203V24.2578H88.7109V15.8203C88.7085 13.4901 87.7817 11.256 86.1339 9.60825C84.4862 7.96052 82.2521 7.03373 79.9219 7.03125H40.0781C37.7479 7.03373 35.5138 7.96052 33.8661 9.60825C32.2183 11.256 31.2915 13.4901 31.2891 15.8203V24.2578H27.7734V15.8203ZM21.9141 29.5312C21.9141 29.065 22.0993 28.6179 22.4289 28.2883C22.7586 27.9586 23.2057 27.7734 23.6719 27.7734H35.2945L36.4664 31.2891H21.9141V29.5312ZM3.51563 34.8047H11.3672V78.9656L3.51563 76.3172V34.8047ZM90.1805 85.1953H29.8195L14.8828 80.1562V34.8047H105.117V80.1562L90.1805 85.1953ZM116.484 76.3172L108.633 78.9656V34.8047H116.484V76.3172Z" fill="#B9B9B9"/>
<path d="M60 41.8359C56.4075 41.8359 52.8957 42.9012 49.9086 44.8971C46.9215 46.893 44.5934 49.7299 43.2186 53.0489C41.8438 56.368 41.4841 60.0202 42.185 63.5436C42.8858 67.0671 44.6158 70.3036 47.1561 72.8439C49.6964 75.3842 52.9329 77.1142 56.4564 77.815C59.9799 78.5159 63.632 78.1562 66.9511 76.7814C70.2701 75.4066 73.107 73.0785 75.1029 70.0914C77.0988 67.1043 78.1641 63.5925 78.1641 60C78.1585 55.1843 76.243 50.5674 72.8378 47.1622C69.4326 43.757 64.8157 41.8415 60 41.8359ZM60 74.6484C57.1028 74.6484 54.2707 73.7893 51.8618 72.1797C49.4528 70.5701 47.5753 68.2824 46.4666 65.6057C45.3579 62.9291 45.0678 59.9837 45.633 57.1422C46.1982 54.3007 47.5934 51.6906 49.642 49.642C51.6906 47.5934 54.3007 46.1982 57.1422 45.633C59.9838 45.0678 62.9291 45.3579 65.6057 46.4666C68.2824 47.5753 70.5702 49.4528 72.1797 51.8618C73.7893 54.2707 74.6484 57.1028 74.6484 60C74.6441 63.8837 73.0994 67.607 70.3532 70.3532C67.607 73.0994 63.8837 74.6441 60 74.6484Z" fill="#B9B9B9"/>
<path d="M65.7811 54.075L57.7537 62.189L54.217 58.6148C53.8872 58.2925 53.444 58.1126 52.9828 58.1141C52.5217 58.1155 52.0796 58.2981 51.7518 58.6225C51.424 58.9469 51.2368 59.3871 51.2306 59.8482C51.2244 60.3093 51.3996 60.7544 51.7186 61.0875L56.5045 65.925C56.6681 66.0898 56.8627 66.2206 57.0771 66.3099C57.2915 66.3992 57.5215 66.4451 57.7537 66.4451C57.986 66.4451 58.2159 66.3992 58.4303 66.3099C58.6447 66.2206 58.8393 66.0898 59.0029 65.925L68.2795 56.55C68.442 56.3859 68.5706 56.1915 68.658 55.9777C68.7453 55.764 68.7897 55.5351 68.7886 55.3042C68.7876 55.0733 68.741 54.8448 68.6516 54.6319C68.5623 54.419 68.4318 54.2258 68.2678 54.0633C68.1037 53.9007 67.9093 53.7721 67.6955 53.6848C67.4818 53.5974 67.2529 53.553 67.022 53.5541C66.7911 53.5552 66.5626 53.6017 66.3497 53.6911C66.1368 53.7805 65.9436 53.9109 65.7811 54.075Z" fill="#B9B9B9"/>
<path d="M88.7109 104.859V102.773H80.5078V104.859L84.6094 108.141L88.7109 104.859Z" fill="#FF033E"/>
<path d="M88.7109 92.2266H80.5078V99.2578H88.7109V92.2266Z" fill="#FF033E"/>
<path d="M60 100.43C61.0874 100.428 62.13 99.9959 62.8989 99.227C63.6678 98.4581 64.1003 97.4155 64.1016 96.3281V92.2266H55.8984V96.3281C55.8997 97.4155 56.3322 98.4581 57.1011 99.227C57.8701 99.9959 58.9126 100.428 60 100.43Z" fill="#FF033E"/>
<path d="M39.4922 104.859V102.773H31.2891V104.859L35.3906 108.141L39.4922 104.859Z" fill="#FF033E"/>
<path d="M92.2266 91.9265V105.703C92.2262 105.967 92.1668 106.227 92.0529 106.464C91.9389 106.702 91.7732 106.911 91.568 107.077L85.7086 111.764C85.3962 112.013 85.0087 112.148 84.6094 112.148C84.2101 112.148 83.8226 112.013 83.5102 111.764L77.6508 107.077C77.4456 106.911 77.2799 106.702 77.1659 106.464C77.052 106.227 76.9926 105.967 76.9922 105.703V92.2265H67.6172V96.3281C67.6172 98.3483 66.8147 100.286 65.3862 101.714C63.9577 103.143 62.0202 103.945 60 103.945C57.9798 103.945 56.0424 103.143 54.6139 101.714C53.1854 100.286 52.3828 98.3483 52.3828 96.3281V92.2265H43.0078V105.703C43.0074 105.967 42.9481 106.227 42.8341 106.464C42.7202 106.702 42.5545 106.911 42.3492 107.077L36.4899 111.764C36.1775 112.013 35.79 112.148 35.3906 112.148C34.9913 112.148 34.6038 112.013 34.2914 111.764L28.4321 107.077C28.2268 106.911 28.0611 106.702 27.9472 106.464C27.8332 106.227 27.7739 105.967 27.7735 105.703V91.9265L4.33596 84.014V118.233C4.33473 118.464 4.37928 118.694 4.46707 118.908C4.55485 119.123 4.68414 119.318 4.84749 119.482C5.01084 119.646 5.20504 119.776 5.41892 119.865C5.6328 119.954 5.86214 120 6.09378 120H113.906C114.372 120 114.82 119.815 115.149 119.485C115.479 119.155 115.664 118.708 115.664 118.242V84.0234L92.2266 91.9265Z" fill="#FF033E"/>
<path d="M39.4922 92.2266H31.2891V99.2578H39.4922V92.2266Z" fill="#FF033E"/>
</g>
<defs>
<clipPath id="clip0_209_8873">
<rect width="120" height="120" fill="white"/>
</clipPath>
</defs>
</svg>
