<svg width="120" height="120" viewBox="0 0 120 120" fill="none" xmlns="http://www.w3.org/2000/svg">
<g clip-path="url(#clip0_209_8883)">
<path d="M111.562 98.9062H8.4375C7.9713 98.9062 7.52419 99.0914 7.19454 99.4211C6.86489 99.7508 6.67969 100.198 6.67969 100.664V107.695C6.67969 108.162 6.86489 108.609 7.19454 108.938C7.52419 109.268 7.9713 109.453 8.4375 109.453H11.3672V118.242C11.3672 118.708 11.5524 119.155 11.882 119.485C12.2117 119.815 12.6588 120 13.125 120H106.875C107.341 120 107.788 119.815 108.118 119.485C108.448 119.155 108.633 118.708 108.633 118.242V109.453H111.562C112.029 109.453 112.476 109.268 112.805 108.938C113.135 108.609 113.32 108.162 113.32 107.695V100.664C113.32 100.198 113.135 99.7508 112.805 99.4211C112.476 99.0914 112.029 98.9062 111.562 98.9062ZM14.8828 109.453H34.8047V116.484H14.8828V109.453ZM81.6797 109.453V116.484H38.3203V109.453H81.6797ZM105.117 116.484H85.1953V109.453H105.117V116.484ZM109.805 105.938H10.1953V102.422H109.805V105.938Z" fill="#B9B9B9"/>
<path d="M118.242 0H1.75781C1.29161 0 0.844505 0.185198 0.514851 0.514851C0.185198 0.844505 0 1.29161 0 1.75781L0 8.78906C0 9.25526 0.185198 9.70237 0.514851 10.032C0.844505 10.3617 1.29161 10.5469 1.75781 10.5469H4.33594V60.3516C4.33594 60.8178 4.52113 61.2649 4.85079 61.5945C5.18044 61.9242 5.62755 62.1094 6.09375 62.1094H113.906C114.372 62.1094 114.82 61.9242 115.149 61.5945C115.479 61.2649 115.664 60.8178 115.664 60.3516V10.5469H118.242C118.708 10.5469 119.155 10.3617 119.485 10.032C119.815 9.70237 120 9.25526 120 8.78906V1.75781C120 1.29161 119.815 0.844505 119.485 0.514851C119.155 0.185198 118.708 0 118.242 0ZM112.148 58.5938H7.85156V10.5469H112.148V58.5938ZM116.484 7.03125H3.51562V3.51562H116.484V7.03125Z" fill="#B9B9B9"/>
<path d="M15.2579 50.8922C15.5468 51.2582 15.969 51.4948 16.432 51.5501C16.8951 51.6055 17.3611 51.4751 17.7282 51.1875L39.5368 34.0312L50.7657 47.1281C50.9232 47.3122 51.1171 47.4618 51.3351 47.5674C51.5531 47.673 51.7907 47.7324 52.0327 47.7419C52.2748 47.7513 52.5163 47.7107 52.7419 47.6224C52.9675 47.5341 53.1724 47.4001 53.3438 47.2289L78.1641 22.4086V32.2266C78.1641 32.6928 78.3493 33.1399 78.679 33.4695C79.0086 33.7992 79.4557 33.9844 79.922 33.9844C80.3882 33.9844 80.8353 33.7992 81.1649 33.4695C81.4946 33.1399 81.6798 32.6928 81.6798 32.2266V18.1641C81.6798 17.6979 81.4946 17.2508 81.1649 16.9211C80.8353 16.5914 80.3882 16.4062 79.922 16.4062H65.8595C65.3933 16.4062 64.9461 16.5914 64.6165 16.9211C64.2868 17.2508 64.1016 17.6979 64.1016 18.1641C64.1016 18.6303 64.2868 19.0774 64.6165 19.407C64.9461 19.7367 65.3933 19.9219 65.8595 19.9219H75.6774L52.2001 43.3992L41.1095 30.4687C40.8139 30.1251 40.3971 29.9088 39.946 29.8652C39.4949 29.8215 39.0443 29.9538 38.6884 30.2344L15.5532 48.4219C15.1872 48.7108 14.9506 49.133 14.8953 49.596C14.8399 50.059 14.9703 50.5251 15.2579 50.8922Z" fill="#B9B9B9"/>
<path d="M81.6797 49.2188V46.2891C81.6797 45.8229 81.4945 45.3758 81.1648 45.0461C80.8352 44.7164 80.3881 44.5312 79.9219 44.5312C79.4557 44.5312 79.0086 44.7164 78.6789 45.0461C78.3493 45.3758 78.1641 45.8229 78.1641 46.2891V49.2188H75.2344C74.7682 49.2188 74.3211 49.4039 73.9914 49.7336C73.6618 50.0633 73.4766 50.5104 73.4766 50.9766C73.4766 51.4428 73.6618 51.8899 73.9914 52.2195C74.3211 52.5492 74.7682 52.7344 75.2344 52.7344H103.359C103.826 52.7344 104.273 52.5492 104.602 52.2195C104.932 51.8899 105.117 51.4428 105.117 50.9766C105.117 50.5104 104.932 50.0633 104.602 49.7336C104.273 49.4039 103.826 49.2188 103.359 49.2188H100.43V32.2266C100.43 31.7604 100.244 31.3133 99.9148 30.9836C99.5852 30.6539 99.1381 30.4688 98.6719 30.4688C98.2057 30.4688 97.7586 30.6539 97.4289 30.9836C97.0993 31.3133 96.9141 31.7604 96.9141 32.2266V49.2188H91.0547V39.2578C91.0547 38.7916 90.8695 38.3445 90.5398 38.0149C90.2102 37.6852 89.7631 37.5 89.2969 37.5C88.8307 37.5 88.3836 37.6852 88.0539 38.0149C87.7243 38.3445 87.5391 38.7916 87.5391 39.2578V49.2188H81.6797Z" fill="#B9B9B9"/>
<path d="M60 83.6719C64.8541 83.6719 68.7891 79.7369 68.7891 74.8828C68.7891 70.0287 64.8541 66.0938 60 66.0938C55.1459 66.0938 51.2109 70.0287 51.2109 74.8828C51.2109 79.7369 55.1459 83.6719 60 83.6719Z" fill="#FF033E"/>
<path d="M69.9445 82.1155C68.8051 83.686 67.31 84.9643 65.5815 85.8458C63.853 86.7273 61.9403 87.1868 60 87.1868C58.0597 87.1868 56.147 86.7273 54.4185 85.8458C52.69 84.9643 51.1949 83.686 50.0555 82.1155C48.0868 83.3024 46.4577 84.9772 45.3257 86.978C44.1937 88.9788 43.5972 91.2378 43.5938 93.5366V95.3905H76.4062V93.5366C76.4028 91.2378 75.8063 88.9788 74.6743 86.978C73.5423 84.9772 71.9132 83.3024 69.9445 82.1155Z" fill="#FF033E"/>
<path d="M36.798 85.4275C35.8016 86.9076 34.4567 88.1202 32.8816 88.9586C31.3065 89.797 29.5495 90.2354 27.7652 90.2354C25.9809 90.2354 24.224 89.797 22.6489 88.9586C21.0738 88.1202 19.7289 86.9076 18.7324 85.4275C17.3532 86.4505 16.2322 87.7819 15.459 89.3152C14.6858 90.8486 14.2818 92.5415 14.2793 94.2587V95.3908H41.2512V94.2587C41.2486 92.5415 40.8447 90.8486 40.0715 89.3152C39.2983 87.7819 38.1773 86.4505 36.798 85.4275Z" fill="#FF033E"/>
<path d="M27.7734 86.7188C31.8509 86.7188 35.1562 83.4134 35.1562 79.3359C35.1562 75.2585 31.8509 71.9531 27.7734 71.9531C23.696 71.9531 20.3906 75.2585 20.3906 79.3359C20.3906 83.4134 23.696 86.7188 27.7734 86.7188Z" fill="#FF033E"/>
<path d="M101.251 85.4275C100.255 86.9076 98.9098 88.1202 97.3347 88.9586C95.7596 89.797 94.0027 90.2354 92.2184 90.2354C90.434 90.2354 88.6771 89.797 87.102 88.9586C85.5269 88.1202 84.182 86.9076 83.1855 85.4275C81.8063 86.4505 80.6853 87.7819 79.9121 89.3152C79.1389 90.8486 78.735 92.5415 78.7324 94.2587V95.3908H105.704V94.2587C105.702 92.5415 105.298 90.8486 104.525 89.3152C103.751 87.7819 102.63 86.4505 101.251 85.4275Z" fill="#FF033E"/>
<path d="M92.2266 86.7188C96.304 86.7188 99.6094 83.4134 99.6094 79.3359C99.6094 75.2585 96.304 71.9531 92.2266 71.9531C88.1491 71.9531 84.8438 75.2585 84.8438 79.3359C84.8438 83.4134 88.1491 86.7188 92.2266 86.7188Z" fill="#FF033E"/>
</g>
<defs>
<clipPath id="clip0_209_8883">
<rect width="120" height="120" fill="white"/>
</clipPath>
</defs>
</svg>
