<svg width="120" height="120" viewBox="0 0 120 120" fill="none" xmlns="http://www.w3.org/2000/svg">
<g clip-path="url(#clip0_209_8894)">
<path d="M118.242 95.7423H111.562V92.8782C111.562 84.9962 106.01 78.3798 98.5828 76.6736C100.109 75.178 101.156 73.2617 101.589 71.1689C102.022 69.0761 101.822 66.9017 101.015 64.9231C100.207 62.9444 98.8283 61.2512 97.0544 60.0593C95.2805 58.8674 93.1918 58.2308 91.0547 58.2308C88.9175 58.2308 86.8288 58.8674 85.0549 60.0593C83.281 61.2512 81.9023 62.9444 81.0947 64.9231C80.287 66.9017 80.087 69.0761 80.5201 71.1689C80.9532 73.2617 81.9999 75.178 83.5266 76.6736C76.0992 78.3798 70.5469 84.9962 70.5469 92.8782V95.7423H1.75781C1.29161 95.7423 0.844505 95.9275 0.514851 96.2572C0.185198 96.5868 0 97.0339 0 97.5001L0 104.531C0 104.998 0.185198 105.445 0.514851 105.774C0.844505 106.104 1.29161 106.289 1.75781 106.289H6.67969V118.242C6.67969 118.709 6.86488 119.156 7.19454 119.485C7.52419 119.815 7.9713 120 8.4375 120H111.562C112.029 120 112.476 119.815 112.805 119.485C113.135 119.156 113.32 118.709 113.32 118.242V106.289H118.242C118.708 106.289 119.155 106.104 119.485 105.774C119.815 105.445 120 104.998 120 104.531V97.5001C120 97.0339 119.815 96.5868 119.485 96.2572C119.155 95.9275 118.708 95.7423 118.242 95.7423ZM91.0547 61.7579C92.4871 61.7579 93.8873 62.1827 95.0782 62.9785C96.2692 63.7742 97.1975 64.9053 97.7456 66.2287C98.2937 67.552 98.4372 69.0082 98.1577 70.413C97.8783 71.8178 97.1885 73.1083 96.1757 74.1211C95.1628 75.134 93.8724 75.8237 92.4676 76.1032C91.0627 76.3826 89.6066 76.2392 88.2832 75.691C86.9599 75.1429 85.8288 74.2146 85.033 73.0237C84.2372 71.8327 83.8125 70.4325 83.8125 69.0001C83.8144 67.0799 84.578 65.2389 85.9357 63.8812C87.2935 62.5234 89.1345 61.7598 91.0547 61.7579ZM74.0625 92.8782C74.0625 85.6431 80.0039 79.7532 87.3047 79.7532H94.8047C102.105 79.7532 108.047 85.6384 108.047 92.8782V95.7423H74.0625V92.8782ZM10.1953 106.289H27.7734V116.484H10.1953V106.289ZM88.7109 106.289V116.484H31.2891V106.289H88.7109ZM109.805 116.484H92.2266V106.289H109.805V116.484ZM116.484 102.774H3.51562V99.2579H116.484V102.774Z" fill="#B9B9B9"/>
<path d="M113.555 0H69.0234C67.3148 0.00247989 65.6769 0.682334 64.4687 1.89053C63.2605 3.09872 62.5806 4.73667 62.5781 6.44531V47.8125C62.5769 48.8333 62.893 49.8292 63.4828 50.6624C64.0726 51.4955 64.9068 52.1247 65.87 52.4628C66.8332 52.8008 67.8777 52.831 68.8588 52.5492C69.8399 52.2674 70.7091 51.6875 71.3461 50.8898L79.2422 41.0156H113.555C115.263 41.0131 116.901 40.3333 118.109 39.1251C119.318 37.9169 119.998 36.279 120 34.5703V6.44531C119.998 4.73667 119.318 3.09872 118.109 1.89053C116.901 0.682334 115.263 0.00247989 113.555 0ZM116.484 34.5703C116.483 35.3469 116.174 36.0914 115.625 36.6405C115.076 37.1897 114.331 37.4988 113.555 37.5H72.232C71.7658 37.5 71.3187 37.6852 70.9891 38.0149C70.6594 38.3445 70.4742 38.7916 70.4742 39.2578C70.4742 39.724 70.6594 40.1711 70.9891 40.5008C71.3187 40.8304 71.7658 41.0156 72.232 41.0156H74.7422L68.6016 48.6914C68.4199 48.9204 68.1714 49.087 67.8906 49.1682C67.6098 49.2494 67.3107 49.2411 67.0349 49.1444C66.7591 49.0477 66.5202 48.8675 66.3515 48.6288C66.1829 48.3901 66.0928 48.1048 66.0938 47.8125V6.44531C66.095 5.66869 66.4041 4.92423 66.9532 4.37508C67.5024 3.82593 68.2468 3.51686 69.0234 3.51562H113.555C114.331 3.51686 115.076 3.82593 115.625 4.37508C116.174 4.92423 116.483 5.66869 116.484 6.44531V34.5703Z" fill="#B9B9B9"/>
<path d="M108.867 28.125H80.7422C80.276 28.125 79.8289 28.3102 79.4992 28.6399C79.1696 28.9695 78.9844 29.4166 78.9844 29.8828C78.9844 30.349 79.1696 30.7961 79.4992 31.1258C79.8289 31.4554 80.276 31.6406 80.7422 31.6406H108.867C109.333 31.6406 109.78 31.4554 110.11 31.1258C110.44 30.7961 110.625 30.349 110.625 29.8828C110.625 29.4166 110.44 28.9695 110.11 28.6399C109.78 28.3102 109.333 28.125 108.867 28.125Z" fill="#B9B9B9"/>
<path d="M73.7109 12.8906H99.4922C99.9584 12.8906 100.405 12.7054 100.735 12.3758C101.065 12.0461 101.25 11.599 101.25 11.1328C101.25 10.6666 101.065 10.2195 100.735 9.88985C100.405 9.5602 99.9584 9.375 99.4922 9.375H73.7109C73.2447 9.375 72.7976 9.5602 72.468 9.88985C72.1383 10.2195 71.9531 10.6666 71.9531 11.1328C71.9531 11.599 72.1383 12.0461 72.468 12.3758C72.7976 12.7054 73.2447 12.8906 73.7109 12.8906Z" fill="#B9B9B9"/>
<path d="M108.867 9.375H106.523C106.057 9.375 105.61 9.5602 105.28 9.88985C104.951 10.2195 104.766 10.6666 104.766 11.1328C104.766 11.599 104.951 12.0461 105.28 12.3758C105.61 12.7054 106.057 12.8906 106.523 12.8906H108.867C109.333 12.8906 109.78 12.7054 110.11 12.3758C110.44 12.0461 110.625 11.599 110.625 11.1328C110.625 10.6666 110.44 10.2195 110.11 9.88985C109.78 9.5602 109.333 9.375 108.867 9.375Z" fill="#B9B9B9"/>
<path d="M108.867 18.75H73.7109C73.2447 18.75 72.7976 18.9352 72.468 19.2649C72.1383 19.5945 71.9531 20.0416 71.9531 20.5078C71.9531 20.974 72.1383 21.4211 72.468 21.7508C72.7976 22.0804 73.2447 22.2656 73.7109 22.2656H108.867C109.333 22.2656 109.78 22.0804 110.11 21.7508C110.44 21.4211 110.625 20.974 110.625 20.5078C110.625 20.0416 110.44 19.5945 110.11 19.2649C109.78 18.9352 109.333 18.75 108.867 18.75Z" fill="#B9B9B9"/>
<path d="M51.7969 73.4766H68.2031C70.2233 73.4766 72.1608 72.674 73.5893 71.2455C75.0178 69.817 75.8203 67.8796 75.8203 65.8594C75.8203 63.8392 75.0178 61.9017 73.5893 60.4732C72.1608 59.0447 70.2233 58.2422 68.2031 58.2422H51.7969C49.7767 58.2422 47.8392 59.0447 46.4107 60.4732C44.9822 61.9017 44.1797 63.8392 44.1797 65.8594C44.1797 67.8796 44.9822 69.817 46.4107 71.2455C47.8392 72.674 49.7767 73.4766 51.7969 73.4766ZM51.7969 61.7578H68.2031C69.2909 61.7578 70.3342 62.1899 71.1034 62.9591C71.8726 63.7283 72.3047 64.7716 72.3047 65.8594C72.3047 66.9472 71.8726 67.9904 71.1034 68.7596C70.3342 69.5288 69.2909 69.9609 68.2031 69.9609H51.7969C50.7091 69.9609 49.6658 69.5288 48.8966 68.7596C48.1274 67.9904 47.6953 66.9472 47.6953 65.8594C47.6953 64.7716 48.1274 63.7283 48.8966 62.9591C49.6658 62.1899 50.7091 61.7578 51.7969 61.7578Z" fill="#B9B9B9"/>
<path d="M50.9766 0H6.44531C4.73667 0.00247989 3.09872 0.682334 1.89053 1.89053C0.682334 3.09872 0.00247989 4.73667 0 6.44531L0 34.5703C0.00247989 36.279 0.682334 37.9169 1.89053 39.1251C3.09872 40.3333 4.73667 41.0131 6.44531 41.0156H47.768C48.2342 41.0156 48.6813 41.2008 49.0109 41.5305C49.3406 41.8601 49.5258 42.3072 49.5258 42.7734C49.5258 43.2396 49.3406 43.6867 49.0109 44.0164C48.6813 44.3461 48.2342 44.5312 47.768 44.5312H43.5703L48.6539 50.8875C49.2907 51.685 50.1598 52.2648 51.1406 52.5467C52.1215 52.8286 53.1658 52.7986 54.1289 52.4608C55.092 52.123 55.9262 51.4943 56.5162 50.6615C57.1062 49.8287 57.4227 48.8331 57.4219 47.8125V6.44531C57.4194 4.73667 56.7395 3.09872 55.5313 1.89053C54.3232 0.682334 52.6852 0.00247989 50.9766 0ZM11.1328 9.375H13.4766C13.9428 9.375 14.3899 9.5602 14.7195 9.88985C15.0492 10.2195 15.2344 10.6666 15.2344 11.1328C15.2344 11.599 15.0492 12.0461 14.7195 12.3758C14.3899 12.7054 13.9428 12.8906 13.4766 12.8906H11.1328C10.6666 12.8906 10.2195 12.7054 9.88985 12.3758C9.5602 12.0461 9.375 11.599 9.375 11.1328C9.375 10.6666 9.5602 10.2195 9.88985 9.88985C10.2195 9.5602 10.6666 9.375 11.1328 9.375ZM39.2578 31.6406H11.1328C10.6666 31.6406 10.2195 31.4554 9.88985 31.1258C9.5602 30.7961 9.375 30.349 9.375 29.8828C9.375 29.4166 9.5602 28.9695 9.88985 28.6399C10.2195 28.3102 10.6666 28.125 11.1328 28.125H39.2578C39.724 28.125 40.1711 28.3102 40.5008 28.6399C40.8304 28.9695 41.0156 29.4166 41.0156 29.8828C41.0156 30.349 40.8304 30.7961 40.5008 31.1258C40.1711 31.4554 39.724 31.6406 39.2578 31.6406ZM46.2891 22.2656H11.1328C10.6666 22.2656 10.2195 22.0804 9.88985 21.7508C9.5602 21.4211 9.375 20.974 9.375 20.5078C9.375 20.0416 9.5602 19.5945 9.88985 19.2649C10.2195 18.9352 10.6666 18.75 11.1328 18.75H46.2891C46.7553 18.75 47.2024 18.9352 47.532 19.2649C47.8617 19.5945 48.0469 20.0416 48.0469 20.5078C48.0469 20.974 47.8617 21.4211 47.532 21.7508C47.2024 22.0804 46.7553 22.2656 46.2891 22.2656ZM46.2891 12.8906H20.5078C20.0416 12.8906 19.5945 12.7054 19.2649 12.3758C18.9352 12.0461 18.75 11.599 18.75 11.1328C18.75 10.6666 18.9352 10.2195 19.2649 9.88985C19.5945 9.5602 20.0416 9.375 20.5078 9.375H46.2891C46.7553 9.375 47.2024 9.5602 47.532 9.88985C47.8617 10.2195 48.0469 10.6666 48.0469 11.1328C48.0469 11.599 47.8617 12.0461 47.532 12.3758C47.2024 12.7054 46.7553 12.8906 46.2891 12.8906Z" fill="#FF033E"/>
<path d="M26.8672 79.7578C28.9949 79.7578 31.0748 79.1269 32.8439 77.9448C34.613 76.7627 35.9919 75.0826 36.8061 73.1168C37.6203 71.1511 37.8334 68.9881 37.4183 66.9013C37.0032 64.8144 35.9786 62.8976 34.4741 61.3931C32.9696 59.8886 31.0527 58.864 28.9659 58.4489C26.8791 58.0338 24.7161 58.2468 22.7503 59.0611C20.7846 59.8753 19.1045 61.2542 17.9224 63.0233C16.7403 64.7924 16.1094 66.8723 16.1094 69C16.1156 71.8512 17.251 74.584 19.2671 76.6001C21.2832 78.6162 24.0159 79.7516 26.8672 79.7578Z" fill="#FF033E"/>
<path d="M47.3613 92.2266C47.2382 89.2183 46.3012 86.2998 44.6503 83.7821C42.9993 81.2644 40.6962 79.2417 37.9863 77.9297C36.6513 79.5945 34.9594 80.9381 33.0356 81.8614C31.1117 82.7847 29.005 83.264 26.8711 83.264C24.7372 83.264 22.6305 82.7847 20.7066 81.8614C18.7827 80.9381 17.0909 79.5945 15.7559 77.9297C13.0471 79.2432 10.745 81.2662 9.0942 83.7836C7.44343 86.301 6.50575 89.2188 6.38086 92.2266H47.3613Z" fill="#FF033E"/>
</g>
<defs>
<clipPath id="clip0_209_8894">
<rect width="120" height="120" fill="white"/>
</clipPath>
</defs>
</svg>
