<svg width="120" height="120" viewBox="0 0 120 120" fill="none" xmlns="http://www.w3.org/2000/svg">
<g clip-path="url(#clip0_209_8905)">
<path d="M119.984 68.7914C119.984 68.7726 119.984 68.7562 119.984 68.7375C119.973 68.668 119.958 68.5992 119.94 68.5312C119.94 68.5312 119.94 68.5312 119.94 68.5148C119.916 68.4415 119.889 68.3696 119.858 68.2992C119.858 68.2875 119.846 68.2734 119.839 68.2594C119.809 68.1998 119.776 68.1419 119.74 68.0859C119.736 68.0761 119.73 68.0666 119.724 68.0578C119.684 67.995 119.639 67.9354 119.59 67.8797L119.555 67.8422C119.513 67.7953 119.468 67.7507 119.422 67.7086L119.389 67.6805C119.333 67.6336 119.272 67.5891 119.211 67.5469L119.171 67.5234C119.111 67.4865 119.048 67.4536 118.983 67.425H118.969H118.948L84.1411 52.0101C83.7204 51.8547 83.2562 51.8658 82.8435 52.0414C82.4308 52.217 82.1008 52.5437 81.9211 52.9546C81.7414 53.3655 81.7256 53.8296 81.8769 54.2518C82.0282 54.674 82.3351 55.0225 82.7349 55.2258L113.907 69.0234L60.0005 92.8828L6.09424 69.0234L37.2661 55.2258C37.6659 55.0225 37.9728 54.674 38.1241 54.2518C38.2754 53.8296 38.2595 53.3655 38.0798 52.9546C37.9001 52.5437 37.5702 52.217 37.1575 52.0414C36.7448 51.8658 36.2805 51.8547 35.8599 52.0101L1.04581 67.4156C0.735043 67.5541 0.471062 67.7796 0.285804 68.065C0.100547 68.3503 0.00195312 68.6832 0.00195312 69.0234C0.00195313 69.3636 0.100547 69.6966 0.285804 69.9819C0.471062 70.2672 0.735043 70.4928 1.04581 70.6312L17.2177 77.7937V99.4922C17.2174 99.829 17.314 100.159 17.4961 100.442C17.6781 100.726 17.9378 100.951 18.2442 101.091L59.2599 119.841C59.4894 119.946 59.7388 120 59.9911 120C60.2435 120 60.4929 119.946 60.7224 119.841L101.738 101.091C102.044 100.951 102.304 100.726 102.486 100.442C102.668 100.159 102.765 99.829 102.765 99.4922V77.7937L116.485 71.7187V90.4687C116.485 90.9349 116.67 91.382 117 91.7117C117.329 92.0414 117.776 92.2265 118.243 92.2265C118.709 92.2265 119.156 92.0414 119.486 91.7117C119.815 91.382 120 90.9349 120 90.4687V69.0234C120 68.9458 119.994 68.8683 119.984 68.7914ZM60.0005 116.309L20.7427 98.3625V92.8547L59.2692 110.466C59.4987 110.571 59.7481 110.625 60.0005 110.625C60.2528 110.625 60.5023 110.571 60.7317 110.466L99.2583 92.8547V98.3625L60.0005 116.309ZM99.2583 88.9875L60.0005 106.934L20.7427 88.9875V79.35L59.2974 96.4125C59.5219 96.5114 59.7645 96.5625 60.0099 96.5625C60.2552 96.5625 60.4978 96.5114 60.7224 96.4125L99.2677 79.35L99.2583 88.9875Z" fill="#B9B9B9"/>
<path d="M41.8359 52.7109V72.0703C41.8364 72.3779 41.9177 72.68 42.0715 72.9464C42.2254 73.2128 42.4464 73.4342 42.7126 73.5884C42.9788 73.7426 43.2808 73.8243 43.5884 73.8252C43.896 73.8261 44.1985 73.7463 44.4656 73.5938L60 64.7203L75.5344 73.5938C75.8017 73.7464 76.1044 73.8262 76.4122 73.8252C76.72 73.8242 77.0222 73.7423 77.2884 73.5878C77.5547 73.4333 77.7757 73.2116 77.9294 72.9449C78.083 72.6782 78.164 72.3758 78.1641 72.068V52.7109C72.8795 56.5349 66.523 58.5936 60 58.5936C53.477 58.5936 47.1205 56.5349 41.8359 52.7109Z" fill="#FF033E"/>
<path d="M60 10.5469C56.6393 10.5469 53.354 11.5434 50.5597 13.4106C47.7653 15.2777 45.5874 17.9315 44.3013 21.0364C43.0152 24.1413 42.6787 27.5579 43.3343 30.8541C43.99 34.1502 45.6083 37.178 47.9847 39.5544C50.3611 41.9308 53.3888 43.5491 56.685 44.2048C59.9812 44.8604 63.3977 44.5239 66.5026 43.2378C69.6075 41.9517 72.2614 39.7738 74.1285 36.9794C75.9956 34.1851 76.9922 30.8998 76.9922 27.5391C76.9872 23.034 75.1954 18.7148 72.0098 15.5293C68.8242 12.3437 64.5051 10.5518 60 10.5469ZM69.4945 22.8727L58.6711 34.5914C58.5066 34.7689 58.3071 34.9105 58.0853 35.0073C57.8635 35.1042 57.6241 35.1541 57.382 35.1541C57.14 35.1541 56.9006 35.1042 56.6788 35.0073C56.457 34.9105 56.2575 34.7689 56.093 34.5914L50.5055 28.5469C50.3377 28.3797 50.2055 28.1804 50.1167 27.9608C50.0279 27.7413 49.9844 27.5061 49.9888 27.2693C49.9931 27.0325 50.0453 26.799 50.1422 26.5829C50.239 26.3668 50.3785 26.1725 50.5523 26.0116C50.7261 25.8508 50.9307 25.7267 51.1536 25.6469C51.3766 25.567 51.6134 25.5331 51.8498 25.547C52.0862 25.5609 52.3173 25.6225 52.5294 25.728C52.7414 25.8335 52.9299 25.9808 53.0836 26.1609L57.375 30.8086L66.907 20.4961C67.2285 20.1757 67.6615 19.9921 68.1154 19.9837C68.5692 19.9753 69.0087 20.1428 69.3418 20.4511C69.6749 20.7594 69.8759 21.1846 69.9026 21.6377C69.9293 22.0908 69.7797 22.5367 69.4852 22.882L69.4945 22.8727Z" fill="#FF033E"/>
<path d="M60 0C54.5533 0 49.2289 1.61514 44.7001 4.64117C40.1714 7.6672 36.6416 11.9682 34.5572 17.0003C32.4729 22.0324 31.9275 27.5696 32.9901 32.9117C34.0527 38.2537 36.6755 43.1607 40.527 47.0121C44.3784 50.8635 49.2854 53.4864 54.6274 54.549C59.9695 55.6116 65.5066 55.0662 70.5388 52.9818C75.5709 50.8975 79.8719 47.3677 82.8979 42.8389C85.9239 38.3102 87.5391 32.9858 87.5391 27.5391C87.531 20.2377 84.627 13.2377 79.4642 8.07491C74.3013 2.91208 67.3013 0.0080647 60 0ZM60 48.0469C55.9439 48.0469 51.979 46.8441 48.6065 44.5907C45.234 42.3373 42.6055 39.1344 41.0533 35.3871C39.5011 31.6397 39.095 27.5163 39.8863 23.5382C40.6775 19.5601 42.6307 15.9059 45.4988 13.0378C48.3669 10.1698 52.021 8.2166 55.9991 7.4253C59.9773 6.634 64.1007 7.04013 67.848 8.59231C71.5953 10.1445 74.7982 12.773 77.0516 16.1455C79.3051 19.518 80.5078 23.483 80.5078 27.5391C80.5016 32.9762 78.339 38.1888 74.4944 42.0334C70.6498 45.878 65.4371 48.0407 60 48.0469Z" fill="#FF033E"/>
</g>
<defs>
<clipPath id="clip0_209_8905">
<rect width="120" height="120" fill="white"/>
</clipPath>
</defs>
</svg>
