<svg width="343" height="401" viewBox="0 0 343 401" fill="none" xmlns="http://www.w3.org/2000/svg">
<path d="M342.597 0H322.584V230.032C322.584 234.488 322.3 238.874 321.945 243.26C315.345 320.361 250.766 380.911 171.709 380.911C92.6519 380.911 27.5045 319.937 21.3304 242.411C20.9755 238.308 20.7626 234.205 20.7626 230.032V19.9474H161.632V120.25H262.191V220.695H161.632V340.875H181.786V240.642H282.275V100.303H181.786V0H0.75V230.032C0.75 233.71 0.75 237.601 0.9629 241.208C6.56927 330.406 80.8714 401 171.78 401C262.688 401 336.919 330.406 342.597 241.208C342.81 237.53 342.739 233.781 342.739 230.032V0H342.597Z" fill="#ECECEC"/>
</svg>
