<svg width="575" height="674" viewBox="0 0 575 674" fill="none" xmlns="http://www.w3.org/2000/svg">
<path d="M574.707 0.0556641H541.12V386.131C541.12 393.611 540.643 400.971 540.048 408.332C528.971 537.736 420.587 639.36 287.905 639.36C155.223 639.36 45.8856 537.024 35.5235 406.907C34.928 400.022 34.5707 393.136 34.5707 386.131V33.5346H270.992V201.879H439.762V370.46H270.992V572.165H304.818V403.939H473.469V168.4H304.818V0.0556641H0.983398V386.131C0.983398 392.305 0.983398 398.834 1.34071 404.889C10.7499 554.594 135.452 673.076 288.024 673.076C440.596 673.076 565.179 554.594 574.707 404.889C575.064 398.716 574.945 392.424 574.945 386.131V0.0556641H574.707Z" fill="#EEEEEE"/>
</svg>
