<svg width="44" height="52" viewBox="0 0 44 52" fill="none" xmlns="http://www.w3.org/2000/svg">
<path d="M43.9803 0H41.4056V29.8296C41.4056 30.4075 41.369 30.9762 41.3234 31.5449C40.4743 41.5431 32.1658 49.395 21.9947 49.395C11.8236 49.395 3.44209 41.4881 2.64776 31.4348C2.60211 30.9028 2.57472 30.3708 2.57472 29.8296V2.5867H20.6982V15.5936H33.6357V28.6188H20.6982V44.2032H23.2912V31.2055H36.2196V13.0069H23.2912V0H0V29.8296C0 30.3066 0 30.8111 0.0273907 31.2789C0.748678 42.8457 10.308 52 22.0038 52C33.6997 52 43.2499 42.8457 43.9803 31.2789C44.0077 30.8019 43.9985 30.3158 43.9985 29.8296V0H43.9803Z" fill="#FF033E"/>
</svg>
