<svg width="321" height="80" viewBox="0 0 321 80" fill="none" xmlns="http://www.w3.org/2000/svg">
<g clip-path="url(#clip0_44_1996)">
<path d="M67.1877 1.37305H63.2543V46.4771C63.2543 47.3508 63.1985 48.2108 63.1288 49.0707C61.8316 64.1886 49.1389 76.061 33.6008 76.061C18.0627 76.061 5.25841 64.1054 4.04493 48.9042C3.97519 48.0998 3.93334 47.2954 3.93334 46.4771V5.28428H31.6202V24.9514H51.3845V44.6463H31.6202V68.2108H35.5814V48.5575H55.3318V21.0402H35.5814V1.37305H0V46.4771C0 47.1983 0 47.9611 0.0418441 48.6685C1.14374 66.1581 15.7473 80 33.6148 80C51.4822 80 66.0718 66.1581 67.1877 48.6685C67.2295 47.9472 67.2156 47.2122 67.2156 46.4771V1.37305H67.1877Z" fill="#FF033E"/>
<path d="M83.0327 22.552V5.31201H87.0219L92.364 12.5797L97.4131 5.31201H101.151V22.5381H97.19V11.5533L92.364 18.2801H91.7921L86.994 11.6366V22.5381H83.0327V22.552Z" fill="white"/>
<path d="M106.13 22.552V5.31201H117.889V9.00133H110.092V12.0249H117.149V15.7142H110.092V18.8349H118.126V22.5242H106.13V22.552Z" fill="white"/>
<path d="M121.571 25.5062V18.8627H123.426C123.901 18.2524 124.417 17.0458 124.933 15.2427C125.477 13.4258 125.798 11.2483 125.923 8.7656L126.076 5.32593H137.388V18.8488H139.746V25.4924H136.035V22.5381H125.295V25.4924H121.585L121.571 25.5062ZM129.647 11.914C129.522 13.3148 129.257 14.7434 128.852 16.1442C128.448 17.5451 128.113 18.4327 127.792 18.8488H133.441V9.00138H129.926L129.647 11.9001V11.914Z" fill="white"/>
<path d="M147.64 22.5517H144.181V5.31177H148.142V16.0191L155.813 5.31177H159.272V22.5378H155.311V11.8305L147.64 22.5378V22.5517Z" fill="white"/>
<path d="M165.145 22.552V5.31201H169.106V18.8488H175.048V5.31201H179.009V18.8488H181.366V25.4923H177.656V22.5381H165.158L165.145 22.552Z" fill="white"/>
<path d="M189.554 22.552H186.095V5.31201H190.056V16.0194L197.727 5.31201H201.187V22.5381H197.225V11.8307L189.554 22.5381V22.552Z" fill="white"/>
<path d="M217.924 22.552V15.6033H211.02V22.552H207.059V5.31201H211.02V11.914H217.924V5.31201H221.885V22.5381H217.924V22.552Z" fill="white"/>
<path d="M241.245 20.8459C240.729 21.4423 239.934 21.9278 238.888 22.3023C237.842 22.6767 236.754 22.8432 235.596 22.8432C232.904 22.8432 230.714 22.0249 229.041 20.4021C227.353 18.7516 226.516 16.6157 226.516 13.925C226.516 11.2343 227.311 9.19546 228.887 7.51724C230.477 5.83901 232.695 5.00684 235.568 5.00684C237.772 5.00684 239.781 5.74193 240.869 6.80989L239.111 9.76412C237.953 9.05677 236.754 8.71003 235.568 8.71003C234.16 8.71003 232.988 9.18159 232.081 10.0831C231.175 10.9846 230.714 12.2745 230.714 13.925C230.714 15.4507 231.203 16.7128 232.179 17.6837C233.141 18.6407 234.411 19.14 235.959 19.14C237.34 19.14 238.609 18.7239 239.725 17.8778L241.231 20.8321L241.245 20.8459Z" fill="white"/>
<path d="M267.132 22.552H263.673V5.31201H267.635V16.0194L275.306 5.31201H278.765V22.5381H274.804V11.8307L267.132 22.5381V22.552Z" fill="white"/>
<path d="M287.469 22.552H284.01V5.31201H287.971V16.0194L295.642 5.31201H299.102V22.5381H295.14V11.8307L287.469 22.5381V22.552Z" fill="white"/>
<path d="M101.695 34.3549C103.411 32.6628 105.629 31.7891 108.349 31.7891C111.068 31.7891 113.244 32.6074 114.96 34.2301C116.689 35.8529 117.554 38.0165 117.554 40.7072C117.554 43.3979 116.689 45.4368 114.932 47.1011C113.202 48.7794 110.999 49.6115 108.349 49.6115C105.698 49.6115 103.453 48.7932 101.709 47.1705C100.008 45.5477 99.1289 43.3841 99.1289 40.6934C99.1289 38.1552 99.9658 36.0332 101.681 34.3411L101.695 34.3549ZM104.82 44.4243C105.782 45.4368 106.968 45.9222 108.363 45.9222C109.953 45.9222 111.18 45.4229 112.045 44.4659C112.91 43.4812 113.356 42.2329 113.356 40.7072C113.356 39.1816 112.882 37.9056 111.919 36.9347C110.957 35.9638 109.771 35.4784 108.349 35.4784C106.926 35.4784 105.698 35.9777 104.764 36.9347C103.815 37.8917 103.355 39.1538 103.355 40.7072C103.355 42.2606 103.843 43.4118 104.82 44.4243Z" fill="white"/>
<path d="M148.267 49.3342V35.7975H142.2V49.3342H138.239V32.1082H152.229V49.3342H148.267Z" fill="white"/>
<path d="M158.52 34.3549C160.235 32.6628 162.453 31.7891 165.173 31.7891C167.893 31.7891 170.069 32.6074 171.784 34.2301C173.514 35.8529 174.378 38.0165 174.378 40.7072C174.378 43.3979 173.514 45.4368 171.756 47.1011C170.027 48.7794 167.823 49.6115 165.173 49.6115C162.523 49.6115 160.277 48.7932 158.534 47.1705C156.832 45.5477 155.953 43.3841 155.953 40.6934C155.953 38.1552 156.79 36.0332 158.506 34.3411L158.52 34.3549ZM161.644 44.4243C162.606 45.4368 163.792 45.9222 165.187 45.9222C166.777 45.9222 168.004 45.4229 168.869 44.4659C169.734 43.4812 170.18 42.2329 170.18 40.7072C170.18 39.1816 169.706 37.9056 168.743 36.9347C167.781 35.9638 166.595 35.4784 165.173 35.4784C163.75 35.4784 162.523 35.9777 161.588 36.9347C160.64 37.8917 160.179 39.1538 160.179 40.7072C160.179 42.2606 160.668 43.4118 161.644 44.4243Z" fill="white"/>
<path d="M192.148 49.3342L199.359 32.1082H202.902L210.113 49.3342H205.873L204.436 45.7143H197.574L196.137 49.3342H192.148ZM201.005 37.1428L199.052 42.0111H202.944L201.019 37.1428H201.005Z" fill="white"/>
<path d="M210.113 35.7836V32.0942H223.294V35.7836H218.691V49.3203H214.73V35.7836H210.127H210.113Z" fill="white"/>
<path d="M230.645 49.3342H227.186V32.1082H231.147V42.8155L238.818 32.1082H242.277V49.3342H238.316V38.6269L230.645 49.3342Z" fill="white"/>
<path d="M247.564 32.1499C249.489 32.0528 252.738 31.9973 254.287 31.9973C258.22 31.9973 260.103 33.7171 260.103 36.283C260.103 37.989 259.434 39.265 258.122 40.1249V40.1804C259.531 40.6936 260.591 42.0528 260.591 44.1194C260.591 45.8669 259.978 47.1707 258.764 48.0861C257.551 49.0015 255.96 49.4453 254.008 49.4453C251.706 49.4453 248.568 49.3898 247.55 49.2927V32.1638L247.564 32.1499ZM251.525 35.7976V38.9183H254.315C255.528 38.9183 256.142 38.3496 256.142 37.24C256.142 36.2553 255.305 35.6866 254.231 35.6866C254.008 35.6866 252.111 35.7144 251.511 35.7837L251.525 35.7976ZM251.525 42.3718V45.6034C251.902 45.7005 253.826 45.756 254.343 45.756C255.877 45.756 256.644 45.1457 256.644 43.9391C256.644 42.8988 255.947 42.3857 254.538 42.3857H251.525V42.3718Z" fill="white"/>
<path d="M274.818 49.3342V42.3855H267.914V49.3342H263.953V32.1082H267.914V38.7101H274.818V32.1082H278.779V49.3342H274.818Z" fill="white"/>
<path d="M296.214 43.1207C296.214 40.1804 294.052 37.6284 291.249 37.0458C290.956 36.9904 289.366 36.6436 287.497 37.0875V32.0667H283.549V49.2927H287.497H289.979C293.313 49.2511 296.214 46.4356 296.214 43.1069V43.1207ZM287.497 45.5341V40.749C287.692 40.6797 289.198 40.1804 290.523 40.6381C291.625 41.0264 292.406 42.1221 292.406 43.093C292.406 44.3967 291.179 45.5479 289.882 45.5895L287.497 45.5341Z" fill="white"/>
<path d="M309.353 49.3342H305.894V32.1082H309.855V42.8155L317.527 32.1082H320.986V49.3342H317.025V38.6269L309.353 49.3342Z" fill="white"/>
<path d="M112.658 76.0056V69.0569H105.754V76.0056H101.793V58.7795H105.754V65.3815H112.658V58.7795H116.62V76.0056H112.658Z" fill="white"/>
<path d="M125.351 76.0056H121.892V58.7795H125.853V69.4869L133.524 58.7795H136.983V76.0056H133.022V65.2983L125.351 76.0056Z" fill="white"/>
<path d="M142.87 58.821C144.795 58.7239 148.045 58.6685 149.593 58.6685C153.526 58.6685 155.409 60.3883 155.409 62.9542C155.409 64.6601 154.74 65.9361 153.429 66.7961V66.8515C154.837 67.3647 155.897 68.7239 155.897 70.7905C155.897 72.5381 155.284 73.8418 154.07 74.7572C152.857 75.6726 151.267 76.1164 149.314 76.1164C147.012 76.1164 143.874 76.061 142.856 75.9639V58.8349L142.87 58.821ZM146.831 62.4687V65.5894H149.621C150.834 65.5894 151.448 65.0207 151.448 63.9112C151.448 62.9264 150.611 62.3578 149.537 62.3578C149.314 62.3578 147.417 62.3855 146.817 62.4549L146.831 62.4687ZM146.831 69.0429V72.2746C147.208 72.3716 149.133 72.4271 149.649 72.4271C151.183 72.4271 151.95 71.8169 151.95 70.6102C151.95 69.57 151.253 69.0568 149.844 69.0568H146.831V69.0429Z" fill="white"/>
<path d="M161.337 76.0056V58.7795H173.095V62.4689H165.298V65.4924H172.356V69.1818H165.298V72.3024H173.332V75.9917H161.337V76.0056Z" fill="white"/>
<path d="M208.984 74.3135C208.467 74.9099 207.672 75.3953 206.626 75.7698C205.58 76.1443 204.492 76.3107 203.335 76.3107C200.643 76.3107 198.453 75.4924 196.779 73.8696C195.091 72.2192 194.254 70.0832 194.254 67.3925C194.254 64.7018 195.049 62.663 196.626 60.9848C198.216 59.3065 200.433 58.4744 203.307 58.4744C205.51 58.4744 207.519 59.2095 208.607 60.2774L206.849 63.2316C205.692 62.5243 204.492 62.1776 203.307 62.1776C201.898 62.1776 200.726 62.6491 199.82 63.5506C198.913 64.4522 198.453 65.742 198.453 67.3925C198.453 68.9182 198.941 70.1803 199.917 71.1512C200.88 72.1082 202.149 72.6075 203.697 72.6075C205.078 72.6075 206.347 72.1914 207.463 71.3454L208.97 74.2996L208.984 74.3135Z" fill="white"/>
<path d="M217.171 76.0056H213.712V58.7795H217.673V69.4869L225.345 58.7795H228.804V76.0056H224.842V65.2983L217.171 76.0056Z" fill="white"/>
<path d="M232.486 62.4689V58.7795H245.667V62.4689H241.064V76.0056H237.103V62.4689H232.5H232.486Z" fill="white"/>
<path d="M249.768 76.0056V58.7795H261.526V62.4689H253.729V65.4924H260.787V69.1818H253.729V72.3024H261.763V75.9917H249.768V76.0056Z" fill="white"/>
<path d="M265.599 62.4689V58.7795H278.78V62.4689H274.177V76.0056H270.215V62.4689H265.613H265.599Z" fill="white"/>
<path d="M93.9259 58.8073L90.4249 67.1984C88.4722 64.6187 86.8263 61.8031 85.5571 58.7795H81.54C83.2138 63.2317 85.6408 67.2955 88.6117 70.9016L88.5001 71.1374L88.2769 71.6506C88.0538 72.1221 87.6353 72.344 86.9937 72.344C86.6032 72.344 86.1987 72.1915 85.7802 71.9279L84.3994 75.2705C84.9015 75.6589 86.0592 76.0334 87.0216 76.0334C89.323 76.0334 90.8852 74.7019 92.0987 71.9418L97.915 58.7934H93.9259V58.8073Z" fill="white"/>
<path d="M90.8436 40.8598C93.2287 38.183 95.2233 35.2704 96.646 32.0942H92.2803C90.997 34.6462 89.3233 37.0318 87.3427 39.2232L86.994 39.5422V32.0942H83.0327V49.3203H86.994V41.8168L92.6569 49.3203H97.706L90.8297 40.846L90.8436 40.8598Z" fill="white"/>
<path d="M253.185 14.0774C255.57 11.4005 257.565 8.48791 258.987 5.31177H254.622C253.338 7.86378 251.665 10.2494 249.684 12.4408L249.335 12.7598V5.31177H245.374V22.5378H249.335V15.0344L254.998 22.5378H260.047L253.171 14.0635L253.185 14.0774Z" fill="white"/>
<path d="M128.336 32.0666H125.853H121.906V49.2927H125.853V44.2719C127.722 44.7157 129.326 44.369 129.605 44.3135C132.409 43.731 134.571 41.1789 134.571 38.2386C134.571 34.9099 131.683 32.0943 128.336 32.0527V32.0666ZM128.238 35.7698C129.535 35.8114 130.763 36.9626 130.763 38.2663C130.763 39.2372 129.982 40.3329 128.88 40.7213C127.555 41.1928 126.048 40.6935 125.853 40.6103V35.8253L128.238 35.7698Z" fill="white"/>
<path d="M184.895 32.0666H182.412H178.465V49.2927H182.412V44.2719C184.281 44.7157 185.885 44.369 186.164 44.3135C188.968 43.731 191.13 41.1789 191.13 38.2386C191.13 34.9099 188.242 32.0943 184.895 32.0527V32.0666ZM184.797 35.7698C186.094 35.8114 187.322 36.9626 187.322 38.2663C187.322 39.2372 186.541 40.3329 185.439 40.7213C184.114 41.1928 182.607 40.6935 182.412 40.6103V35.8253L184.797 35.7698Z" fill="white"/>
<path d="M184.895 58.7241H182.412H178.465V75.9501H182.412V70.9293C184.281 71.3732 185.885 71.0264 186.164 70.9709C188.968 70.3884 191.13 67.8364 191.13 64.8961C191.13 61.5673 188.242 58.7518 184.895 58.7102V58.7241ZM184.797 62.4273C186.094 62.4689 187.322 63.6201 187.322 64.9238C187.322 65.8947 186.541 66.9904 185.439 67.3787C184.114 67.8503 182.607 67.351 182.412 67.2678V62.4827L184.797 62.4273Z" fill="white"/>
<path d="M301.501 32.0942H297.54V49.3203H301.501V32.0942Z" fill="white"/>
<path d="M312.324 26.7822C312.324 27.6976 312.743 28.0166 313.859 28.0166C314.877 28.0166 315.295 27.767 315.295 26.7822H319.006C319.033 27.9611 318.559 28.9182 317.597 29.6394C316.662 30.3467 315.421 30.7212 313.859 30.7212C310.567 30.7212 308.614 29.1678 308.614 26.7822H312.324Z" fill="white"/>
<path d="M290.44 0C290.44 0.915395 290.858 1.2344 291.974 1.2344C292.992 1.2344 293.411 0.984743 293.411 0H297.121C297.149 1.17892 296.674 2.13592 295.712 2.85714C294.777 3.56449 293.536 3.93897 291.974 3.93897C288.682 3.93897 286.729 2.38558 286.729 0H290.44Z" fill="white"/>
</g>
<defs>
<clipPath id="clip0_44_1996">
<rect width="321" height="80" fill="white"/>
</clipPath>
</defs>
</svg>
